<svg id="eWbiBafPdD31" xmlns="http://www.w3.org/2000/svg" xmlns:xlink="http://www.w3.org/1999/xlink" viewBox="0 0 2512.07 3133.67" shape-rendering="geometricPrecision" text-rendering="geometricPrecision" width="2512.07" height="3133.67">
<style><![CDATA[
#eWbiBafPdD357_to {animation: eWbiBafPdD357_to__to 3000ms linear infinite normal forwards}@keyframes eWbiBafPdD357_to__to { 0% {transform: translate(495.402313px,1763.505127px)} 16.666667% {transform: translate(504.068693px,1800.673006px)} 33.333333% {transform: translate(495.402313px,1763.505127px)} 43.333333% {transform: translate(504.068693px,1800.673006px)} 53.333333% {transform: translate(495.402313px,1763.505127px)} 60% {transform: translate(504.068693px,1800.673006px)} 80% {transform: translate(483.740212px,1804.080915px)} 100% {transform: translate(495.402313px,1763.505127px)}} #eWbiBafPdD357_tr {animation: eWbiBafPdD357_tr__tr 3000ms linear infinite normal forwards}@keyframes eWbiBafPdD357_tr__tr { 0% {transform: rotate(0deg)} 16.666667% {transform: rotate(-6.479075deg)} 33.333333% {transform: rotate(0deg)} 43.333333% {transform: rotate(-6.479075deg)} 53.333333% {transform: rotate(0deg)} 60% {transform: rotate(-6.479075deg)} 80% {transform: rotate(-15.880299deg)} 100% {transform: rotate(0deg)}} #eWbiBafPdD3104_to {animation: eWbiBafPdD3104_to__to 3000ms linear infinite normal forwards}@keyframes eWbiBafPdD3104_to__to { 0% {transform: translate(1386.102966px,792.235688px)} 50% {transform: translate(1386.102966px,814.274926px)} 100% {transform: translate(1386.102966px,792.235688px)}} #eWbiBafPdD3105_tr {animation: eWbiBafPdD3105_tr__tr 3000ms linear infinite normal forwards}@keyframes eWbiBafPdD3105_tr__tr { 0% {transform: translate(995.887527px,446.28px) rotate(4.102398deg)} 50% {transform: translate(995.887527px,446.28px) rotate(10.944117deg)} 100% {transform: translate(995.887527px,446.28px) rotate(4.102398deg)}} #eWbiBafPdD3138_to {animation: eWbiBafPdD3138_to__to 3000ms linear infinite normal forwards}@keyframes eWbiBafPdD3138_to__to { 0% {transform: translate(2084.205933px,1882.42334px)} 33.333333% {transform: translate(2070.841401px,1886.346522px)} 53.333333% {transform: translate(2084.205933px,1882.42334px)} 63.333333% {transform: translate(2070.841401px,1886.346522px)} 100% {transform: translate(2084.205933px,1882.42334px)}} #eWbiBafPdD3138_tr {animation: eWbiBafPdD3138_tr__tr 3000ms linear infinite normal forwards}@keyframes eWbiBafPdD3138_tr__tr { 0% {transform: rotate(0deg)} 33.333333% {transform: rotate(6.343636deg)} 53.333333% {transform: rotate(0deg)} 63.333333% {transform: rotate(6.343636deg)} 100% {transform: rotate(0deg)}} #eWbiBafPdD3178_tr {animation: eWbiBafPdD3178_tr__tr 3000ms linear infinite normal forwards}@keyframes eWbiBafPdD3178_tr__tr { 0% {transform: translate(1879.016202px,483.281544px) rotate(-1.482699deg)} 50% {transform: translate(1879.016202px,483.281544px) rotate(-9.308414deg)} 100% {transform: translate(1879.016202px,483.281544px) rotate(-1.482699deg)}}
]]></style>
<path d="M2652.32,2514.39c-48.17,42.07-54.45,85.88-48.84,111.92c4.44,20.62,13.77,39.9,38.59,52.74c26.17,13.54,76.43,18.48,124.65-6.19c19.67-10.07,43.94-24.64,77.86-22.14c2.9-7.11-1.55-15.16-9.69-23.17c14.72-10.6,33.14-21.08,64.27-31c.32-.1-28.14-84.54-163.83-105.91c1-19.57-10.88-30-27.61-31-6.4,34.22-23.09,26.54-55.4,54.75Z" transform="translate(-765.34-403.05)" fill="#c4612b"/><path d="M2642.08,2679c26.15,13.54,76.42,18.5,124.63-6.18c19.62-10,43.78-24.56,77.55-22.18.116443-.010228.233557-.010228.35,0c.42333-1.049664.696032-2.153939.81-3.28.179056-3.251743-.588605-6.485646-2.21-9.31-2.241493-3.89932-5.044888-7.447367-8.32-10.53c14.73-10.61,33.15-21.11,64.27-31-.51169-1.695112-1.157048-3.34696-1.93-4.94-.21-.51-.48-1-.78-1.66-.95-2-2.22-4.43-3.79-7.19-.32-.55-.64-1.14-1-1.73-.78-1.24-1.57-2.55-2.46-3.94-.39-.62-.82-1.24-1.25-1.87-3.276357-4.846899-6.828895-9.501258-10.64-13.94-22.21-25.87-64.73-58.45-142-70.66c1-19.56-10.88-30-27.62-31-6.39,34.19-23.07,26.5-55.4,54.71-39.86,34.85-51,70.83-50.5,97c0,0,0,0,0,.07.082138,5.013348.651483,10.006836,1.7,14.91c4.51,20.65,13.76,39.93,38.59,52.72Z" transform="translate(-765.34-403.05)" fill="#c4612b"/><path d="M2642.08,2679c26.15,13.54,76.42,18.5,124.63-6.18c19.62-10,43.78-24.56,77.55-22.18.116443-.010228.233557-.010228.35,0c.42333-1.049664.696032-2.153939.81-3.28.179056-3.251743-.588605-6.485646-2.21-9.31-2.241493-3.89932-5.044888-7.447367-8.32-10.53c14.73-10.61,33.15-21.11,64.27-31-.51169-1.695112-1.157048-3.34696-1.93-4.94-.21-.51-.48-1-.78-1.66-.95-2-2.22-4.43-3.79-7.19-.32-.55-.64-1.14-1-1.73-.78-1.24-1.57-2.55-2.46-3.94-.39-.62-.82-1.24-1.25-1.87-3.276357-4.846899-6.828895-9.501258-10.64-13.94-22.21-25.87-64.73-58.45-142-70.66c0-.58.05-1.12.06-1.68.12-7.15-1.57-13-4.63-17.56-.23-.32-.43-.62-.66-.95-4.63-6.24-11.93-9.79-20.7-10.67-.55,0-1.11-.1-1.69-.13-6.39,34.19-23.07,26.5-55.4,54.71-39.86,34.85-51,70.83-50.5,97c0,0,0,0,0,.07.082138,5.013348.651483,10.006836,1.7,14.91c1.034461,4.933991,2.435003,9.784075,4.19,14.51c5.61,14.98,15.54,28.49,34.4,38.2Z" transform="translate(-765.34-403.05)" fill="#666566"/><g opacity="0.4"><path d="M2735.39,2489c.248002.587104.461695,1.188116.64,1.8l-.71-.12c.05-.58.05-1.14.07-1.68Z" transform="translate(-765.34-403.05)" fill="#fff"/></g><g opacity="0.4"><path d="M2607.67,2640.84c2.72-9.44,5.68-17,7.25-27.3c3.73-24.89,18.35-58.43,42-79.13c30-26.24,48.2-20.63,63.19-51.61c9.89.54,12.55-.64,15.23,6.19.12-7.15-1.57-13-4.63-17.56-.23-.32-.43-.62-.66-.95-4.63-6.24-11.93-9.79-20.7-10.67l-1.67-.11v0c-6.39,34.19-23.07,26.5-55.4,54.71-39.86,34.85-51,70.83-50.5,97c0,0,0,0,0,.07.082138,5.013348.651483,10.006836,1.7,14.91c1.037339,4.913672,2.437851,9.743599,4.19,14.45Z" transform="translate(-765.34-403.05)" fill="#fff"/></g><g opacity="0.4"><path d="M2877.29,2561.33c16.66,19.39,21.92,35,21.88,35.26-1.88.59-3.69,1.21-5.49,1.8-4.224978-6.977758-9.024972-13.590711-14.35-19.77-22.23-25.87-64.7-58.47-142-70.64.37-7,0-12.75-1.31-17.19c76.83,12.27,119.14,44.77,141.27,70.54Z" transform="translate(-765.34-403.05)" fill="#fff"/></g><path d="M2642.08,2679c26.15,13.54,76.42,18.5,124.63-6.18c19.62-10,43.78-24.56,77.55-22.18.116443-.010228.233557-.010228.35,0c.42333-1.049664.696032-2.153939.81-3.28.1961-3.253242-.572706-6.491967-2.21-9.31-2.241493-3.89932-5.044888-7.447367-8.32-10.53c14.73-10.61,33.15-21.11,64.27-31-.51169-1.695112-1.157048-3.34696-1.93-4.94-.21-.51-.48-1-.78-1.66-.95-2-2.22-4.43-3.79-7.19-.32-.55-.64-1.14-1-1.73-.78-1.24-1.57-2.55-2.46-3.94-.39-.62-.82-1.24-1.25-1.87-3.276357-4.846899-6.828895-9.501258-10.64-13.94c4.74,15.12-.42,23.68-15.87,26.38-30.88,5.4-58.88,1.93-86.48,16.13c16.48,15.82-21.8,37.42-34.48,37.81-49.71,1.56-70.77-46.26-95.35-52-31.81-7.37-43.32,21.69-43.35,21.72.082138,5.013348.651483,10.006836,1.7,14.91c4.52,20.73,13.77,40.01,38.6,52.8Z" transform="translate(-765.34-403.05)" fill="#595959"/><path d="M2695,2706c-23.66,0-44.72-5.11-60.1-13.06-33.33-17.25-42.61-44.4-46.69-63.33-3.4-15.79-9.56-71.61,53.84-127v0c9.729717-8.443531,20.337058-15.819053,31.64-22c12.86-7.36,15.91-9.1,18.67-23.85c1.433794-7.731281,8.400636-13.184711,16.25-12.72c21.74,1.24,37,14.08,41.25,33.27c128.5,24.75,164,106.19,164.88,118.07.537077,7.240434-3.982365,13.897394-10.91,16.07-21.27,6.74-35.69,13.59-46.5,20c5.28,10.4,4.2,19,1.72,25.13-2.563991,6.267437-8.865908,10.176885-15.62,9.69-26.49-1.94-46.56,8.48-64.24,17.69l-5.36,2.77c-24.383893,12.564611-51.39948,19.168574-78.83,19.27Zm22.81-225.89c-6.85,15.23-17.5,21.32-28.6,27.68-7.56,4.32-16.12,9.22-26.62,18.38-50.53,44.13-46.33,85.3-43.84,96.86c4.48,20.81,13.61,33.42,30.5,42.16c23.51,12.16,68.08,15.4,110.35-6.23l5.15-2.67c14.59-7.6,33.28-17.33,56.89-20.45-4.351479-6.981964-2.545727-16.141895,4.13-20.95c10.9-7.86,26.3-17.68,51.64-27.27-13.84-22.51-52.2-67-144.51-81.5-7.9056-1.248624-13.590599-8.267462-13.17-16.26.18-3.49-.05-7.03-1.92-9.76v.01Zm-65.49,34.29v0Z" transform="translate(-765.34-403.05)" fill="#3a3a3a"/><path d="M2750.2,2495.45c-10.23,13.76-20.42,27.93-34.1,38.35c4.53-15.41,4.34-32,4.36-47.9l29.74,9.55Z" transform="translate(-765.34-403.05)" fill="#3a3a3a"/><path d="M2825.85,2640.29c-13.09-14.86-28.66-30.36-48.3-36.15c22.46-4.36,45.27,2.81,66.39,10.68l-18.09,25.47Z" transform="translate(-765.34-403.05)" fill="#3a3a3a"/><path d="M2233,2764.6c57.33,60.74,250.5,145.46,319.51,59.72c59.2-73.54-35.95-145.74,37.14-211.51c30.27-25.29,59.29-19.31,67.36,2.18c9.51,25.28-18.79,33.51-15.93,59.34c2.86,48,33.47,120.31-11.55,194.24-42.1,69.14-153.41,143.61-420.8,42.84" transform="translate(-765.34-403.05)" fill="#fff"/><path d="M2436.81,2976.3c-60.66,0-137.18-13.92-233.64-50.27l11-29.24c268.8,101.3,367.22,20.71,402-36.35c31.32-51.44,22.55-101.47,14.82-145.63-2.44-13.9-4.74-27-5.49-39.17-1.79-17.43,6.08-29.35,11.85-38.07c6-9.09,7.1-11.56,5-17.08-1.413987-4.021267-4.786979-7.039604-8.94-8-9-2.38-21.53,2.18-33.57,12.17-31,28.08-25.23,56.28-17.87,92c7.38,35.83,15.76,76.44-17.33,117.55-21.15,26.27-52.88,40.42-94.31,42.06-91.65,3.64-206.67-56.3-248.73-100.85l22.72-21.45c37.09,39.29,143.05,94.34,224.78,91.08c32-1.26,56-11.5,71.2-30.43c23.85-29.63,17.93-58.37,11.07-91.65-7.88-38.22-16.81-81.54,27.79-121.68l.43-.37c20.16-16.85,42.67-23.62,61.78-18.59c13.937863,3.572206,25.235627,13.756264,30.23,27.25c7.87,21-1.81,35.62-8.21,45.31-5,7.49-7.5,11.68-6.82,17.81c0,.26.05.53.07.79.62,10.45,2.8,22.87,5.1,36c7.82,44.65,18.53,105.78-18.91,167.27-26.55,43.51-84.38,99.53-206.02,99.54Z" transform="translate(-765.34-403.05)" fill="#000072"/><path d="M1904.24,1912.39c-269.45,29.42-422.72,221.61-953.5,90.91l-138.32,262c173.53,184.35,605.18,228,920.65,8.89l171.17-361.8Z" transform="translate(-765.34-403.05)" fill="#fff"/><path d="M1904.24,1912.39l-49.71,105.08-121.45,256.72c-315.48,219.07-747.11,175.45-920.65-8.91l138.32-262c398.16,98,583.88,14.4,765.58-46c60.53-20.02,120.59-37.55,187.91-44.89Z" transform="translate(-765.34-403.05)" fill="#fff"/><path d="M1904.24,1912.39l-49.71,105.08c-56.82-18.51-104.42-40.53-138.2-60.14c60.53-20.07,120.59-37.6,187.91-44.94Z" transform="translate(-765.34-403.05)" fill="#eaeaea"/><path d="M2351.06,2011.65c-205.56,86.58-425.22,38.7-560.1-17.77c62.24-75.21,172.72-163,338.91-138.94c110.48,0,179.25,75.88,221.19,156.71Z" transform="translate(-765.34-403.05)" fill="#eaeaea"/><path d="M2404.13,1986.07c-113,61.86-233.06,78.42-343,71.5l-136.5-140.77c23.74-.7,379.88,31.71,379.88,31.71c20.66,3.32,45.06,12.14,72.63,24.64c8.67,3.94,17.69,8.28,26.99,12.92Z" transform="translate(-765.34-403.05)" fill="#eaeaea"/><path d="M1252.67,2437.21c-186.59,0-356.36-60-451.62-161.2-4.579964-4.86034-5.560768-12.095783-2.44-18l138.32-262c3.349164-6.342155,10.584931-9.591034,17.55-7.88c362.1,89.17,548.71,25.41,713.34-30.85c77-26.3,149.64-51.13,234.73-60.42l3.39,31.05c-81.65,8.92-152.74,33.21-228,58.93-166.89,57-355.84,121.57-719.05,34.51L831.54,2262.54c84.15,83.46,228.31,136.66,388.58,142.88c181.11,7,360.14-44.13,504-144.05L1742,2287c-150.25,104.34-326.22,150.21-489.33,150.21Z" transform="translate(-765.34-403.05)" fill="#000072"/><path d="M1958.85,2901.65c-9.84,65.1,23,424.85,6.82,516.63-12.77,72.39-59.66,102.54-162.6,102.54h-172.66c-68.73,0-78.37-45.34-77.58-68.71c1.4-41.47,15.14-79,43.61-110.2c0,0-47.62-327.67-52.67-645.32l415.08,205.06Z" transform="translate(-765.34-403.05)" fill="#fff"/><path d="M1969.65,3371.66c-.66,19.1-1.91,35-4,46.63-12.77,72.4-59.67,102.54-162.61,102.54h-172.62c-68.73,0-78.37-45.34-77.59-68.73c1.4-41.47,15.15-79,43.62-110.2c0,0-.12-.93-.39-2.73-4.57-32.06-47.53-341.81-52.29-642.57l415.06,205.05c-8.55,56.86,15.43,338.49,10.82,470.01Z" transform="translate(-765.34-403.05)" fill="#fff"/><path d="M1969.65,3371.66c-.66,19.1-1.91,35-4,46.63-12.77,72.4-59.67,102.54-162.61,102.54h-172.62c-68.73,0-78.37-45.34-77.59-68.73.19-6.24.7-12.45,1.48-18.51c4.41-34.13,18-65.17,42.14-91.69c0,0-.12-.93-.39-2.73-3.67-25.73-32-230.09-45.58-465.21-3.32-58-5.78-117.85-6.71-177.36l415.06,205.05c-8.55,56.86,15.43,338.49,10.82,470.01Z" transform="translate(-765.34-403.05)" fill="#fff"/><path d="M1969.65,3371.66c-.66,19.1-1.91,35-4,46.63-12.77,72.4-59.67,102.54-162.61,102.54h-172.62c-68.73,0-78.37-45.34-77.59-68.73.19-6.24.7-12.45,1.48-18.51c4.41-34.13,18-65.17,42.14-91.69c0,0-.12-.93-.39-2.73-2.39-16.75-15.23-109.15-27.65-236.45-6.68-68.3-13.2-146.63-17.93-228.76-3.32-58-5.78-117.85-6.71-177.36l111.33,55l303.73,150c-8.55,56.91,15.43,338.54,10.82,470.06Z" transform="translate(-765.34-403.05)" fill="#fff"/><path d="M1969.65,3371.66c-.66,19.1-1.91,35-4,46.63-12.77,72.4-59.67,102.54-162.61,102.54h-172.62c-68.73,0-78.37-45.34-77.59-68.73.19-6.24.7-12.45,1.48-18.51c25.85,14.1,62.21,24.88,113,24.88c146.48,0,254.81,16.56,254.07-122.78-.82-149.29-6.68-219.58-192.91-313.3-85.25-42.87-141.48-94.15-178-148.43-3.32-58-5.78-117.85-6.71-177.36l415.06,205.05c-8.54,56.86,15.44,338.49,10.83,470.01Z" transform="translate(-765.34-403.05)" fill="#eaeaea"/><path d="M1677.16,2993.5c-57.32-36.28-98.09-77-126.68-119.54-3.32-58-5.78-117.85-6.71-177.36l111.33,55c3.24,32.1,8.43,72,16.79,114.57c14.68,74.83,16.83,108.7,5.27,127.33Z" transform="translate(-765.34-403.05)" fill="#595959"/><path d="M1648.46,3098.54c-18.78,13.47-53.77,14.61-80,4.18-6.68-68.3-13.2-146.63-17.93-228.76-3.32-58-5.78-117.85-6.71-177.36l111.33,55c3.24,32.1,8.43,72,16.79,114.57c20.07,102.39,16.75,128-13.2,143s28.77,61.33-10.28,89.37Z" transform="translate(-765.34-403.05)" fill="#5f5f82"/><path d="M1677.16,2993.5c-57.32-36.28-98.09-77-126.68-119.54-3.32-58-5.78-117.85-6.71-177.36l111.33,55c3.24,32.1,8.43,72,16.79,114.57c14.68,74.83,16.83,108.7,5.27,127.33Z" transform="translate(-765.34-403.05)" fill="#595959"/><path d="M1969.65,3371.66c-.66,19.1-1.91,35-4,46.63-12.77,72.4-59.67,102.54-162.61,102.54h-172.62c-68.73,0-78.37-45.34-77.59-68.73.08-2.73.23-5.42.43-8.12.19-2.26.39-4.53.62-6.79.16-1.21.27-2.42.43-3.6c25.85,14.1,62.21,24.88,113,24.88c132.78,0,234.19,13.59,251.41-87.59c18.17,1.83,35.66,2.26,50.93.78Z" transform="translate(-765.34-403.05)" fill="#595959"/><path d="M1969.65,3371.66c-.66,19.1-1.91,35-4,46.63-12.77,72.4-59.67,102.54-162.61,102.54h-172.62c-68.73,0-78.37-45.34-77.59-68.73c1.4-41.47,15.15-79,43.62-110.2c0,0-.12-.93-.39-2.73c79.58-26.91,143.51-19.92,219.85,9.14c43.09,15.07,108.33,27.8,153.74,23.35Z" transform="translate(-765.34-403.05)" fill="#5f5f82"/><g opacity="0.2"><path d="M1969.65,3371.66c-.66,19.1-1.91,35-4,46.63-12.77,72.4-59.67,102.54-162.61,102.54h-172.62c-68.73,0-78.37-45.34-77.59-68.73.08-2.73.23-5.42.43-8.12.19-2.26.39-4.53.62-6.79.16-1.21.27-2.42.43-3.6c25.85,14.1,62.21,24.88,113,24.88c132.78,0,234.19,13.59,251.41-87.59c18.17,1.83,35.66,2.26,50.93.78Z" transform="translate(-765.34-403.05)" fill="#000072"/></g><path d="M1803.07,3536.44h-172.66c-31.36,0-55.55-8.58-71.91-25.5-19.57-20.25-21.74-45.88-21.28-59.36c1.49-44.16,15.86-82.67,42.75-114.58-6.93-49.86-47.22-350.91-51.81-640.16l31.23-.5c5,312.95,52,640,52.51,643.32l1.1,7.34-5,5.46c-24.92,27.33-38.22,61.05-39.54,100.2-.23,6.87.53,24.19,12.52,36.6c10.25,10.59,26.89,16,49.45,16h172.66c109.06,0,137.72-35.83,147.21-89.63c8.73-49.49,2.51-184-3-302.62-4.55-98.37-8.48-183.32-3.9-213.63l30.89,4.66c-4.12,27.28-.07,114.83,4.22,207.53c5.56,120.27,11.87,256.58,2.54,309.48-14.28,80.86-67.5,115.39-177.98,115.39Z" transform="translate(-765.34-403.05)" fill="#000072"/><path d="M1841.3,3359.69c-74-31.15-165.49-44.82-237.93-3.78l-13.86-28c82.7-34.67,177.18-11.19,251.79,31.78Z" transform="translate(-765.34-403.05)" fill="#000072"/><path d="M1688.45,3368.72c-10.59,32.72-33.8,143.43,25,136.48v31.24c-86.55-8-51.09-117.79-25-167.72Z" transform="translate(-765.34-403.05)" fill="#000072"/><path d="M1695.89,2997.1c-189-107.64-194.85-311.4-166.35-451.17C1555,2421,1634,2246.55,1728.42,2090.66c0,0,188.42-235.73,401.47-235.73c236.48,0,281.88,347.68,281.88,347.68c60.41,221.89,66.95,330.71,72.25,492.55-3.58,114.29-24.33,167.64-36.18,194.09-191.41,157.88-459.09,178.9-637.31,144.68-35.48-5.84-82.92-22.26-114.64-36.83Z" transform="translate(-765.34-403.05)" fill="#fff"/><path d="M2484,2695.15c-3.59,114.3-24.33,167.64-36.2,194.08-191.38,157.92-459.07,178.93-637.3,144.68-35.46-5.82-82.9-22.26-114.61-36.82-124.26-70.72-169.36-183-177.56-291.4-4.3-56.46,1.44-111.87,11.2-159.75c25.46-124.92,104.38-299.4,198.89-455.29c0,0,121.78-276.22,401.43-235.71c236.49,0,281.91,347.67,281.91,347.67c47.64,174.9,61.74,279.56,68.18,395.34c1.78,31.05,2.95,62.95,4.06,97.2Z" transform="translate(-765.34-403.05)" fill="#fff"/><path d="M2351.06,2011.65c-205.56,86.58-425.22,38.7-560.1-17.77c62.24-75.21,172.72-163,338.91-138.94c110.48,0,179.25,75.88,221.19,156.71Z" transform="translate(-765.34-403.05)" fill="#eaeaea"/><path d="M2484,2695.15c-3.59,114.3-24.33,167.64-36.2,194.08-191.38,157.92-459.07,178.93-637.3,144.68-35.46-5.82-82.9-22.26-114.61-36.82-124.26-70.72-169.36-183-177.56-291.4C1684.62,2964.72,2312,2888.06,2480,2598c1.72,31,2.89,62.9,4,97.15Z" transform="translate(-765.34-403.05)" fill="#eaeaea"/><path d="M2266.94,2781.26c-56.19,153.7-211.65,207.12-364.65,193.61-98.53-6.44-256.6-52.76-317.36-198.53c159.4,119.66,463.52,111.09,682.01,4.92Z" transform="translate(-765.34-403.05)" fill="#ffb6b8"/><path d="M1560,2642.3c0-203.62,164.42-493.9,365.27-499c118.64-3,320.18,90.78,359.76,437.84c35.15,308.13-176.05,412-382.69,393.76-124.04-8.15-342.34-79.42-342.34-332.6Z" transform="translate(-765.34-403.05)" fill="#fcdbdb"/><path d="M2266.94,2781.26c-56.19,153.7-211.65,207.12-364.65,193.61-98.53-6.44-256.6-52.76-317.36-198.53c159.4,119.66,463.52,111.09,682.01,4.92Z" transform="translate(-765.34-403.05)" fill="#ffb6b8"/><path d="M2404.67,2196.78c45.69,139.86,82.22,284.45,91.64,431.75c1.84,29.71,4.36,60.25,2,90-3.91,60.24-11.58,120.75-36.2,177.08-3.5291,7.872819-12.772181,11.3941-20.645,7.865s-11.3941-12.772181-7.865-20.645c25.28-58.12,31.78-124.11,34.53-187.34-.76-50.51-7.63-101-13.1-151.25-12.24-116.51-30.27-231.89-50.34-347.49l-.02.03Z" transform="translate(-765.34-403.05)" fill="#000072"/><path d="M1695.89,2997.1c-176.11-73.57-221.62-273.22-186-445.66c12.94-64.07,35.21-124.32,60.6-183.86c42.47-97.64,95.43-191.06,158-276.92-49,100.06-96.09,199.48-135,303.22-34.45,91.57-60.1,188.43-58.27,286.78.36,129.32,55,240.38,160.77,316.44h-.1Z" transform="translate(-765.34-403.05)" fill="#000072"/><path d="M2511.2,3520.83h-224.5c-91.65,0-111.53-74.19-122.81-151.44-1.25-8.66-2.42-17.41-3.56-26.08-10.73-81.62-33.77-251-46-282.37-43.89,2.77-192.28,9.91-303.77-27c536,41.2,591.13-283.41,631.88-326.85c21.91-16.4,41.35-20.5,41.35-20.5c10.15,105.67,30.34,438.42,42.68,642c.24,3.36.43,6.67.63,10c38.5,32.25,49.67,72.71,50.76,102.07c1.37,36.55-9.72,80.17-66.66,80.17Z" transform="translate(-765.34-403.05)" fill="#fff"/><path d="M2577.9,3450.23c-.94,34.17-14.68,70.6-66.7,70.6h-224.5c-91.65,0-111.53-74.19-122.81-151.44-1.25-8.66-2.42-17.41-3.56-26.08-10.73-81.62-33.77-251-46-282.37-43.89,2.77-192.28,9.91-303.77-27c536,41.2,591.15-283.39,631.88-326.85c21.9-16.4,41.35-20.5,41.35-20.5c6,62.28,15.46,203.41,24.76,350.52c6.48,102.5,12.84,207.9,17.92,291.51.24,3.36.43,6.67.63,10c38.5,32.25,49.67,72.71,50.76,102.07.08,3.1.14,6.31.04,9.54Z" transform="translate(-765.34-403.05)" fill="#fff"/><path d="M2577.9,3450.23c-.94,34.17-14.68,70.6-66.7,70.6h-224.5c-91.65,0-111.53-74.19-122.81-151.44-1.25-8.66-2.42-17.41-3.56-26.08-10.73-81.62-33.77-251-46-282.37-43.89,2.77-192.28,9.91-303.77-27c536,41.2,591.15-283.39,631.88-326.85c21.9-16.4,41.35-20.5,41.35-20.5c6,62.28,15.46,203.41,24.76,350.52-24.76-9.26-56.66-15.7-96.61-14-109.34,4.53-240.23,64.54-195.26,281.47c27.67,133.42,25.35,154.25,211.46,154.25c74.35-.05,120.2.38,149.76-8.6Z" transform="translate(-765.34-403.05)" fill="#eaeaea"/><path d="M2577.9,3450.23c-.142804,5.801386-.717729,11.584064-1.72,17.3-.27,1.72-.62,3.4-1,5.08-.47,2.07-1,4.13-1.68,6.13-.16.58-.35,1.17-.55,1.71s-.47,1.33-.7,2c-.35,1-.78,2-1.21,3s-.94,2.23-1.49,3.28c-.43.9-.86,1.76-1.32,2.58-.51,1-1.06,1.91-1.64,2.81s-1.14,1.8-1.76,2.66c-.47.7-1,1.4-1.49,2.07-.35.47-.74.93-1.13,1.4-.23.32-.51.59-.78.9-.47675.599092-.984091,1.173189-1.52,1.72-.47.51-.94,1-1.45,1.44-.7.71-1.44,1.41-2.18,2-.135547.141466-.279117.27502-.43.4-.78.66-1.6,1.32-2.46,2s-1.72,1.25-2.62,1.87c-.08.08-.2.12-.35.24-.74.46-1.49.93-2.27,1.36-.282612.19343-.580225.363972-.89.51-.75.43-1.53.82-2.31,1.21-.277999.148324-.56526.278594-.86.39-.62.31-1.25.63-1.91.9s-1.06.43-1.6.66c-.82.32-1.68.63-2.54.9-.79766.325814-1.620335.586662-2.46.78-.885849.306696-1.787069.567048-2.7.78-3.013814.782016-6.07765,1.356694-9.17,1.72-2.42.35-5,.59-7.58.71-1.6.07-3.24.11-4.92.11h-224.51c-91.65,0-111.53-74.19-122.81-151.44c17,2.5,38.54,1.57,65.88-3.86c19.64,79.19,45.29,93.25,198.33,93.25c74.39-.02,120.24.41,149.8-8.57Z" transform="translate(-765.34-403.05)" fill="#595959"/><path d="M2511.2,3520.83h-224.5c-91.65,0-111.53-74.19-122.81-151.44c34.57,5.07,87.53-4,169.94-35.77c73.1-28.2,141-25,192.6-5c.24,3.36.43,6.67.63,10c38.5,32.25,49.67,72.71,50.76,102.07c1.41,36.52-9.68,80.14-66.62,80.14Z" transform="translate(-765.34-403.05)" fill="#5f5f82"/><g opacity="0.2"><path d="M2577.9,3450.23c-.142804,5.801386-.717729,11.584064-1.72,17.3-.27,1.72-.62,3.4-1,5.08-.47,2.07-1,4.13-1.68,6.13-.16.58-.35,1.17-.55,1.71s-.47,1.33-.7,2c-.35,1-.78,2-1.21,3s-.94,2.23-1.49,3.28c-.43.9-.86,1.76-1.32,2.58-.51,1-1.06,1.91-1.64,2.81s-1.14,1.8-1.76,2.66c-.47.7-1,1.4-1.49,2.07-.35.47-.74.93-1.13,1.4-.23.32-.51.59-.78.9-.47675.599092-.984091,1.173189-1.52,1.72-.47.51-.94,1-1.45,1.44-.7.71-1.44,1.41-2.18,2-.135547.141466-.279117.27502-.43.4-.78.66-1.6,1.32-2.46,2s-1.72,1.25-2.62,1.87c-.08.08-.2.12-.35.24-.74.46-1.49.93-2.27,1.36-.282612.19343-.580225.363972-.89.51-.75.43-1.53.82-2.31,1.21-.277999.148324-.56526.278594-.86.39-.62.31-1.25.63-1.91.9s-1.06.43-1.6.66c-.82.32-1.68.63-2.54.9-.79766.325814-1.620335.586662-2.46.78-.885849.306696-1.787069.567048-2.7.78-3.013814.782016-6.07765,1.356694-9.17,1.72-2.42.35-4.92.59-7.58.71-1.6.07-3.24.11-4.92.11h-224.51c-91.65,0-111.53-74.19-122.81-151.44c17,2.5,38.54,1.57,65.88-3.86c19.64,79.19,45.29,93.25,198.33,93.25c74.39-.02,120.24.41,149.8-8.57Z" transform="translate(-765.34-403.05)" fill="#000072"/></g><path d="M2499.29,2685.05c16.39,184.79,31,464.89,43.35,652.53l-5.56-11c44.59,36.57,67.3,99.38,51.66,155.75-11.81,41.35-48,56.72-88.25,54.13-41.48,0-146.06,0-186.07,0-5.18.06-18.26-.05-23.26,0-103.88,2.78-131.89-80.63-143.09-167.35-12.41-91-23.68-185-42.61-274.73-2-8.76-4.25-19.44-7.1-27.21l17,10.84c-25.86,1.62-51.78,2.23-77.67,1.45-77.21-2.69-156.58-12.51-227.17-45.51c50.6,9.5,101,12.94,151.48,13.89s101-.93,151.34-4c7.390271-.458974,14.222287,3.935061,16.87,10.85c4.27,11.72,6,21.36,8.38,32.8c6,30.82,10.23,61.81,14.9,92.71c5.86,41.08,11.76,82.08,17.26,123.12c5.92,41,9.38,82.49,19.81,120.11c14.08,52.84,44.08,84,100.6,81.77c4.94.05,18.15,0,23.25,0c39.61,0,145.18,0,186.07,0c41.27,2.64,61.56-14,61.83-58.09.46-37.21-16.62-72.88-45.3-96.61-3.272497-2.757683-5.280155-6.729667-5.56-11-6.61-107.55-23.63-384.94-30.83-489-3.77-54.25-7.51-108.63-12.44-162.45l31.1-3h.01Z" transform="translate(-765.34-403.05)" fill="#000072"/><path d="M2442.19,3364c36.92,41.14,58.11,164.79-20.14,172.45v-31.25c27.24,2.58,34.4-31.32,37.06-53.77c2.24-29.52-1.32-61.35-16.92-87.44v.01Z" transform="translate(-765.34-403.05)" fill="#000072"/><path d="M2282.57,3355c55.92-32.24,120.65-53,186.08-47.58c22.744219,2.031514,44.979345,7.904752,65.76,17.37c5.281468,2.429314,8.78116,7.585985,9.08828,13.391254s-2.628946,11.302415-7.624611,14.275427-11.227632,2.931932-16.183669-.106681c-71.35-43.19-163.41-28.32-237.12,2.65Z" transform="translate(-765.34-403.05)" fill="#000072"/><g id="eWbiBafPdD357_to" transform="translate(495.402313,1763.505127)"><g id="eWbiBafPdD357_tr" transform="rotate(0)"><g transform="translate(-495.402313,-1763.505127)"><path d="M1074.28,1879.29c0,0,12.86,26.27,26,37.48c7.89,6.73,18.53,11,31.13,11.8c33.59,2,68.39-21.76,77.72-53.18c3.91-13.16,2.73-25.57-2.43-35.7-7.16-14-26.11-40.21-26.11-40.21s-96.98,48.38-106.31,79.81Z" transform="translate(-765.34-403.05)" fill="#fff"/><path d="M1440.56,1808.25c0,0,13.68-75.48,4.82-83.08-12.68-10.86-353.21-42.46-380.54-37.29-15.37,2.91-12.23,76.31-12.23,76.31L1168.9,1837l271.66-28.75Z" transform="translate(-765.34-403.05)" fill="#33c1ff"/><polygon points="223.94,1535.31 828.41,1545.13 675.22,1405.2 370.28,1403.78 223.94,1535.31" fill="#3395ff"/><path d="M1168.9,1848.76c-2.2001-.002059-4.35535-.6223-6.22-1.79l-116.29-72.86c-3.266811-2.045644-5.316508-5.569028-5.48-9.42-3.58-83.53,15.49-87.13,21.75-88.32c18.13-3.43,133.65,6.24,199.06,12.48c179.27,17.13,188,24.61,191.28,27.43c4.18,3.58,14,12-.92,94.06-.926098,5.118355-5.117447,9.012358-10.29,9.56l-271.66,28.79c-.408202.048242-.81896.071618-1.23.07Zm-104.79-91.19L1171.69,1825l258.83-27.43c4.22-25.49,7.17-53.39,5.91-63.35-38.18-10.41-329.33-38.32-367.12-35.08-3.59,7.33-5.83,32.63-5.2,58.43Zm376.45,50.68v0Zm-1.19-73.1v0Zm-3.48-3.48" transform="translate(-765.34-403.05)" fill="#000072"/><path d="M1593.75,1959.9h-.19l-604.47-9.82c-4.816156-.076198-9.094369-3.093779-10.782256-7.605121s-.441094-9.596064,3.142256-12.814879l146.33-131.54c2.148712-1.934679,4.938645-3.003619,7.83-3h.06l304.94,1.43c2.90551.011681,5.703102,1.102207,7.85,3.06l153.19,139.93c3.568153,3.262059,4.767149,8.380347,3.019055,12.887775s-6.08452,7.478941-10.919055,7.482225v-.01Zm-574.45-32.77L1563,1936l-127-116-295.91-1.38-120.79,108.51Z" transform="translate(-765.34-403.05)" fill="#000072"/><path d="M930.17,2479.6c189.75,70.18,367.93,89.35,367.93,89.35l295.65-620.77L1202.14,1871l-263.35,64.45c0,0-17.35,298.84-8.62,544.15Z" transform="translate(-765.34-403.05)" fill="#33c1ff"/><path d="M938.78,1935.44c0,0-10.54,181.56-11,377.79-.14,55.57.52,112.25,2.45,166.36c189.75,70.19,367.93,89.35,367.93,89.35l72-151.2l223.62-469.56L1202.16,1871l-263.38,64.44Z" transform="translate(-765.34-403.05)" fill="#33c1ff"/><path d="M938.78,1935.44c0,0-10.54,181.56-11,377.79-.14,55.57.52,112.25,2.45,166.36c189.75,70.19,367.93,89.35,367.93,89.35l72-151.2l223.62-469.56L1202.16,1871l-263.38,64.44Z" transform="translate(-765.34-403.05)" fill="#33c1ff"/><path d="M938.78,1935.44c0,0-10.54,181.56-11,377.79-.14,55.57.52,112.25,2.45,166.36c189.75,70.19,367.93,89.35,367.93,89.35l72-151.2l223.62-469.56L1202.16,1871l-55.5,13.6-207.88,50.84Z" transform="translate(-765.34-403.05)" fill="#33c1ff"/><polygon points="381.32,1481.54 565.08,1609.59 828.4,1545.14 436.82,1467.94 381.32,1481.54" fill="#3395ff"/><path d="M927.75,2313v.2c-.14,55.57.52,112.25,2.45,166.36c189.75,70.19,367.93,89.35,367.93,89.35l72-151.2c-78-32.21-111.36-113.25-162.23-129.72-66.15-21.41-83.93,47.7-130.53,45-52.18-3-94.77-64.45-68.3-103.44c19.85-29.25,101.67-9.48,104-41.86c3.21-44.8-71.46-59.57-115.65-26.37-54.31,40.82-61.92,93.24-69.67,151.68Z" transform="translate(-765.34-403.05)" fill="#fff"/><path d="M1069.39,2228.42c16.49,7.45,24.87,27.68,9.67,35.3-13.37,6.7-18.36-9.58-29.82-17.26-21-14.1-34.32-8-34.7-9.41-1.22-4.5,28.32-20.62,54.85-8.63Z" transform="translate(-765.34-403.05)" fill="#fff"/><path d="M976.39,2138c-3.16-21.22,11.31-26.8,18.34-15.19c5.38,8.88,1.76,21.48-4.81,31-4.33,6.26-15.35,15.52-15.35,15.52c2.772765-10.204119,3.39256-20.873456,1.82-31.33Z" transform="translate(-765.34-403.05)" fill="#fff"/><path d="M1298.11,2580.66c-.421015.001616-.841755-.021759-1.26-.07-1.79-.19-181.82-20.13-370.74-90-4.460276-1.642376-7.483717-5.819862-7.65-10.57-8.65-243,8.46-542.27,8.64-545.26.293453-5.138107,3.909937-9.481136,8.91-10.7l263.34-64.45c1.655619-.401066,3.378487-.438594,5.05-.11l391.6,77.18c3.548204.704558,6.572842,3.006847,8.196879,6.239286s1.665778,7.033389.113121,10.300714L1308.68,2574c-1.944025,4.072739-6.057083,6.664316-10.57,6.66Zm-356.5-109.35c160.77,58.43,313.09,80.34,349.54,85l285.54-599.54L1202.41,1883L950,1944.74c-2.68,50.26-15.6,309.33-8.39,526.57Z" transform="translate(-765.34-403.05)" fill="#000072"/><path d="M1298.1,2569c0,0,227.55-37.83,249.54-71.17c38-269.67,46.11-549.6,46.11-549.6s-199.5,53.93-263.35,64.44C1309,2194.73,1298.1,2569,1298.1,2569Z" transform="translate(-765.34-403.05)" fill="#33c1ff"/><path d="M1298.12,2568.94c0,0,227.53-37.81,249.53-71.18c22.83-162,34.88-327.62,40.86-434.12c4-70.8,5.23-115.46,5.23-115.46s-199.49,53.93-263.33,64.45c-3.42,29.24-6.56,63.41-9.46,100.22-15.17,192.39-22.83,456.09-22.83,456.09Z" transform="translate(-765.34-403.05)" fill="#3395ff"/><path d="M1350.75,2507.86c62.38-12.44,123.09-27.66,149.84-39c20.1-148.89,31.18-299.73,37-400.71-56.58,3.35-104.87,2.57-164,22.59-11.79,136.09-19.42,321.57-22.84,417.12Z" transform="translate(-765.34-403.05)" fill="#b6cedd"/><path d="M1350.75,2507.87c62.36-12.47,123.08-27.65,149.82-39c24-178.23,35.2-359.2,39.81-454.21-49.41,12.9-116.07,29.87-163.65,40.3-13.47,137.41-22.23,348.67-25.98,452.91Z" transform="translate(-765.34-403.05)" fill="#d2efff"/><path d="M1298.1,2580.66c-3.154855-.001727-6.175548-1.276369-8.377953-3.535246s-3.400178-5.310866-3.322047-8.464754c.1-3.75,11.13-376.82,32.37-557.35.607641-5.188515,4.575896-9.348454,9.73-10.2c62.54-10.3,260.21-63.65,262.2-64.19c3.577397-.966815,7.401302-.18325,10.310125,2.11267s4.559229,5.833205,4.449875,9.53733c-.08,2.8-8.53,283.67-46.22,550.89-.239341,1.722361-.861213,3.369297-1.82,4.82-23,34.89-202.83,67.2-257.39,76.27-.639068.091149-1.284714.127948-1.93.11Zm43-558c-18.15,161.79-28.58,463.36-30.79,532.36c102.06-17.74,209.13-44.5,226.22-62c32.07-228.84,42.67-466.88,45-529.41-45.87,12.24-180.79,47.87-240.48,59.03l.05.02Z" transform="translate(-765.34-403.05)" fill="#000072"/><polygon points="173.45,1532.38 565.07,1609.58 675.22,1405.2 287.28,1361.14 173.45,1532.38" fill="#33c1ff"/><polygon points="173.44,1532.39 270.17,1551.43 406.25,1578.28 565.08,1609.59 675.23,1405.19 287.29,1361.13 173.44,1532.39" fill="#33c1ff"/><polygon points="173.44,1532.39 190.63,1535.77 262.95,1550 270.17,1551.43 406.25,1578.28 437.05,1584.38 546.1,1605.85 565.08,1609.59 675.23,1405.19 569.84,1393.24 476.78,1382.67 301.58,1362.77 287.29,1361.13 186.77,1512.29 173.44,1532.39" fill="#33c1ff"/><path d="M1330.41,2024.34c-.762019.000637-1.522285-.073045-2.27-.22l-391.61-77.2c-3.844494-.753184-7.058442-3.377439-8.565203-6.993665s-1.107062-7.746168,1.065203-11.006335l113.83-171.24c2.434625-3.660352,6.711547-5.652132,11.08-5.16l387.94,44.07c3.867456.433468,7.266881,2.75997,9.071146,6.208121s1.777603,7.567373-.071146,10.991879l-110.15,204.37c-2.03823,3.804442-6.003965,6.179271-10.32,6.18Zm-372.16-97l365.94,72.14L1422,1817.93l-363.62-41.3-100.13,150.71Z" transform="translate(-765.34-403.05)" fill="#000072"/><path d="M1211.29,2099c-.545635,3.160651-1.372247,6.266303-2.47,9.28-.38.84-.77,1.63-1.15,2.38q-5,8.2-14.22,6.48c-1.405272-.336162-2.777466-.798022-4.1-1.38q-7.39-3.71-10.09-13.59c-.972884-4.379191-1.256295-8.8834-.84-13.35l.17-2.8c1.347361-15.280417,4.557844-30.338794,9.56-44.84.21-.53.45-1.11.74-1.71q5.74-15.21,17.78-13c3.798814.696949,7.290582,2.547586,10,5.3.352994.237443.687303.501547,1,.79q5,5.51,8,17.51l5.5,22.36c.66,1.6,1.49,2.54,2.49,2.8c1,.11,1.93-.5,2.77-1.83l9.38-22.79q3.85-9.29,6.72-12.57q5.16-5.82,11.7-4.73q8.4,1.68,12.46,14.16c.28,1,.59,2.12.94,3.25q2.91,10.78,4.13,32.46.28,5.85.48,8.84c.506562,5.029728.663606,10.088537.47,15.14q-.64,10.72-6.18,16.36c-3.204898,3.422189-7.955893,4.936451-12.55,4-.592037-.113849-1.176482-.264134-1.75-.45q-8.6-2.58-11.89-13.06c-.93295-3.608293-1.307297-7.338273-1.11-11.06l.75-6q1.25-8,5.14-24.07c.35-1.74,0-2.77-1.21-3.07-.68,0-1.21.36-1.6,1.19l-7.9,13.21c-.47.73-1.17,1.87-2.11,3.43s-1.65,2.82-2.12,3.55q-4.18,6.26-9.46,5.39c-.593425-.107587-1.178286-.257979-1.75-.45-3.31-1.18-5.3-4.56-6-10.11-.795912-6.097747-2.533249-12.035055-5.15-17.6-.176561-.673533-.662886-1.222969-1.31-1.48-.67,0-1.13.57-1.38,1.84q-2.13,20.14-3.84,30.22Zm43.52-52.71c.051653.469382.378165.86277.83,1l.76.14c.43979-.090691.871276-.217795,1.29-.38c2.459257-1.061551,4.669762-2.624913,6.49-4.59.321069-.400292.562118-.858624.71-1.35c0-1.39-.78-2.32-2.36-2.78-1.278936-.148282-2.573166.084819-3.72.67-2.405313,1.30953-3.929889,3.802212-4,6.54v.75Zm-58.88-5.76c.043751.472693.373455.869926.83,1l.75.14c.440126-.089341.871725-.216479,1.29-.38c2.459257-1.061551,4.669762-2.624913,6.49-4.59.291835-.420376.533478-.873457.72-1.35.010828-1.386943-.998814-2.571249-2.37-2.78-1.278936-.148282-2.573166.084819-3.72.67-2.400924,1.314141-3.923785,3.804019-4,6.54l.01.75Z" transform="translate(-765.34-403.05)" fill="#fff"/><path d="M1140.05,2045.76c-.229964-3.455145-.273361-6.92018-.13-10.38q.54-9,5.9-13.7c3.426736-3.198885,8.178115-4.563326,12.78-3.67c2.389072.451468,4.663697,1.376279,6.69,2.72q10.23,7,9.45,22-.49,8-4.19,20.93-1.42,4.79-4.55,14.44t-4.55,14.45c-.32.93-.57,1.74-.78,2.44q-3.2,8.66-10,7.4-5.13-1.08-6.81-6.94-1.29-5.91-2.09-20-1.06-19.57-1.72-29.69Zm6.73-8.49l.63.12c.897575-.204753,1.667257-.778384,2.12-1.58.13218-.386791.242356-.780754.33-1.18c1-3.11,1.82-5,2.63-5.67.250082-.177939.514296-.335129.79-.47c1.49-1,2.3-1.79,2.43-2.51v-.61c0-.67-.69-1.16-1.94-1.47-1.49714-.05341-2.948088.523341-4,1.59-2.145839,2.606965-3.406643,5.82902-3.6,9.2l-.1,1.59c.018248.441997.297203.830963.71.99Z" transform="translate(-765.34-403.05)" fill="#fff"/><path d="M1070.22,2067.93c.851149.332709,1.673856.73403,2.46,1.2q5.88,3.32,15.19,13.06l5.5,5.58c.368754.275351.786007.47889,1.23.6.34,0,.57-.26.68-.74.048244-.411926.048244-.828074,0-1.24q-3.69-18.69-4-49.69.1-8,.14-8.61c.147638-4.731468,1.207009-9.389982,3.12-13.72.691476-1.314981,1.487363-2.57235,2.38-3.76q6.19-8.08,15.35-6.39c1.784467.331899,3.505543.942713,5.1,1.81q7.37,4,10.74,13.22c.07.17.15.35.22.53q2.25,6.71,1.93,20.46-.26,8.46-.53,13-1.21,19.88-5.47,33.76-3.3,10.61-9,15.09-8.1,6-22.16,3.53c-1.17-.21-2.38-.48-3.63-.8q-8.13-2-23.4-9.52c-4.14706-1.925486-8.045482-4.346469-11.61-7.21q-6.37-5.86-6.11-12.24c.19241-2.472492,1.23065-4.803236,2.94-6.6q4.73-4.68,13.12-3.12c1.998888.376813,3.948191.980728,5.81,1.8Zm30.39-41.09c1.27-.09,2.34-1.58,3.19-4.46.158928-.877756.379474-1.74323.66-2.59.491338-1.036234,1.19686-1.95648,2.07-2.7.237674-.190609.461566-.397793.67-.62c1.76-1.23,2.76-2.2,3-2.9.074166-1.122439-.660822-2.138822-1.75-2.42-.912095-.170656-1.854875-.044485-2.69.36-.14584.016978-.282462.080034-.39.18q-5.64,3.15-6.17,11.8l-.07,1.22c.009817.17295.040026.344136.09.51v.37c.055082.497284.366058.929616.82,1.14l.57.11Zm-43.85,52.71c.106427-.010121.213573-.010121.32,0c.449471-.047465.886574-.176224,1.29-.38.09,0,.22,0,.39-.17q4.21-2.55,4.85-4.65l.05-.85c-.19-.94-1.05-1.47-2.57-1.59-.517675-.007607-1.033519.063196-1.53.21-2.421303.745623-4.054117,3.007071-4,5.54v.73c.090506.545298.475449.995681,1,1.17.066832.002699.133771-.000648.2-.01Z" transform="translate(-765.34-403.05)" fill="#fff"/><path d="M969.65,2053c5.618903-4.762519,11.975287-8.579051,18.82-11.3c2.61-1.08,6.7-2.46,12.3-4.13q6.08-1.83,9.06-2.88c.823187-.186519,1.458582-.841525,1.62-1.67-.077676-.855586-.377584-1.676021-.87-2.38q-5.24-7.89-17.46-17.55-13.08-10.32-15.36-12.35-5.53-5-5.42-8.9c.061242-.914814.376379-1.794424.91-2.54q2.19-2.68,6.21-1.93l.5.09c2.820505.709069,5.462983,1.996256,7.76,3.78q17.4,12.12,25.44,26.07c0-2.64,0-4.64.11-6c.12685-3.871898.960558-7.687976,2.46-11.26.895684-1.835878,2.069518-3.522421,3.48-5c3.955407-4.420982,9.98682-6.366476,15.78-5.09c2.557197.508565,4.991903,1.506896,7.17,2.94c4.491384,2.816069,7.866634,7.103167,9.55,12.13c1.411188,4.224539,1.958701,8.689664,1.61,13.13-.1,1.7-.43,4.28-1,7.71q-2,12-9.48,35-3.43,10.57-5,15.84-1.9,6.42-3.82,8.66c-2.072116,2.34086-5.210545,3.438742-8.29,2.9q-7.51-1.53-9-14.26-.68-7.77-1.53-20.88l-.53.4c-.209277.136051-.392222.308832-.54.51q-8,6.78-17.71,13.85c-1.06.79-1.86,1.43-2.4,1.9q-9.81,7.07-17.92,6.91c-.58-.11-1.46-.23-2.64-.37-1.637416-.377981-3.220113-.962672-4.71-1.74-3.699945-1.970077-5.85917-5.965431-5.48-10.14q.46-5.95,6.38-11.45Zm52.31-40.72c1.28-.09,2.3-1.58,3.06-4.49.167198-.876889.391-1.742032.67-2.59.574699-1.006794,1.315082-1.909453,2.19-2.67.165657-.227909.349599-.441949.55-.64c1.77-1.23,2.75-2.2,3-2.9.069078-1.124206-.669202-2.139341-1.76-2.42-.912077-.171371-1.855081-.045169-2.69.36-.08,0-.21,0-.39.17q-5.64,3.15-6.17,11.81l-.07,1.22c.004541.173523.034873.345404.09.51v.36c.051204.498765.36342.932821.82,1.14l.7.14Zm-50,53.23c1-.14,2.22-1.07,3.6-2.79.299681-.474057.666876-.90189,1.09-1.27.537315-.596848,1.122605-1.148692,1.75-1.65c1.137636-.655882,2.04021-1.652911,2.58-2.85.203195-1.09258-.440338-2.165134-1.5-2.5q-2.51-.34-5.34,2.34-3.5,3.16-3.69,6.59v.73c.099435.548685.446225,1.020909.94,1.28l.57.12Zm8.57-70.18c1.475096-.147578,2.703177-1.196232,3.08-2.63.04907-1.236051-.792717-2.330375-2-2.6l-.38-.07c-.120602.048106-.250443.068607-.38.06-2.63.08-4,.93-4.22,2.54.253262,1.349333,1.28886,2.416432,2.63,2.71.413287.061138.834546.040754,1.24-.06l.03.05Z" transform="translate(-765.34-403.05)" fill="#fff"/><path d="M1101.88,1882.9c0,0-18.48,17.32-9.26,33.71c5.52,9.76,38.43,30.27,51,35.76c26.9,11.81,60.79,6.83,84.12-10.35c5.700456-4.161232,10.755003-9.141645,15-14.78c8.9-11.94,12.32-25.06,10.87-37.31-2.07-17-16.29-37.43-44.21-56.12-8.28-5.53-4.7,6-5.3,10.91-36.18,6.34-88.9,20.28-102.22,38.18Z" transform="translate(-765.34-403.05)" fill="#3395ff"/><path d="M1074.27,1879.27c0,0,12.86,26.28,26,37.53c7.86,6.69,18.51,11,31.08,11.78c27,1.67,54.73-13.38,69.44-35.63c3.620442-5.409502,6.423895-11.323035,8.32-17.55c3.9-13.15,2.7-25.58-2.44-35.71-7.19-14-26.13-40.22-26.13-40.22s-13.57,6.76-31,16.84c-29.24,16.95-69.42,43.29-75.27,62.96Z" transform="translate(-765.34-403.05)" fill="#fff"/><path d="M1074.27,1879.27c0,0,12.86,26.28,26,37.53c7.86,6.69,18.51,11,31.08,11.78c27,1.67,54.73-13.38,69.44-35.63l-51.27-76.64c-29.22,16.95-69.4,43.29-75.25,62.96Z" transform="translate(-765.34-403.05)" fill="#d3e5ed"/><path d="M1135.39,1934.55c-1.45,0-2.9,0-4.34-.13-13.47-.83-25.42-5.38-34.57-13.19-13.91-11.86-26.92-38.25-27.46-39.37-.650895-1.317225-.779499-2.831892-.36-4.24c9.77-32.91,99.16-78.32,109.32-83.38c2.56247-1.288871,5.681611-.526038,7.36,1.8.78,1.08,19.3,26.69,26.58,41c6.08,11.94,7,25.78,2.82,40-9.64,32.49-44.63,57.51-79.35,57.51Zm-54.74-55.67c3.3,6.35,13.48,24.94,23.43,33.44c7.2,6.14,16.77,9.74,27.68,10.4c31,1.92,63.17-20.09,71.75-49c3.36-11.31,2.66-22.16-2-31.37-5.22-10.25-17.19-27.54-22.73-35.37-28.16,14.49-88.43,49.27-98.13,71.9Z" transform="translate(-765.34-403.05)" fill="#000072"/><ellipse rx="66.63" ry="52.88" transform="matrix(.850536-.525917 0.525917 0.850536 361.877969 1436.017016)" fill="#fff"/><path d="M1141.68,1890.76c33-16.88,62.65-69.21,24.85-95.65-22.46-14-53.73-5.92-73.15,10.63-20.12,16-30.83,45.9-16.53,68.73c6.81,10.84,19.29,18.28,33.45,21.52-7.427849.770309-14.934378-.082706-22-2.5-23.55-7.41-36.37-35.54-28-58.56c9.22-30.16,36.31-52.18,66.93-57.53c31.4-6.74,69.29,12.85,69.48,48.22.17,31.87-25.85,58.17-55,65.14h-.03Z" transform="translate(-765.34-403.05)" fill="#000072"/><path d="M1047.18,2098.77c2.2,18.78-8.87,43.23-28.67,61.24c17.87,12.83,32.48,37.64,29.36,64.85-6.85,59.23-108.68,101.48-157.53,95-26-4-47.87-18.24-65.05-37.77c69.9,34.89,169.86-4.72,176.69-64c3.17-27.2-11.45-52-29.34-64.81c19.79-18.05,30.9-42.49,28.66-61.28-5.68-47.68-53.87-83.54-104.11-97.85c62.35.05,142.57,42.24,149.99,104.62Z" transform="translate(-765.34-403.05)" fill="#000072"/><path d="M890.35,2319.88c48.83,6.47,150.66-35.78,157.51-95c3.14-27.22-11.48-52-29.34-64.84c19.77-18,30.88-42.48,28.65-61.26-7.69-64.63-93.56-107.62-156.71-104.49-76.17,4.46-119.42,105.86-107.56,192.61c7.83,57.35,46.42,123.65,107.45,132.98Z" transform="translate(-765.34-403.05)" fill="#5f5f82"/><polygon points="115.94,1754.2 253.12,1741.36 253.23,1772.6 115.94,1754.2 115.94,1754.2" fill="#000072"/><path d="M1011.44,2037c-30.15-19.32-68-29.79-100-28.22-74.4,4.34-116.64,103.36-105.08,188.12c6.52,47.57,34.67,101.48,79.56,122.2-58.47-11.75-95.41-76.22-103.05-132.2-11.83-86.76,31.4-188.15,107.58-192.59c39.74-1.99,88.42,14.28,120.99,42.69Z" transform="translate(-765.34-403.05)" fill="#fff"/><path d="M900.81,2336.14c-4.182685.017761-8.361916-.242815-12.51-.78h-.31C820.55,2325,776.29,2253.91,767.42,2189c-8.23-60.23,8.33-125.74,42.2-166.91c21.88-26.61,49.52-41.62,79.93-43.4c74.81-3.69,164.55,46.08,173.13,118.23c2.34,19.68-6,42.84-21.88,62.24c14.24,15.65,25.83,39.32,22.57,67.5-2.71,23.48-17.32,46.16-42.25,65.58-33.37,26.01-83.52,43.9-120.31,43.9Zm-8.26-31.73c25.78,3.33,75.77-10.63,109.36-36.81c12.68-9.87,28.24-25.61,30.43-44.53c2.5-21.65-9.71-40.88-22.92-50.34l-15.69-11.23l14.26-13c15.59-14.22,25.32-33.91,23.66-47.88-6.39-53.8-82-93.66-140.42-90.72-27,1.58-46.18,18.29-57.49,32-28.15,34.23-42.36,91.63-35.37,142.85c7.29,53.39,41.98,111.58,94.18,119.66Z" transform="translate(-765.34-403.05)" fill="#000072"/></g></g></g><path d="M1924.61,1916.81c23.78-.7,379.9,31.7,379.9,31.7c144.52,23.13,473.37,315.1,761.65,270.18c117.42,279.81,125.87,282.57,112.19,290.53-389.49,217-685.75-53.06-767.1-90.67" transform="translate(-765.34-403.05)" fill="#fff"/><path d="M3178.34,2509.23c-389.49,217-685.73-53.07-767.11-90.67l-486.6-501.76c23.74-.7,379.88,31.71,379.88,31.71c20.66,3.32,45.06,12.14,72.63,24.64c60.33,27.45,135.58,72.79,218.88,117.38c144.6,77.4,313.38,152.57,470.13,128.17c117.42,279.79,125.9,282.57,112.19,290.53Z" transform="translate(-765.34-403.05)" fill="#fff"/><path d="M2404.13,1986.07c-113,61.86-233.06,78.42-343,71.5l-136.5-140.77c23.74-.7,379.88,31.71,379.88,31.71c20.66,3.32,45.06,12.14,72.63,24.64c8.67,3.94,17.69,8.28,26.99,12.92Z" transform="translate(-765.34-403.05)" fill="#eaeaea"/><path d="M2404.13,1986.07c-35.207918,19.264994-72.324317,34.81534-110.75,46.4c0-.43,0-.86.08-1.29c3.12-42.1,52.91-54.44,83.68-58c2.19,1,4.38,2,6.56,3c6.64,3.1,13.44,6.42,20.43,9.89Z" transform="translate(-765.34-403.05)" fill="#595959"/><path d="M2596,2090.53c-6.29,21.44-22.88,43.82-61.58,56.67-43.62,14.44-62.44,68.06-118.33,47.32-45.53-16.9-35.45-52.95-48.46-88.83s-78.76-13.36-74.19-74.51c3.12-42.1,52.91-54.44,83.68-58c60.35,27.42,135.6,72.76,218.88,117.35Z" transform="translate(-765.34-403.05)" fill="#5f5f82"/><g opacity="0.2"><path d="M2404.13,1986.07c-35.207918,19.264994-72.324317,34.81534-110.75,46.4c0-.43,0-.86.08-1.29c3.12-42.1,52.91-54.44,83.68-58c2.19,1,4.38,2,6.56,3c6.64,3.1,13.44,6.42,20.43,9.89Z" transform="translate(-765.34-403.05)" fill="#000072"/></g><path d="M1924.14,1901.2c11,.21,28,1.39,39.11,2.23c99.26,7.52,237.7,20.21,337.16,29c26.55,2.58,52.21,13.11,76.36,23.43c136.23,63.94,261.29,150.14,401.32,203.2c92.06,35.6,192.43,59.76,290.62,43.43c2.962529-.450968,5.974575.410618,8.250484,2.360026s3.590003,4.793332,3.599516,7.789974L3136,2343.41l28.07,65.27c9.33,21.87,18.83,43.33,27.72,66.17c3.02464,7.261863,5.28353,14.819425,6.74,22.55.81,5.56.12,11.83-3,16.8-2.35,4-7,7.42-10.82,9.35l-2,1.09-16,8.71c-186.31,99.18-389.61,102.41-577.91,6.43-43.182714-21.117704-84.032627-46.704202-121.88-76.34-18.93-14.67-36.57-30.33-55.62-44.89c5.868724,1.493477,11.626048,3.394764,17.23,5.69c30.84,12,81.46,40,111.57,55.24c199.77,109.32,405.62,134.09,612.1,26l15.25-8.12l1.91-1c.57-.31,1.48-.78,1.53-.84.34-.19.18-.15-.07.09-1.77,1-3.57,5.93-3.15,6.3-7.43-26.88-21.38-54.08-32.25-80.87-17.83-41-65.55-153.63-83.62-196.3l16.81,9.39c-51.64,8-104.12,5.53-154.69-3.41-150.53-27.56-286.54-104.53-417.8-177.39-43.75-24.2-87.27-49-131.89-68.84-21.68-9.17-43.21-18.41-66.59-20.92-83.49-7.54-215.72-19.22-299.28-26.07-12.68-.88-51.46-4.13-65.13-4.76l-8.11-.3-.93-31.23-.05-.01Z" transform="translate(-765.34-403.05)" fill="#000072"/><g id="eWbiBafPdD3104_to" transform="translate(1386.102966,792.235688)"><g transform="translate(-1386.102966,-792.235687)"><g id="eWbiBafPdD3105_tr" transform="translate(995.887527,446.28) rotate(4.102398)"><g transform="translate(-995.887522,-446.28)"><path d="M1831.53,708.39c-51.16-57.29-166.42-50.74-222.86-44.83-152.07,15.92-166.14-12.74-207,4.66-35.93,15.32-31,131.24,35.16,204.73c66.41,73.79,179.47,97.38,315.36,25.48" transform="translate(-765.34-403.05)" fill="#5f5f82"/><path d="M1594.89,956.8c-66.27,0-125.05-24.8-169.16-73.81-52-57.72-68.76-139.65-58.2-187.44c5.85-26.51,18.62-37,28.3-41.13c22-9.37,37.61-7.58,61.29-4.89c27,3.07,67.82,7.71,150-.89c116-12.14,195.27,4.59,235.61,49.76l-22.38,20c-33.07-37-105.72-50.83-210.1-39.9-85.44,8.94-128.21,4.08-156.52.86-21.58-2.45-31.44-3.58-46.12,2.68-3.4,1.45-8,7.46-10.78,20-9.07,41.05,7.61,112.46,51.21,160.9c68.53,76.14,179.63,84.46,297.2,22.25l14,26.51c-57,30.16-112.93,45.1-164.35,45.1Z" transform="translate(-765.34-403.05)" fill="#000072"/><g opacity="0.2"><path d="M1444.19,753.63c30.94,52.06,135.29,24.91,186.18,17.16c74.66-11.36,120.22,34.6,74.94,108.23c0,0-73.12,51.46-171,1.78-92.31-46.8-90.12-127.17-90.12-127.17Z" transform="translate(-765.34-403.05)" fill="#000072"/></g><path d="M1444.19,753.63c20.59,24.56,54.94,24.12,84.34,21.4c30.42-3,60.42-10.2,91.77-16.13c16.31-3.23,34.38-4.81,51.35-1.92c39.5,5.51,69.8,38.59,58.56,79.44-4.51,16.91-13.77,31-24.9,42.6c5.06-15.29,9.54-30.37,9.62-44.82c1.9-49.73-52-56.35-90.2-49-50.94,7.43-153.13,27.3-180.54-31.59v.02Z" transform="translate(-765.34-403.05)" fill="#000072"/></g></g><path d="M2417.31,805.32l153.74,34.54l50.71,9.47c75.76-52.94,95.79-193.67,78.37-279.24-7.63-37.8-22.55-64.8-43.19-68.79-34.17-6.62-58,83.43-135.23,133.89-43.1,28.18-102.79,44.09-190.21,24-189.5-43.44,85.81,146.13,85.81,146.13Z" transform="translate(-765.34-403.05)" fill="#f9e3d2"/><g opacity="0.5"><path d="M2386.15,667.5c62.83,10.48,111.47-.35,150.27-20.25c74.64-38.25,112.8-110,144.4-128.21-6.77-9.7-14.76-16-23.88-17.74-34.17-6.62-58,83.43-135.23,133.89-33.43,21.86-76.87,36.34-135.56,32.31Z" transform="translate(-765.34-403.05)" fill="#fff"/></g><path d="M2417.31,805.32l153.74,34.54l50.71,9.47c75.76-52.94,95.79-193.67,78.37-279.24c0,0-11.6,170.29-91.12,126.76-39.6-21.65-60.85-42.75-87.3-61.66-43.1,28.18-102.79,44.09-190.21,24-189.5-43.44,85.81,146.13,85.81,146.13Z" transform="translate(-765.34-403.05)" fill="#e2c3af"/><path d="M2621.77,865c-6.833503.027191-12.89138-4.390771-14.953784-10.905677s.349513-13.614125,5.953784-17.524323c71.76-50.14,87.91-188.71,71.63-265.33-6.55-30.83-18.5-52.24-30.46-54.56-7-1.34-22.39,20.44-34.81,37.93-35.78,50.39-91.82,129.28-213.66,129.29-23.32,0-49-2.89-77.49-9.42-27.22-6.24-40.26-6.46-46.08-5.86C2292,689,2353.24,742,2423.66,790.76l150.82,33.85c5.499007,1.169713,9.945182,5.204341,11.641844,10.564252s.382029,11.218104-3.442232,15.339067-9.568087,5.868859-15.039612,4.576681l-156.73-35.17-2.49-1.72c-1.7-1.17-42.28-29.18-81.92-61.54-77.68-63.43-82-86.73-75.07-102.46c10.35-23.52,48.05-18.36,83.58-10.21c156.81,36,218.12-50.37,258.69-107.51c22.09-31.1,39.53-55.67,66.22-50.51c25.79,5,45.36,33,55.08,78.74c18.5,87.08-.51,238.89-84.3,297.43-2.611768,1.848894-5.730064,2.847587-8.93,2.86Z" transform="translate(-765.34-403.05)" fill="#000072"/><path d="M1938.18,790.66l-155.53-25.33-50.58-10.14c-50.53-77.39-16.59-215.43,31.5-288.32c21.19-32.21,45.11-51.69,65.75-47.7c34.17,6.62,22.69,99.06,75.49,174.69c29.47,42.23,78.91,79.27,167.5,93.26c192.08,30.42-134.13,103.54-134.13,103.54Z" transform="translate(-765.34-403.05)" fill="#f9e3d2"/><g opacity="0.5"><path d="M2018.52,674.42c-62.2-13.72-103.28-41.92-131.85-74.86-55-63.34-63.6-144.16-86.13-172.83c9.9-6.48,19.66-9.32,28.78-7.56c34.17,6.62,22.69,99.06,75.49,174.69c22.86,32.76,57.76,62.4,113.71,80.56Z" transform="translate(-765.34-403.05)" fill="#fff"/></g><path d="M1938.18,790.66l-155.53-25.33-50.58-10.14c-50.53-77.39-16.59-215.43,31.5-288.32c0,0-52.78,162.32,37.23,151.62c44.83-5.31,72.41-17,104-24.63c29.47,42.23,78.91,79.27,167.5,93.26c192.09,30.42-134.12,103.54-134.12,103.54Z" transform="translate(-765.34-403.05)" fill="#e2c3af"/><path d="M1938.66,806.59l-158.53-25.86c-5.605485-.786141-10.347054-4.543307-12.393746-9.820667s-1.078209-11.249028,2.531469-15.609039s9.295651-6.426043,14.862277-5.400294l152.56,24.88c83.52-18.95,160.12-45.3,177.07-60.47-5.15-2.72-17.35-7.39-44.93-11.76-179.54-28.4-208.24-148.26-225.39-219.86-5-20.87-11.21-46.84-18.14-48.18-12-2.31-31,13.09-48.61,39.25-43.7,65-80.43,199.6-32.56,272.9c4.319782,7.19678,2.179536,16.520876-4.84635,21.11338s-16.425176,2.811282-21.28365-4.03338c-55.89-85.59-16.87-233.52,32.79-307.4c26.1-38.85,54.71-57.5,80.48-52.5c26.69,5.17,33.7,34.47,42.59,71.57c16.31,68.15,41,171.15,199.88,196.29c36,5.7,72.91,15,73.73,40.66.55,17.18-12.14,37.19-107.89,67-48.84,15.24-96.94,26.07-99,26.53l-2.92.7Z" transform="translate(-765.34-403.05)" fill="#000072"/><path d="M1885.1,1611.17c0,0-475.86-291.21-475.68-299c3.2-140.19,59.11-474,290.44-642.73c117.06-85.37,292.83-127.59,481.58-102.32c322.45,43.17,479.29,208.73,542,351.89c134.19,306.12,62.44,769.38-113.32,918-6,5.06-698.45-220.9-698.45-220.9" transform="translate(-765.34-403.05)" fill="#fff"/><path d="M1409.43,1312.13c-.17,7.81,475.67,299,475.67,299l26.59,4.87c0,0,692.51,226,698.49,221c175.74-148.6,247.5-611.84,113.31-918-62.76-143.18-219.61-308.72-542-351.89-49.610796-6.694232-99.736978-8.756459-149.73-6.16-130,6.95-246.51,46.26-331.84,108.47C1636.08,715.92,1585.67,775,1546,839v0c-104.29,168.46-134.27,371.59-136.57,473.13Z" transform="translate(-765.34-403.05)" fill="#fff"/><path d="M1411.1,1277.43c-.89,12.57-1.43,24.16-1.65,34.7-.17,7.8,475.66,299,475.66,299l26.6,4.88c0,0,692.5,226,698.48,220.91c175.75-148.6,247.51-611.84,113.32-918-17.73172-40.114883-40.588847-77.761915-68-112c8.239939,14.491115,15.720057,29.401284,22.41,44.67c27.36,62.44-75.09,69.8-78.7,157c47.73,135.8,148.17,153,148.31,207c.59,231.16-69.52,458.06-182.92,553.95-6,5-698.49-220.92-698.49-220.92l-26.6-4.87c0,0-308.24-188.61-428.42-266.32Z" transform="translate(-765.34-403.05)" fill="#eaeaea"/><path d="M1546,839.08c52.19,30.45,127.3,52.95,210.58,46C1942,869.6,2030,699.64,2031.72,560.94c-130,6.95-246.51,46.26-331.84,108.47C1636.08,715.92,1585.67,775,1546,839v.08Z" transform="translate(-765.34-403.05)" fill="#5f5f82"/><path d="M2611.12,1852.62c-10.57,0-35.74-7.75-117.26-33.13-58.23-18.12-139-43.77-240-76.21-171.91-55.23-345.32-111.8-347-112.37-4.602779-1.498546-8.249143-5.048856-9.87-9.61-4.974245,5.838445-13.45631,7.191334-20,3.19-1.19-.72-120.37-73.67-238-146.63-69.11-42.87-124.19-77.36-163.68-102.53-81.74-52.06-81.73-52.71-81.48-63.55c3.78-165.62,70.56-489.94,296.86-655c126-91.9,305.66-130.25,492.85-105.18c149.6,20,276,67.59,375.63,141.38c100.74,74.59,152.75,160.65,178.64,219.72c63.9,145.76,86,337.63,60.75,526.4-24.51,182.92-91.16,336.11-178.29,409.78-2.63,2.2-4.44,3.74-9.15,3.74Zm-699.41-252.19c1.644564.000748,3.278462.264062,4.84.78c253.84,82.83,634.3,205.44,688.94,219.1c158.36-142.29,238.81-586.79,103.68-895.06-47.26-107.82-178.93-295.7-529.8-342.67-176.67-23.65-352.49,13.52-470.31,99.42-213.2,155.5-278.42,461.23-283.82,623.16c39.16,28.53,296.19,187.51,468,292.66c3.050933,1.858637,5.367777,4.712311,6.56,8.08c2.981072-3.474615,7.33182-5.472817,11.91-5.47Z" transform="translate(-765.34-403.05)" fill="#000072"/><path d="" transform="translate(-765.34-403.05)" fill="none" stroke="#6b184e" stroke-width="31.2403" stroke-linecap="round" stroke-miterlimit="10"/><path d="M1533.54,1182.87c-64,2.05-178.11,34-222.88,149.07-113.19,291,220.17,584.05,677.44,631.31c400.91,41.43,633.53-76.49,684.78-216.57c40.31-110.17,1.86-238.28-127.3-334.81c0,0-76.48-53.18-225.46-93.57-106.22-28.79-295.62-51.67-421.68-72.83-102.72-17.24-195-48.07-261.89-56.93-34.159563-4.321558-68.582494-6.216307-103.01-5.67Z" transform="translate(-765.34-403.05)" fill="#fcdbdb"/><path d="M1332.54,1611.1c97.79,178.12,348.81,320.45,655.58,352.13c400.89,41.44,633.53-76.45,684.76-216.54c13.436529-36.509187,18.10203-75.665823,13.62-114.31-1.6,5.37-3.37,10.72-5.33,16-54.6,149.31-302.56,275-729.82,230.82-262.5-27.1-486.65-130.2-618.81-268.1Z" transform="translate(-765.34-403.05)" fill="#ffb6b8"/><path d="M1533.54,1182.87c-73.8,11.7-146.89,48.66-186.88,113.15-25.32,41.62-38.33,90.86-40.92,139.33C1299.19,1618.2,1453,1758,1603.94,1836c219.68,113.79,506.3,145.7,748.58,100.32c170.89-34.78,357.32-131.93,315.29-335.61-5.535776-24.382332-14.222096-47.940279-25.84-70.08-23.31-44.8-57.37-84.4-96.39-118.8c116.39,70.83,192.36,209,141,344.72-52,128.55-201.32,186.43-327.65,211.65-250.62,44.48-542,13.22-769.41-104.49-139.2-73.07-274.49-188.5-310.74-348.24-16.71-79.91-4.65-168.86,42.37-236.69c47.43-66.67,132-101.89,212.41-96l-.02.09Z" transform="translate(-765.34-403.05)" fill="#000072"/><path d="M1647.47,1227.89c-8.19,5.35-13.28,23.46,2.16,35.46s47.53,11.14,47.53,11.14.72-17-11-34.39c-9.43-13.88-28.54-18.85-38.69-12.21Z" transform="translate(-765.34-403.05)" fill="#f48990"/><path d="M2163.17,1325.06c4.49,8.69,0,27-19.35,29.8s-46.85-13.73-46.85-13.73s7.78-15.19,26.54-24.49c15.02-7.44,34.1-2.36,39.66,8.42Z" transform="translate(-765.34-403.05)" fill="#f48990"/><path d="M2080.83,1238c103.06-137.93,313.13-207,334,10.07" transform="translate(-765.34-403.05)" fill="#fff"/><path d="M2080.83,1238c31-74.79,102.5-137.39,182.9-153.25c45.42-9.36,98.08,3,127.49,41.6c27.55,35.43,32.47,80.27,23.64,121.72-15.35-33.06-29.83-68.49-56.88-90.61-78.52-62.63-210.91,29.17-277.15,80.54Z" transform="translate(-765.34-403.05)" fill="#000072"/><path d="M1774.14,1186.5c-34.52-178.15-149.58-203.53-217.88-80.27" transform="translate(-765.34-403.05)" fill="#fff"/><path d="M1774.14,1186.5c-27.32-46.29-61.19-129-120.28-131.49-37.58.41-67.41,29.07-97.6,51.22c3.207671-32.298641,19.461591-61.888,45-81.92c40.85-32.16,96.67-22.41,130.52,15.34c35.49,39.73,48.16,95.12,42.32,146.85h.04Z" transform="translate(-765.34-403.05)" fill="#000072"/><path d="M1992.93,1605.28c32.3,47.87,103.39,63.39,151.6,32.47c15.25-9.9,27.08-24.41,34.88-41.38c1.740469-3.787086,6.145256-5.543614,10.014118-3.993401s5.842012,5.862314,4.485882,9.803401c-30.69,90.16-166.83,88.89-201,3.1h.02Z" transform="translate(-765.34-403.05)" fill="#000072"/><path d="M2152.6,1586.53c19.49-9.79,45.6,4.19,49.82,25.25c1.624707,6.725034,1.128689,13.788054-1.42,20.22-2.22-2.87-3.5-5.67-5.17-8.25-9.92-18-24.86-28.08-43.25-37.24l.02.02Z" transform="translate(-765.34-403.05)" fill="#000072"/></g></g><g id="eWbiBafPdD3138_to" transform="translate(2084.205933,1882.42334)"><g id="eWbiBafPdD3138_tr" transform="rotate(0)"><g transform="translate(-2084.205932,-1882.423339)"><path d="M2968.5,2036.58c0,0-12.86,26.27-26,37.48-7.89,6.73-18.53,11-31.13,11.8-33.59,2-68.39-21.76-77.72-53.18-3.91-13.16-2.73-25.57,2.43-35.7c7.16-14,26.1-40.21,26.1-40.21s96.99,48.38,106.32,79.81Z" transform="translate(-765.34-403.05)" fill="#fff"/><path d="M2990.34,1899.52c-1.63-14.14-4.85-26.06-10.85-27.18-27.3-5.21-367.83,26.42-380.52,37.29-1.93,1.63-2.81,6.65-2.92,13.34-2-18.58-2.81-37,1.34-40.51c12.69-10.87,353.23-42.44,380.53-37.29c9.83,1.83,12.08,32.49,12.42,54.35Z" transform="translate(-765.34-403.05)" fill="#fff"/><path d="M2602.22,1965.54c0,0-13.68-75.48-4.82-83.08c12.67-10.86,353.21-42.46,380.54-37.29c15.37,2.91,12.22,76.31,12.22,76.31l-116.28,72.85-271.66-28.79Z" transform="translate(-765.34-403.05)" fill="#33c1ff"/><path d="M2873.88,2006.05c-.414357.001318-.828424-.022056-1.24-.07L2601,1977.19c-5.174951-.546663-9.369742-4.44008-10.3-9.56-14.87-82.09-5.1-90.48-.92-94.06c3.29-2.82,12-10.3,191.29-27.43c65.41-6.25,181-15.9,199.06-12.48c6.26,1.19,25.33,4.79,21.75,88.32-.163492,3.850972-2.213189,7.374356-5.48,9.42l-116.29,72.86c-1.867532,1.169503-4.0265,1.789816-6.23,1.79Zm-261.62-51.23l258.83,27.43l107.58-67.39c.63-25.8-1.61-51.11-5.2-58.47-37.71-3.25-328.94,24.67-367.12,35.08-1.26,9.96,1.65,37.86,5.91,63.35Zm-5.38-65.86" transform="translate(-765.34-403.05)" fill="#000072"/><polygon points="2288.16,1692.6 1683.69,1702.42 1836.88,1562.49 2141.83,1561.07 2288.16,1692.6" fill="#3395ff"/><path d="M2449,2117.18c-4.829837-.007777-9.160299-2.97764-10.907442-7.480403s-.553131-9.616209,3.007442-12.879597l153.2-139.93c2.14484-1.961106,4.943762-3.052151,7.85-3.06l304.94-1.43v0c2.894801-.006097,5.688728,1.063007,7.84,3l146.33,131.54c3.58335,3.218815,4.830143,8.303537,3.142256,12.814879s-5.9661,7.528923-10.782256,7.605121l-604.47,9.82h-.15Zm157.77-139.95l-127,116l543.71-8.83-120.78-108.55-295.93,1.38Z" transform="translate(-765.34-403.05)" fill="#000072"/><path d="M3112.61,2636.89c-189.75,70.18-367.94,89.35-367.94,89.35L2449,2105.47l391.61-77.2L3104,2092.72c0,0,17.34,298.86,8.61,544.17Z" transform="translate(-765.34-403.05)" fill="#33c1ff"/><path d="M3104,2092.73c0,0,10.54,181.56,11,377.79.13,55.57-.53,112.24-2.45,166.36-189.75,70.19-367.93,89.35-367.93,89.35l-72-151.2L2449,2105.47l391.58-77.19L3104,2092.73Z" transform="translate(-765.34-403.05)" fill="#33c1ff"/><path d="M3104,2092.73c0,0,10.54,181.56,11,377.79.13,55.57-.53,112.24-2.45,166.36-189.75,70.19-367.93,89.35-367.93,89.35l-72-151.2L2449,2105.47l391.58-77.19L3104,2092.73Z" transform="translate(-765.34-403.05)" fill="#33c1ff"/><path d="M3104,2092.73c0,0,10.54,181.56,11,377.79.13,55.57-.53,112.24-2.45,166.36-189.75,70.19-367.93,89.35-367.93,89.35l-72-151.2L2449,2105.47l391.58-77.19l55.5,13.6L3104,2092.73Z" transform="translate(-765.34-403.05)" fill="#33c1ff"/><polygon points="2130.78,1638.83 1947.03,1766.88 1683.7,1702.43 2075.28,1625.23 2130.78,1638.83" fill="#3395ff"/><path d="M3115,2470.32v.2c.13,55.57-.53,112.24-2.45,166.36-189.75,70.19-367.93,89.35-367.93,89.35l-72-151.2c78-32.21,111.36-113.25,162.23-129.72c66.15-21.41,83.93,47.7,130.53,45c52.17-3,94.77-64.45,68.3-103.44-19.85-29.25-101.67-9.48-104-41.86-3.21-44.8,71.46-59.57,115.65-26.37c54.34,40.79,61.95,93.21,69.67,151.68Z" transform="translate(-765.34-403.05)" fill="#fff"/><path d="M2973.39,2385.71c-16.49,7.45-24.87,27.68-9.67,35.3c13.37,6.7,18.36-9.58,29.82-17.26c21-14.1,34.32-8,34.7-9.41c1.22-4.5-28.32-20.62-54.85-8.63Z" transform="translate(-765.34-403.05)" fill="#fff"/><path d="M3066.39,2295.33c3.16-21.22-11.31-26.8-18.35-15.19-5.37,8.88-1.75,21.48,4.82,31c4.33,6.26,15.35,15.52,15.35,15.52-2.779734-10.202981-3.399614-20.873779-1.82-31.33Z" transform="translate(-765.34-403.05)" fill="#fff"/><path d="M2744.67,2738c-4.51748.000645-8.631731-2.599468-10.57-6.68L2438.45,2110.5c-1.552934-3.265945-1.511185-7.065901.11313-10.296938s4.649266-5.531271,8.19687-6.233062l391.61-77.19c1.671035-.334074,3.395097-.296521,5.05.11l263.35,64.45c4.99825,1.22177,8.613361,5.56315,8.91,10.7.18,3,17.29,302.22,8.64,545.26-.166283,4.750138-3.189724,8.927624-7.65,10.57-188.93,69.88-369,89.82-370.75,90-.413726.06804-.831127.11145-1.25.13Zm-278.58-624l285.54,599.55c36.45-4.66,188.88-26.6,349.54-85c7.2-217.26-5.71-476.35-8.4-526.57l-252.4-61.76L2466.09,2114Zm646.52,522.85v0Z" transform="translate(-765.34-403.05)" fill="#000072"/><path d="M2744.67,2726.24c0,0-227.55-37.83-249.54-71.17-38-269.67-46.1-549.6-46.1-549.6s199.49,53.93,263.34,64.44c21.43,182.09,32.3,556.33,32.3,556.33Z" transform="translate(-765.34-403.05)" fill="#33c1ff"/><path d="M2744.66,2726.23c0,0-227.53-37.81-249.53-71.18-22.83-162-34.88-327.63-40.86-434.12-4-70.8-5.23-115.46-5.23-115.46s199.49,53.93,263.32,64.45c3.42,29.24,6.57,63.41,9.47,100.22c15.17,192.39,22.83,456.09,22.83,456.09Z" transform="translate(-765.34-403.05)" fill="#3395ff"/><path d="M2692,2665.15c-62.37-12.44-123.09-27.66-149.84-39-20.09-148.89-31.18-299.73-36.94-400.71c56.58,3.35,104.87,2.57,164,22.59c11.78,136.09,19.38,321.57,22.78,417.12Z" transform="translate(-765.34-403.05)" fill="#b6cedd"/><path d="M2692,2665.16c-62.36-12.47-123.09-27.65-149.83-39-24-178.23-35.19-359.2-39.8-454.21c49.41,12.9,116.07,29.87,163.65,40.3c13.5,137.41,22.26,348.67,25.98,452.91Z" transform="translate(-765.34-403.05)" fill="#d2efff"/><path d="M2744.67,2738c-.643386.001375-1.285716-.052153-1.92-.16-54.56-9.07-234.38-41.38-257.4-76.27-.950499-1.454925-1.571649-3.099949-1.82-4.82-37.68-267.22-46.13-548.09-46.22-550.9-.102743-3.70323,1.551459-7.237005,4.461144-9.530082s6.732232-3.075438,10.308856-2.109918c2,.54,199.66,53.89,262.2,64.19c5.154104.851546,9.122359,5.011485,9.73,10.2c21.24,180.53,32.26,553.6,32.37,557.35.075393,3.154829-1.124648,6.206756-3.328628,8.465318s-5.225643,3.53289-8.381372,3.534682v.05Zm-238.38-87.65c17.09,17.49,124.17,44.25,226.23,62-2.21-69-12.65-370.58-30.79-532.36-59.69-11.16-194.61-46.79-240.45-59c2.35,62.41,12.96,300.5,45.01,529.31v.05Z" transform="translate(-765.34-403.05)" fill="#000072"/><polygon points="2338.65,1689.67 1947.04,1766.87 1836.88,1562.49 2224.83,1518.43 2338.65,1689.67" fill="#33c1ff"/><polygon points="2338.66,1689.68 2241.94,1708.72 2105.85,1735.57 1947.03,1766.88 1836.88,1562.47 2224.81,1518.42 2338.66,1689.68" fill="#33c1ff"/><polygon points="2338.66,1689.68 2321.48,1693.06 2249.15,1707.29 2241.94,1708.72 2105.85,1735.57 2075.05,1741.66 1966.01,1763.14 1947.03,1766.88 1836.88,1562.47 1942.27,1550.53 2035.33,1539.96 2210.52,1520.06 2224.81,1518.42 2325.33,1669.58 2338.66,1689.68" fill="#33c1ff"/><path d="M2712.37,2181.63c-4.308156-.000455-8.268133-2.366455-10.31-6.16L2591.91,1971.1c-1.848749-3.424506-1.875411-7.543728-.071146-10.991879s5.20369-5.774653,9.071146-6.208121l387.94-44.07c4.366923-.482794,8.639212,1.506828,11.08,5.16l113.82,171.24c2.177432,3.257614,2.581242,7.388406,1.075907,11.006033s-4.720297,6.242608-8.565907,6.993967l-391.61,77.2c-.751655.140894-1.515295.20788-2.28.2Zm-91.62-206.4l97.84,181.52l365.94-72.14-100.16-150.69-363.62,41.31Z" transform="translate(-765.34-403.05)" fill="#000072"/><path d="M2827.76,2226c-.25-1.27-.71-1.88-1.38-1.84-.649031.254293-1.13639.804896-1.31,1.48-2.616751,5.564945-4.354088,11.502253-5.15,17.6-.68,5.55-2.67,8.93-6,10.11-.569344.188541-1.150635.338875-1.74.45q-5.28.87-9.46-5.39c-.47-.74-1.18-1.92-2.12-3.56s-1.65-2.69-2.11-3.43l-7.91-13.2c-.38-.83-.92-1.23-1.59-1.19-1.16.3-1.57,1.32-1.21,3.07q3.89,16,5.14,24.07l.74,6c.205338,3.721321-.165708,7.452024-1.1,11.06q-3.3,10.49-11.9,13.06c-.569825.186902-1.151009.337208-1.74.45-4.594107.936451-9.345102-.577811-12.55-4q-5.53-5.62-6.19-16.36c-.189386-5.051697-.029003-10.110445.48-15.14q.2-3,.48-8.84q1.23-21.69,4.12-32.46c.36-1.13.67-2.22.94-3.25q4.07-12.48,12.47-14.16q6.53-1.08,11.7,4.73q2.86,3.3,6.72,12.57l9.38,22.79c.84,1.33,1.76,1.94,2.77,1.83c1-.26,1.83-1.2,2.49-2.8l5.5-22.36q3-12,7.94-17.51c.312873-.288246.647166-.552338,1-.79c2.695469-2.746056,6.16828-4.599386,9.95-5.31q12-2.24,17.79,13c.29.6.53,1.18.73,1.71c5.010303,14.499455,8.224272,29.558431,9.57,44.84l.17,2.8c.406122,4.466748.122809,8.969387-.84,13.35q-2.7,9.89-10.09,13.59c-1.323113.580484-2.69517,1.042298-4.1,1.38q-9.28,1.73-14.22-6.48c-.38-.75-.77-1.54-1.16-2.38-1.093897-3.014161-1.91715-6.119764-2.46-9.28q-1.77-10-3.75-30.21Zm-39.84-23.18c-.070111-2.737788-1.594687-5.23047-4-6.54-1.146834-.585181-2.441064-.818282-3.72-.67-1.371186.208751-2.380828,1.393057-2.37,2.78.156764.489678.400679.947018.72,1.35c1.818279,1.967322,4.029289,3.53104,6.49,4.59.418724.162205.85021.289309,1.29.38l.75-.14c.456545-.130074.786249-.527307.83-1l.01-.75Zm58.88-5.76c-.059918-2.724657-1.559305-5.213487-3.94-6.54-1.146834-.585181-2.441064-.818282-3.72-.67-1.371186.208751-2.380828,1.393057-2.37,2.78.186197.474788.42431.927538.71,1.35c1.824317,1.964891,4.038026,3.52811,6.5,4.59.418275.163521.849874.290659,1.29.38l.75-.14c.454945-.132521.783549-.528429.83-1l-.05-.75Z" transform="translate(-765.34-403.05)" fill="#fff"/><path d="M2901,2232.72q-.79,14.1-2.09,20-1.66,5.87-6.8,6.94-6.78,1.26-10-7.4c-.21-.7-.47-1.51-.78-2.44q-1.44-4.92-4.55-14.45t-4.55-14.45q-3.7-12.87-4.19-20.92-.78-15,9.45-22c2.025413-1.345404,4.30039-2.270358,6.69-2.72c4.622904-.893726,9.393519.490571,12.82,3.72q5.36,4.68,5.9,13.7c.143361,3.45982.099964,6.924855-.13,10.38q-.7,10.08-1.77,29.64Zm-4.27-39.15l-.1-1.59c-.193357-3.37098-1.454161-6.593035-3.6-9.2-1.053295-1.064571-2.503288-1.640944-4-1.59-1.25.31-1.89.8-1.94,1.47v.61c.13.72.94,1.55,2.43,2.51.275704.134871.539918.292061.79.47.81.67,1.68,2.56,2.63,5.67.11.48.22.87.32,1.18.45876.800513,1.230822,1.373216,2.13,1.58l.63-.12c.401043-.168284.666858-.555279.68-.99h.03Z" transform="translate(-765.34-403.05)" fill="#fff"/><path d="M2978.41,2223.39q8.4-1.56,13.13,3.12c1.70935,1.796764,2.74759,4.127508,2.94,6.6q.26,6.38-6.11,12.24c-3.564518,2.863531-7.46294,5.284514-11.61,7.21q-15.28,7.53-23.4,9.52c-1.25.32-2.46.59-3.63.8q-14.05,2.49-22.16-3.53-5.73-4.48-9-15.09-4.27-13.87-5.47-33.76-.27-4.52-.53-13-.33-13.76,1.93-20.46l.22-.54q3.38-9.26,10.74-13.21c1.594457-.867287,3.315533-1.478101,5.1-1.81q9.15-1.71,15.35,6.39c.890281,1.185766,1.686061,2.439621,2.38,3.75c1.908179,4.334674,2.964058,8.996159,3.11,13.73q0,.61.15,8.61-.29,31-4,49.69c-.064893.409976-.081673.82613-.05,1.24.11.48.34.72.68.74.443993-.12111.861246-.324649,1.23-.6l5.5-5.58q9.3-9.75,15.19-13.06c.785108-.467889,1.607976-.869288,2.46-1.2c1.874337-.822845,3.8373-1.426834,5.85-1.8ZM2942.79,2184c.458935-.201012.775465-.631951.83-1.13v-.37c.051321-.165974.084843-.336935.1-.51l-.07-1.22q-.52-8.66-6.17-11.8c-.110205-.101911-.250637-.165105-.4-.18-.831377-.405074-1.771197-.531319-2.68-.36-1.088447.284112-1.825069,1.296967-1.76,2.42.21.7,1.2,1.67,3,2.9.205994.22465.430079.432013.67.62.873358.740897,1.576097,1.661963,2.06,2.7.289851.844745.513854,1.710667.67,2.59.85,2.88,1.92,4.37,3.19,4.46l.56-.12Zm43.54,52.84c.505147-.186773.866447-.636476.94-1.17v-.73c.054117-2.532929-1.578697-4.794377-4-5.54-.499754-.147504-1.018999-.21831-1.54-.21-1.51.12-2.37.65-2.57,1.59l.06.85c.42,1.4,2,3,4.85,4.65.17.13.3.19.38.17.409136.198209.848522.326645,1.3.38.103087-.010097.206913-.010097.31,0c.088946.016916.179532.023626.27.02v-.01Z" transform="translate(-765.34-403.05)" fill="#fff"/><path d="M3079.53,2221.63c.37917,4.174569-1.780055,8.169923-5.48,10.14-1.49127.774205-3.073564,1.358746-4.71,1.74-1.18.14-2.06.26-2.64.37q-8.11.15-17.93-6.91c-.53-.47-1.33-1.11-2.39-1.9q-9.69-7.07-17.72-13.85c-.14621-.19905-.325475-.371551-.53-.51l-.53-.4q-.85,13.11-1.53,20.88-1.52,12.73-9,14.25c-3.080927.544847-6.223744-.54946-8.3-2.89q-1.9-2.24-3.81-8.66-1.59-5.26-5-15.84-7.48-23-9.48-35c-.55-3.43-.87-6-1-7.71-.355038-4.440472.19263-8.90686,1.61-13.13c1.67636-5.02771,5.048983-9.315961,9.54-12.13c2.179446-1.437452,4.618296-2.43609,7.18-2.94c5.79318-1.276476,11.824593.669018,15.78,5.09c1.410482,1.477579,2.584316,3.164122,3.48,5c1.500341,3.571307,2.330831,7.388172,2.45,11.26.09,1.39.12,3.39.12,6q8-14,25.44-26.07c2.295151-1.78674,4.938286-3.074247,7.76-3.78l.5-.09q4-.75,6.2,1.93c.533916.746214.852201,1.624957.92,2.54q.12,3.93-5.42,8.9-2.3,2-15.36,12.35-12.24,9.68-17.46,17.55c-.492416.703979-.792324,1.524414-.87,2.38.159012.829729.795486,1.485847,1.62,1.67q3,1.05,9.06,2.88q8.38,2.51,12.3,4.13c6.844713,2.720949,13.201097,6.537481,18.82,11.3c3.93,3.76,6.05,7.56,6.38,11.45Zm-58-52.25c.458221-.203204.768883-.640433.81-1.14v-.36c.051321-.165974.084843-.336935.1-.51l-.08-1.22q-.52-8.67-6.16-11.81c-.18-.13-.31-.19-.39-.17-.835125-.404485-1.777905-.530656-2.69-.36-1.090798.280659-1.829078,1.295794-1.76,2.42.21.7,1.2,1.67,3,2.9.200401.198051.384343.412091.55.64.874918.760547,1.615301,1.663206,2.19,2.67.279403.847098.499928,1.712493.66,2.59q1.15,4.35,3.06,4.49l.71-.14Zm49.9,53.25c.493775-.259091.840565-.731315.94-1.28v-.73q-.21-3.42-3.7-6.59-2.82-2.69-5.34-2.34c-1.055659.338836-1.694233,1.410268-1.49,2.5.536313,1.199362,1.439757,2.197353,2.58,2.85.625111.503933,1.210198,1.055587,1.75,1.65.420323.370883.787154.798291,1.09,1.27q2.05,2.58,3.59,2.79l.58-.12Zm-7.92-70.05c1.341344-.289775,2.375676-1.359637,2.62-2.71q-.27-2.41-4.21-2.55c-.128855.018484-.260312.001187-.38-.05l-.38.07c-1.207283.269625-2.04907,1.363949-2,2.6.37163,1.43702,1.602506,2.48806,3.08,2.63.431305.093637.877316.097042,1.31.01h-.04Z" transform="translate(-765.34-403.05)" fill="#fff"/><path d="M2940.9,2040.19c0,0,18.48,17.32,9.26,33.71-5.52,9.76-38.43,30.27-50.95,35.76-26.91,11.81-60.8,6.82-84.12-10.35-5.697336-4.164902-10.751379-9.144819-15-14.78-8.89-11.94-12.32-25.07-10.87-37.31c2.08-17,16.3-37.43,44.22-56.12c8.27-5.53,4.7,6,5.3,10.91c36.12,6.34,88.83,20.31,102.16,38.18Z" transform="translate(-765.34-403.05)" fill="#3395ff"/><path d="M2968.51,2036.56c0,0-12.86,26.28-26,37.53-7.87,6.69-18.51,11-31.08,11.78-27,1.67-54.73-13.38-69.45-35.63-3.617322-5.409882-6.41742-11.323445-8.31-17.55-3.9-13.15-2.7-25.58,2.44-35.71c7.19-14,26.13-40.22,26.13-40.22s13.57,6.76,31,16.84c29.23,16.95,69.42,43.29,75.27,62.96Z" transform="translate(-765.34-403.05)" fill="#fff"/><path d="M2968.51,2036.56c0,0-12.86,26.28-26,37.53-7.87,6.69-18.51,11-31.08,11.78-27,1.67-54.73-13.38-69.45-35.63l51.28-76.64c29.21,16.95,69.4,43.29,75.25,62.96Z" transform="translate(-765.34-403.05)" fill="#d3e5ed"/><path d="M2907.39,2091.84c-34.73,0-69.71-25-79.36-57.49-4.23-14.25-3.25-28.09,2.83-40c7.28-14.3,25.79-39.91,26.58-41c1.678389-2.326038,4.79753-3.088871,7.36-1.8c10.16,5.06,99.54,50.47,109.32,83.38.414528,1.408615.286081,2.921437-.36,4.24-.55,1.12-13.56,27.51-27.46,39.37-9.15,7.8-21.1,12.36-34.57,13.19-1.45.06-2.89.11-4.34.11ZM2864,1964.27c-5.54,7.83-17.51,25.12-22.73,35.37-4.69,9.21-5.4,20.06-2,31.37c8.59,28.91,40.76,50.91,71.75,49c10.92-.66,20.49-4.26,27.68-10.4c10-8.5,20.14-27.09,23.44-33.44-9.71-22.63-69.98-57.41-98.14-71.9Z" transform="translate(-765.34-403.05)" fill="#000072"/><ellipse rx="52.88" ry="66.63" transform="matrix(.525917-.850536 0.850536 0.525917 2150.274373 1593.419837)" fill="#fff"/><path d="M2901.1,2048.05c-29.1-7-55.12-33.27-54.95-65.14.2-35.37,38.06-55,69.48-48.22c30.61,5.35,57.71,27.37,66.93,57.53c8.32,23-4.48,51.16-28,58.56-7.065762,2.416669-14.572154,3.269668-22,2.5c14.16-3.24,26.64-10.68,33.45-21.52c14.29-22.83,3.59-52.76-16.53-68.73-19.42-16.55-50.7-24.62-73.15-10.63-37.8,26.46-8.11,78.76,24.85,95.65h-.08Z" transform="translate(-765.34-402.05)" fill="#000072"/><path d="M2999.6,2289c-3.45,18.59,6,43.72,24.52,63-18.69,11.6-34.92,35.38-33.62,62.74c2.88,59.56,101.66,108.51,150.84,105.31c26.17-2.22,49-15,67.43-33.35-72.08,30.15-169.17-16-172-75.64-1.35-27.34,14.9-51.15,33.6-62.71-18.54-19.32-28-44.45-24.51-63c8.85-47.19,59.33-79.75,110.4-90.69-62.26-4.15-145.09,32.59-156.66,94.34Z" transform="translate(-765.34-403.05)" fill="#000072"/><path d="M3141.33,2520.08c-49.16,3.2-147.94-45.75-150.82-105.32-1.32-27.36,14.92-51.16,33.6-62.73-18.52-19.31-28-44.44-24.49-63c12-64,100.53-101.13,163.32-93.79c75.71,9.53,112.09,113.58,94.48,199.36-11.65,56.67-54.57,120.24-116.09,125.48Z" transform="translate(-765.34-403.05)" fill="#5f5f82"/><polygon points="2395.9,1955.37 2257.68,1964.57 2259.88,1933.4 2395.9,1955.37 2395.9,1955.37" fill="#000072"/><path d="M3039.38,2229.74c31.38-17.27,69.88-25.19,101.65-21.48c73.94,9.29,109.48,110.9,92.28,194.71-9.67,47-41.36,98.94-87.53,116.61c59.12-7.82,100.28-69.68,111.64-125c17.6-85.77-18.77-189.82-94.48-199.34-39.5-4.65-89.16,8.34-123.56,34.5Z" transform="translate(-765.34-403.05)" fill="#fff"/><path d="M3136.71,2535.84c-37.28,0-90.42-22.08-124-52.06-23.58-21.05-36.65-44.65-37.79-68.26-1.37-28.34,11.78-51.17,27-65.85-14.51-20.41-21.33-44.07-17.68-63.55c13.38-71.43,106.32-115.1,180.5-106.43c30.35,3.82,56.93,20.64,77,48.65c31,43.34,43.2,109.81,31,169.36-13.18,64.17-62.09,132.16-130.07,137.94h-.31c-1.85.14-3.73.2-5.65.2Zm4.62-15.76v0Zm4.78-310.22c-55.61,0-122,33.2-131.14,82-2.59,13.82,5.81,34.12,20.42,49.35l13.36,13.93-16.41,10.16c-13.81,8.56-27.28,26.93-26.23,48.7.92,19,15.41,35.76,27.39,46.46c31.78,28.36,80.68,45.69,106.66,44c52.63-4.59,91.12-60.33,102-113.09c10.39-50.63,0-108.85-25.77-144.88-10.36-14.47-28.37-32.44-55.36-35.83-4.953381-.558553-9.935293-.82568-14.92-.8Z" transform="translate(-765.34-403.05)" fill="#000072"/></g></g></g><g id="eWbiBafPdD3178_tr" transform="translate(1879.016202,483.281544) rotate(-1.482699)"><g transform="translate(-1879.016199,-483.281543)"><path d="M2601.19,797.15c70.27-31,172.51,22.64,221.44,51.37c131.87,77.4,156.53,57.12,186.49,89.85c26.37,28.82-26.07,132.3-116.7,171.85-91,39.71-203.68,14.42-297.66-107.26" transform="translate(-765.34-403.05)" fill="#fff"/><path d="M2598,790c70.07-34.42,157.42,3.7,220.62,37.71c44.63,25.43,91,51.15,139.4,67c27.53,8.58,67.15,21.12,72.67,54.69c6.8,58.94-50.81,126.3-96.56,157.26-76.93,53.55-179.76,47.54-254-7.8-35.48-26-64.07-59.24-85.46-95.93c30.23,29.81,62.1,57.08,97.76,76.66c89.62,52.07,197.9,39.16,267.22-39.52c18.62-21.24,35.39-46.79,40.06-74.31.66-6.49,1.34-12.47-2.57-17.16-12.93-14.35-30.68-17.28-49.18-23.66-20.668043-6.635062-40.915132-14.516165-60.63-23.6-38.31-17-74.68-41.06-111.59-60.53-44.42-22.52-92.47-43.86-142.94-42-9.76174.551143-19.408203,2.386963-28.69,5.46-8.86,2.93-14.55-9.77-6.16-14.34l.05.07Z" transform="translate(-765.34-403.05)" fill="#000072"/><path d="M2935.12,998.56c-49.7,34.6-133.47-33.28-176.6-61.39-63.27-41.23-123.77-18.23-113,67.53c0,0,45.29,77.1,155,72.37c103.37-4.46,134.6-78.51,134.6-78.51Z" transform="translate(-765.34-403.05)" fill="#eaeaea"/><path d="M2935.12,998.56c-49.22,42.28-134.18-18.1-177.44-45.92-31.69-22.51-83.56-38.77-102.38,7.28-5.91,13.19-8.06,28.77-9.78,44.78-5.32-15.19-7.94-31.82-5.05-49.08c6.71-41.86,47.88-59.42,86.18-48.1c16.64,4.39,32.45,13.3,46,23c26.08,18.37,50.42,37.32,76.87,52.65c25.64,14.64,56.74,29.25,85.64,15.4l-.04-.01Z" transform="translate(-765.34-403.05)" fill="#000072"/></g></g></svg>
