<svg id="Layer_1" data-name="Layer 1" xmlns="http://www.w3.org/2000/svg" viewBox="0 0 4000 4000"><path d="M753.35,2303.19c29.53,53.74,20.82,95.28,7.24,116.91-10.75,17.12-25.45,31.43-52,34.85-28,3.6-74.76-8.45-110-46.53-14.38-15.53-31.43-36.63-62.74-45.52-.27-7.36,6.37-13.15,16.3-17.69-9.76-14.39-22.87-29.89-47.63-49-.25-.2,53-66.94,182-41.64,5.48-18,19.62-23.5,35-18.86C716,2268.6,733.55,2267.16,753.35,2303.19Z" style="fill:#c4612b"/><path d="M708.61,2454.94c-27.94,3.61-74.75-8.43-110-46.51-14.36-15.47-31.31-36.51-62.44-45.45a1.74,1.74,0,0,0-.32-.11,11.52,11.52,0,0,1,.34-3.23,16.2,16.2,0,0,1,5-7.66,44.07,44.07,0,0,1,10.93-6.76c-9.77-14.4-22.88-29.91-47.63-49a35.68,35.68,0,0,1,3.35-3.82c.36-.39.78-.78,1.25-1.24,1.52-1.51,3.45-3.26,5.76-5.23.47-.39,1-.81,1.47-1.23,1.1-.86,2.24-1.78,3.5-2.74.55-.43,1.15-.85,1.74-1.27a142.14,142.14,0,0,1,14.13-9.07c28.43-16,77.33-31.42,150.78-17,5.49-18,19.61-23.48,35-18.86-5.46,32.91,12,31.46,31.87,67.51,24.42,44.49,22.68,80.59,13.63,104a.08.08,0,0,0,0,.07,73.28,73.28,0,0,1-6.41,12.88C749.82,2437.21,735.14,2451.53,708.61,2454.94Z" style="fill:#c4612b"/><path d="M708.61,2454.94c-27.94,3.61-74.75-8.43-110-46.51-14.36-15.47-31.31-36.51-62.44-45.45a1.74,1.74,0,0,0-.32-.11,11.52,11.52,0,0,1,.34-3.23,16.2,16.2,0,0,1,5-7.66,44.07,44.07,0,0,1,10.93-6.76c-9.77-14.4-22.88-29.91-47.63-49a35.68,35.68,0,0,1,3.35-3.82c.36-.39.78-.78,1.25-1.24,1.52-1.51,3.45-3.26,5.76-5.23.47-.39,1-.81,1.47-1.23,1.1-.86,2.24-1.78,3.5-2.74.55-.43,1.15-.85,1.74-1.27a142.14,142.14,0,0,1,14.13-9.07c28.43-16,77.33-31.42,150.78-17,.16-.53.32-1,.49-1.53,2.23-6.49,5.68-11.2,9.92-14.3l.9-.64c6.21-4.11,13.93-4.91,22.1-2.82.52.13,1,.27,1.57.43-5.46,32.91,12,31.46,31.87,67.51,24.42,44.49,22.68,80.59,13.63,104a.08.08,0,0,0,0,.07,73.28,73.28,0,0,1-6.41,12.88,97.64,97.64,0,0,1-8.52,11.7C742.12,2443.43,728.77,2452.34,708.61,2454.94Z" style="fill:#5f5f82"/><g style="opacity:0.4"><path d="M687,2253a14.08,14.08,0,0,0-1.16,1.41l.68.13C686.66,2254,686.84,2253.52,687,2253Z" style="fill:#fff"/></g><g style="opacity:0.4"><path d="M752.06,2431.81c.65-9.4.46-17.17,2.43-27,4.8-23.65,2.65-58.68-11.87-85.12-18.37-33.5-36.57-34.42-39.9-67.27-9.07-2.76-11.07-4.69-15.72.58,2.23-6.49,5.68-11.2,9.92-14.3l.9-.64c6.21-4.11,13.93-4.91,22.1-2.82l1.54.45,0,0c-5.46,32.91,12,31.46,31.87,67.51,24.42,44.49,22.68,80.59,13.63,104a.08.08,0,0,0,0,.07,73.28,73.28,0,0,1-6.41,12.88A97.64,97.64,0,0,1,752.06,2431.81Z" style="fill:#fff"/></g><g style="opacity:0.4"><path d="M535.75,2271.6c-21.34,12-31.16,24.3-31.23,24.59,1.5,1.15,2.93,2.31,4.35,3.43a141.27,141.27,0,0,1,19.38-13.11c28.46-16,77.32-31.43,150.78-17,2-6.47,4.13-11.52,6.81-15.07C612.76,2240.26,564.08,2255.65,535.75,2271.6Z" style="fill:#fff"/></g><path d="M708.61,2454.94c-27.94,3.61-74.75-8.43-110-46.51-14.36-15.47-31.31-36.51-62.44-45.45a1.74,1.74,0,0,0-.32-.11,11.52,11.52,0,0,1,.34-3.23,16,16,0,0,1,5-7.66,44.07,44.07,0,0,1,10.93-6.76c-9.77-14.4-22.88-29.91-47.63-49a35.68,35.68,0,0,1,3.35-3.82c.36-.39.78-.78,1.25-1.24,1.52-1.51,3.45-3.26,5.76-5.23.47-.39,1-.81,1.47-1.23,1.1-.86,2.24-1.78,3.5-2.74.55-.43,1.15-.85,1.74-1.27a142.14,142.14,0,0,1,14.13-9.07c-9.21,12.07-7.38,21.47,5.62,29,26,15,52.3,21.08,72.46,42.94-20,8.85,7.33,40.88,18.6,45.4,44.18,17.73,78.78-18.44,102.74-15.5,31,3.81,31.83,33.78,31.84,33.81a73.28,73.28,0,0,1-6.41,12.88C749.82,2437.21,735.14,2451.53,708.61,2454.94Z" style="fill:#595959"/><path d="M698.41,2470.53c-32.92,0-76.84-15.28-110.78-51.94l-3.92-4.26c-12.87-14.1-27.45-30.08-51.94-37a14.94,14.94,0,0,1-10.86-13.83c-.24-6.32,1.62-14.44,9.8-22.07-7.63-9.33-18.37-20.25-35.33-33.35a15,15,0,0,1-4.48-18c4.71-10.4,63.39-72.08,186.89-52.2,10.06-15.92,28-22.46,48-16.43a15,15,0,0,1,10.44,16.76c-2.35,14.22-.17,16.8,9,27.66A173,173,0,0,1,766.47,2296h0c38.84,70.69,15,119,6.8,132.06-9.88,15.72-27.12,37.14-62.74,41.73A93.78,93.78,0,0,1,698.41,2470.53ZM561.35,2357c20.22,10.57,33.84,25.48,44.47,37.13l3.76,4.11c30.9,33.37,72,45.08,97.12,41.85,18-2.33,30.37-10.69,41.22-28,6-9.61,23.29-45.36-7.68-101.74h0c-6.43-11.7-12.52-18.93-17.9-25.31-7.9-9.37-15.46-18.33-16.64-34.28-2.13,1.59-3.71,4.27-4.88,8.12a15,15,0,0,1-17.2,10.31c-87.77-17.21-136.81,10.27-156.59,26,19.66,17,30.29,30.91,37.52,41.57a15,15,0,0,1-3.2,20.21Z" style="fill:#000072"/><path d="M701.46,2255.14a235.49,235.49,0,0,0-10.24,33,59.35,59.35,0,0,0-1.56,11.58,63.61,63.61,0,0,1-5.87-10.7,253.8,253.8,0,0,1-12.45-35.86,15.91,15.91,0,0,1,11.36-19.42c12.27-3.63,23.87,9.83,18.76,21.38Z" style="fill:#000072"/><path d="M548.19,2330.78c21.56-.16,44.44.86,63.19,12.17-19.55-1.25-38.63,7.61-55.25,16.68l-7.94-28.85Z" style="fill:#3a3a3a"/><path d="M1048.36,2666.42c-71.44,35.9-272.84,48.8-306.78-51.13-29.12-85.71,80.06-119.52,35.91-202.8-18.93-32.74-47-36.87-61.27-20.16-16.82,19.66,5.92,36.37-5.12,58.71-18.3,42.31-69.5,97.42-53.25,178.83,15.19,76.14,90.85,179.8,364.23,176.82" style="fill:#fff"/><path d="M1010.62,2821.72c-286.57,0-353.29-117.95-367.45-188.92-13.51-67.69,16.15-119.26,37.81-156.92,6.37-11.09,12.4-21.57,16.38-30.78.11-.23.21-.46.33-.69,2.62-5.32,1.71-9.94-.3-18.33-2.57-10.83-6.48-27.19,7.46-43.48A41.87,41.87,0,0,1,741,2368c18.84,1.73,36.88,15.23,49.48,37q.15.24.27.48c26.93,50.79,4.72,86.89-14.88,118.73-17.07,27.75-31.83,51.71-20.08,86.27,7.51,22.12,25.74,39.24,54.18,50.89,72.37,29.64,185.57,14.87,231.71-8.32l13.44,26.74c-52.34,26.3-175.23,42.55-256.49,9.27-36.81-15.08-60.76-38.28-71.18-68.95-16.27-47.88,4.56-81.73,22.93-111.59s32.78-53.24,14.06-88.77c-7.55-13-17.32-21.18-26.18-22a11.81,11.81,0,0,0-10.63,4.3c-3.68,4.31-3.51,6.89-1.09,17.08,2.33,9.75,5.5,23.06-1.81,38.16-4.65,10.68-11,21.77-17.77,33.5-21.43,37.26-45.7,79.48-34.4,136.14,12.36,61.95,72.9,164.85,338,164.85,3.77,0,7.56,0,11.42-.06l.32,29.92C1018.34,2821.7,1014.45,2821.72,1010.62,2821.72Z" style="fill:#000072"/><path d="M1763.69,2283.21c406.51-83.45,586.25-167.18,643.67-240.29,64-88.89,140.07-108.15,209.8-90.7,66.77,16.71,121.9,94.82,85.89,214.86-89.87,288.27-629.09,479.81-845.12,459.51" style="fill:#fff"/><path d="M2703,2167.09c-89.86,288.26-629.07,479.81-845.1,459.51l-31.42-114.5-62.84-228.89c249.73-51.28,413.9-102.63,516.64-151.59,64.53-30.71,104.88-60.49,127-88.69,64-88.89,140.07-108.18,209.83-90.72C2684,1968.91,2739.06,2047.05,2703,2167.09Z" style="fill:#fff"/><g style="opacity:0.2"><path d="M2280.32,2131.62c15,128.4-165.39,263.94-332.36,340.38a583.59,583.59,0,0,1-121.44,40.1l-62.84-228.89C2013.41,2231.93,2177.58,2180.58,2280.32,2131.62Z" style="fill:#000072"/></g><path d="M1440.35,2380.18c-3.36,60.53-42.37,64.57-102.56,59.48a415.07,415.07,0,0,1-94.6-82.48c56.15-6.14,113.28-12.25,188.3-7.9l4.37,2.17A70.51,70.51,0,0,1,1440.35,2380.18Z" style="fill:#595959"/><path d="M1533.34,2399.84l-117,80c-77.27-31.13-133-75.1-173.1-122.67,56.15-6.14,113.28-12.25,188.3-7.9l4.37,2.17Z" style="fill:#eaeaea"/><path d="M1948,2472c-71,32.51-153.3,52.82-248.57,54-170.74,2.06-289.48-37.09-371.94-93.12,88.92-53.75,176.42-118.4,241.36-252.79l376.39,261.41C1946.27,2451.76,1947.17,2461.91,1948,2472Z" style="fill:#eaeaea"/><g style="opacity:0.2"><path d="M2580,2348.42c-196.72,183.53-555.44,293.83-722,278.19l-24.55-89.49c30.25-24.11,68.11-47.23,113.58-61.15C1971.66,2566.53,2283,2574.2,2580,2348.42Z" style="fill:#000072"/></g><g style="opacity:0.35000000000000003"><path d="M2713.49,2075.41c-21.07-49-56.29-97.53-114.65-100.87-123.52-7-164.75,117.86-201.08,140-20.35,12.38-25.62-10.58-28.65-35.08q4.77-3.63,9.07-7.21a194.61,194.61,0,0,0,29.18-29.33c64-88.87,140.08-108.11,209.8-90.67C2665,1964.15,2706.84,2007.59,2713.49,2075.41Z" style="fill:#fff"/></g><path d="M2703,2167.09c-16.94,54.36-49.86,105.3-93.6,152-153.58,65.2-270-124.24-265.3-222.27,9.14-5.82,17.43-11.61,25-17.37,3.17-2.41,6.19-4.83,9.06-7.2a194.61,194.61,0,0,0,29.18-29.33c64-88.87,140.09-108.12,209.8-90.67,47.8,11.92,89.68,55.36,96.34,123.18C2716.15,2102.29,2713.28,2133,2703,2167.09Z" style="fill:#5f5f82"/><path d="M1522,2445.5a71.88,71.88,0,0,1-8.15,20.24c-126-18.29-216.91-59.12-282.42-107.27,60-6.56,119.77-13.84,200-9.2C1431.48,2349.27,1545,2343.63,1522,2445.5Z" style="fill:#b25b36"/><path d="M1945.35,2445.3c-71.29,17.1-153.43,27.84-248.08,30.25-149.65,3.84-264.07-18.48-351.53-54,82.56-51.72,162.61-116.36,223.07-241.53l376.35,261.43C1945.23,2442.73,1945.31,2444,1945.35,2445.3Z" style="fill:#b25b36"/><path d="M1561.5,3013.18c-50.67,228.11-320.81,255.91-507.74,172.69-25.11,59.25-57.29,103-106.84,117.66-65.53,19.34-147.72-15.59-166.21-94.83-22.83-97.89,50.28-219.31,109.56-247.11C957.8,2929.93,1188,2891,1188,2891" style="fill:#ff9343"/><path d="M1561.49,3013.18c-49.79,224.21-311.57,254.92-498,176.86-3.25-1.34-6.5-2.76-9.71-4.18-25.13,59.27-57.33,103-106.85,117.66-65.55,19.36-147.74-15.6-166.21-94.81-22.83-97.92,50.29-219.34,109.57-247.13,27.8-13.07,83.33-27.38,138.93-39.68C1108.5,2904.42,1188,2891,1188,2891Z" style="fill:#cfcfe5"/><path d="M1063.49,3190c-3.25-1.34-6.5-2.76-9.71-4.18-25.13,59.27-57.33,103-106.85,117.66-65.55,19.36-147.74-15.6-166.21-94.81-22.83-97.92,50.29-219.34,109.57-247.13,27.8-13.07,83.33-27.38,138.93-39.68C932.32,3063.48,994.77,3137.78,1063.49,3190Z" style="fill:#5f5f82"/><g style="opacity:0.2"><path d="M1063.49,3190c-3.25-1.34-6.5-2.76-9.71-4.18-25.13,59.27-57.33,103-106.85,117.66-65.55,19.36-147.74-15.6-166.21-94.81-22.83-97.92,50.29-219.34,109.57-247.13,27.8-13.07,83.33-27.38,138.93-39.68C932.32,3063.48,994.77,3137.78,1063.49,3190Z" style="fill:#000072"/></g><path d="M910.34,3323.66A154.21,154.21,0,0,1,833.26,3303a141.34,141.34,0,0,1-67.12-90.94c-25.06-107.4,54.17-234.23,117.78-264.06,68.58-32.15,292.07-70.22,301.54-71.83l5,29.51c-2.28.39-228.93,39-293.84,69.42-53.9,25.28-122.16,140.87-101.34,230.16,9.15,39.22,33.9,60.73,53,71.88,28.44,16.56,63.72,21,94.36,12,39.82-11.75,70.73-46.43,97.3-109.13l5.94-14,13.92,6.19c119.39,53.15,259.61,55.71,357.24,6.52,69-34.75,112.66-91.54,129.82-168.79l29.21,6.5c-18.93,85.21-69.27,150.58-145.57,189-101.54,51.16-244.88,50.84-369.08,0-29.17,63-64.46,98.91-110.31,112.45A144.58,144.58,0,0,1,910.34,3323.66Z" style="fill:#000072"/><path d="M978.3,3099.76c19.48,26.78,44.53,49.15,72.5,66.46A216.39,216.39,0,0,0,1103,3188.9l-10.69,27.95c-49.87-24.74-89.95-67.29-114-117.09Z" style="fill:#000072"/><path d="M1892.26,2643.07c-12.57,0-24.51-.52-35.74-1.58l2.81-29.79c109.16,10.22,299.21-36.08,462.1-112.69,114.86-54,315.32-169.56,367.34-336.38,21-70.05,7.45-116.41-7.63-142.93-15.42-27.1-39.43-45.91-67.61-53-73.68-18.43-140.76,10.94-194,84.92-.12.17-.25.34-.38.5-69.43,88.42-288.94,171.09-652.43,245.71l-6-29.32c443.27-91,589.86-177.78,634.72-234.64,77.07-106.83,165.1-111.29,225.4-96.21,36.19,9.06,66.86,32.93,86.35,67.2,18,31.61,34.34,86.14,10.23,166.48-55.47,177.92-263.9,298.59-383.21,354.71C2180.74,2598.25,2009.33,2643.06,1892.26,2643.07Z" style="fill:#000072"/><path d="M1870.2,2833.44c-138.21,266.57-442.81,380-746,254.53a255.27,255.27,0,0,1-27.8-13.49c1.11-.92,2.25-1.84,3.36-2.84,73.16-52.25,96.45-83.65,125.36-125.37,130.87-189,300-244.9,452.11-234.05C1764.08,2718.43,1844.69,2762.75,1870.2,2833.44Z" style="fill:#b25b36"/><path d="M1945.17,2441.46c62.37,599-377.43,841.73-821,646.51C980,3028.32,931.56,2863.3,1043,2671.58c137.65-236.85,384.87-199.83,525.81-491.53Z" style="fill:#fff"/><g style="opacity:0.2"><path d="M1948,2472c-71,32.51-153.3,52.82-248.57,54-170.74,2.06-289.48-37.09-371.94-93.12,88.92-53.75,176.42-118.4,241.36-252.79l376.39,261.41C1946.27,2451.76,1947.17,2461.91,1948,2472Z" style="fill:#000072"/></g><path d="M1918.09,2786.22C1812.5,3126.51,1469.5,3240,1124.17,3088a256.6,256.6,0,0,1-27.77-13.46s0,0,0,0c1.11-.92,2.26-1.84,3.37-2.84,253.85-96.29,254.85-311.7,577.46-359.43C1789.23,2695.65,1930.41,2718.33,1918.09,2786.22Z" style="fill:#f2f2f2"/><path d="M1912.81,2756.81c-38.32,186-150.79,296.13-275.39,345.13-173,68-299.78,38.87-352.75-23.66-23.33-27.49-34.49-60-35-95,123.83-103.71,184.21-235,427.47-271C1771.16,2698.35,1885.54,2712,1912.81,2756.81Z" style="fill:#ffb6b8"/><path d="M1637.42,3101.93c-173,68-299.8,38.88-352.74-23.63-81.72-96.49-14.55-253.85,142.23-372.66,97.39-73.81,176.62-102.88,269.23-120.17,73.12-13.66,227.44-3.48,223.36,132.89C1889.53,2927.72,1770.41,3049.65,1637.42,3101.93Z" style="fill:#fddbdb"/><path d="M1912.81,2756.81c-38.32,186-150.79,296.13-275.39,345.13-173,68-299.78,38.87-352.75-23.66-23.33-27.49-34.49-60-35-95,123.83-103.71,184.21-235,427.47-271C1771.16,2698.35,1885.54,2712,1912.81,2756.81Z" style="fill:#ffb6b8"/><path d="M1945.17,2441.46c75.38,331.38-99.12,691.21-460.82,727.44-122.42,12.95-245.65-11.68-357.4-59.61-52.47-20.15-101.19-56.29-129.63-105.77-66-112.72-26.24-253.1,39.34-356.58,74.71-122.42,198.37-176.41,313.7-248.16,88.3-54.84,160.08-131.29,205-225.24l27,13c-23.2,48.84-52.7,95.28-89.14,136-104.9,122.6-272.66,165.5-379.79,283.2-50.48,56.6-88,126.4-105.43,200.23-23.89,99.29,5.66,202.84,99.15,253.31,259.26,128.86,590.41,107,746.48-163.79,79.75-135.79,87.51-300.07,91.63-454Z" style="fill:#000072"/><path d="M1133.82,3041.29c-70,97.78-269,143-393.14,1-17.81,21.81-56.23,44.52-118.51,33.16-52.2-9.53-123.27-63.57-97-180.52,19.13-85.28,115.37-244.08,237.11-235.4,81.58,5.05,103.23,55.16,133.48,68.26,44.11-61.37,37.84-198.35,229.85-213.84l177.17-80.36Z" style="fill:#fff"/><path d="M899.52,2695.44c5,60.4-14.84,69-20.81,87.63s14.84,82.28,81.1,78.58c92.27-5.15,41.37-89.42,76.86-95s107.42-69.29,53.71-140S939.53,2540,939.53,2540" style="fill:#5f5f82"/><path d="M845,2688.26c-14.61-4.94-76-17.52-127.58,94.81-51.47,112.11,6,228,25.17,261.32-.65-.69-1.27-1.38-1.88-2.07-17.82,21.81-56.21,44.51-118.51,33.16-52.2-9.54-123.26-63.56-97.06-180.53,19.12-85.27,115.38-244.07,237.1-235.4C800.76,2661.92,826,2674.38,845,2688.26Z" style="fill:#5f5f82"/><g style="opacity:0.2"><path d="M727.85,3016.54c-15.06,18.23-50.25,32-73.71,32A149.27,149.27,0,0,1,627.5,3046a95.6,95.6,0,0,1-61-40.94c-17.56-26.55-21.67-61.39-12.22-103.53,3.77-16.74,10.91-36.74,20.85-57.71-8.33,50.3-5.2,102.29,30.19,125.7,31,20.56,84.2,23.24,103.74,4.74C712,2995.32,725.31,3011.23,727.85,3016.54Z" style="fill:#000072"/></g><g style="opacity:0.35000000000000003"><path d="M899.52,2722.15c-3.71,22.69-15.3,42.28-15.3,42.28-39.23-15.18-49.79-68.28-128.19-71.61-96.94-4.14-169.87,98.14-202,126.36,41.07-79.74,117.59-166.08,208.19-159.6,81.57,5,103.22,55.13,133.47,68.24C897,2726,898.26,2724.1,899.52,2722.15Z" style="fill:#fff"/></g><g style="opacity:0.2"><path d="M1060.52,3074.2c-102,51.44-236.46,27.79-298.93-49.92-12.62-15.7-24.46-39.38-24.46-44.41s37.21,32.67,167.87,36.5c50.23,1.47,133.34-16.48,164.77-6.07C1105.46,3022.12,1103.55,3050.88,1060.52,3074.2Z" style="fill:#000072"/></g><path d="M1133.82,3041.29c-23.8,54.58-80.89,87.63-137.08,100.79-96.5,25-206.48-10.48-267.32-89.91l22.85-.39c-34.12,40.91-91.69,48.28-140.68,36.68-49.58-12.13-90.34-53.51-101.92-103.1-21.79-92.51,32.37-193.1,91.44-261.41,43.63-50.13,110.84-90.74,180.5-77.32,39.57,4.91,74,27.55,101.73,54.38,6.52,5.72,12.83,10.71,18.32,13.07l-18.1,5c7-9.87,12.65-21.81,17.9-34.44l15.86-39.19c29.62-76,81.58-124.42,163.38-140.18,14.5-3.17,29.09-4.78,43.66-6.2l-5,1.29L1296.55,2420l12.36,27.25-177.17,80.36-2.25,1-2.73.27c-89.9,7.26-148.51,42-181.84,128.13-10.73,25.08-20.85,56.77-37.06,79.52l-7,10-11.1-5C870,2732.27,859,2718.13,843.52,2706c-25.66-21.81-58.18-31.79-91.27-31.82-108.58.19-209,155.56-217.2,254.59-6.61,61.27,28.07,119.91,89.55,131.9,36.12,7.07,80,1.71,104.49-27.84l11.1-13.41,11.75,13c104.76,111.16,268.92,106.13,381.88,8.82Z" style="fill:#000072"/><path d="M856.4,2805.67c21.83-21.82,30.37-52.3,36.29-81.68,1.91-9.91,3.36-19.83,5-30.23l28.78,8.2c-16,38-33.51,81.08-70.07,103.71Z" style="fill:#000072"/><path d="M701.52,2838.74c-3.34,18.54-1.35,37.57.6,56.14,7,53.67,24.29,109.07,60.86,149.56l-23.28,18.81c-34-49.28-45.18-109.43-45.05-168,.51-19,1.06-38.4,6.87-56.55Z" style="fill:#000072"/><path d="M1207.12,2622.76C821,2741,549,2617.33,498.58,2494.87c-29.39-76.42,3.86-167,92.19-192.72,92.58-27,208.59,21.5,348,47.77,228.88,43.13,304.73-11.5,492.76-.64l101.85,50.56Z" style="fill:#fff"/><path d="M1533.34,2399.84l-326.21,222.9C821,2741,549,2617.31,498.56,2494.87c-29.36-76.41,3.89-166.94,92.21-192.71,92.59-27,208.59,21.5,348,47.75,48.54,9.14,90.16,13.9,127.45,15.85,138.65,7.08,217.15-25.06,365.32-16.48l4.37,2.17Z" style="fill:#fff"/><g style="opacity:0.2"><path d="M1533.34,2399.84l-117,80c-77.27-31.13-133-75.1-173.1-122.67,56.15-6.14,113.28-12.25,188.3-7.9l4.37,2.17Z" style="fill:#000072"/></g><path d="M1440.35,2380.18c-3.74,67.42-51.71,64.76-123.93,57.46-56.34-5.74-55.94,36.11-122.36,44.72-49.82,6.45-73.28-39.72-90.61-70.3-16.11-28.44-30.7-43.07-37.28-46.3,138.65,7.08,217.15-25.06,365.32-16.48l4.37,2.17A70.51,70.51,0,0,1,1440.35,2380.18Z" style="fill:#5f5f82"/><g style="opacity:0.2"><path d="M1440.35,2380.18c-3.36,60.53-42.37,64.57-102.56,59.48a415.07,415.07,0,0,1-94.6-82.48c56.15-6.14,113.28-12.25,188.3-7.9l4.37,2.17A70.51,70.51,0,0,1,1440.35,2380.18Z" style="fill:#000072"/></g><path d="M907,2639.85c-125,0-211.13-28.31-261.34-52.06C586.08,2559.6,542.85,2521.6,527,2483.5c-7-18.22-3.41-50,23-62.18,92.26-42.65,147.87,71.73,372.39,145.69,166,54.69,271.68,43.29,271.68,43.29C1121.71,2628.19,999.58,2639.85,907,2639.85Z" style="fill:#eaeaea"/><path d="M818,2597.06c-30.63,35.88-70.71,46.27-102,49.11-109.49-30.33-183.72-84.89-212.48-140.71q-2.75-5.28-4.93-10.58c-29.37-76.41,3.86-167,92.2-192.73,63-18.36,136.83-1.76,221.5,19C892.2,2399.46,867.76,2538.78,818,2597.06Z" style="fill:#5f5f82"/><g style="opacity:0.2"><path d="M849.64,2539.47c-8.07,22.85-19,42.82-31.63,57.59a133.24,133.24,0,0,1-39.81,31.78c-58-10.39-101.92-26.57-132.55-41.06C586.07,2559.6,542.85,2521.6,527,2483.5c-6.92-18.21-3.4-50,23-62.19C631.35,2383.7,684.24,2468.24,849.64,2539.47Z" style="fill:#000072"/></g><g style="opacity:0.35000000000000003"><path d="M1206.61,2361.07c-.88.58-1.84,1.12-2.79,1.69-137.56,79.82-514.9-85.69-628-17.64-75.07,45.17-78.86,116.13-72.28,160.34q-2.76-5.3-4.94-10.58c-29.37-76.41,3.87-167,92.21-192.73,92.58-27,208.57,21.51,347.93,47.77C1056.51,2372.12,1133.76,2368.43,1206.61,2361.07Z" style="fill:#fff"/></g><path d="M1207.12,2622.76c-184.23,86.7-454,92-629.17-19.77-74.89-48-124.34-120.37-97.61-211.95,12.19-41.17,43.14-76.54,82.23-94.23,93.23-40.83,201.76-.47,294.62,19.89,111.55,28.35,226,43.45,340.81,30.19,77-8.31,156.24-17.9,234.34-12.55l-1.72,29.88a878,878,0,0,0-114.34,1c-38.15,2.68-76.44,7.68-115.4,11.46a868.27,868.27,0,0,1-235.71-7c-38.85-6.15-77.17-14.78-115-23.91-85.15-18.51-192.36-58-275-21.83-62.22,27.38-87.6,103.9-62.46,165.69,8.7,20.21,22.45,37.73,38.7,53.38,54.05,51.09,127.76,78.66,200,94.59,151,33.54,303.86,8.71,455.75-14.86Z" style="fill:#000072"/><path d="M1919.38,1357.79c38.68-51.81,135.67-54.7,183.35-53.85,128.5,2.3,138.19-22.78,173.63-11.14,31.2,10.24,35.48,107.9-14.58,174.41-50.25,66.77-143.2,94.8-262.21,44.33" style="fill:#5f5f82"/><path d="M1913.39,1353.32c37.39-55.29,116.68-63.52,177.92-64.86,43.08.14,87.62-.12,129.44-8.41,24.22-5.34,59.62-12.13,77.61,11,29.66,41.93,15.35,114.1-5.65,157.11-34.2,71.6-113.31,110.46-191,99.78a258.92,258.92,0,0,1-102.13-36.42c34.7,8.8,69.3,15.25,103.33,14.55,86,.53,159.28-53.45,177.38-138.54,4.85-22.92,6.57-48.25-1.1-70-1.6-4.28-4.31-9.33-7.72-10.56-15.14-5.08-28.77.06-44.83,3a450.73,450.73,0,0,1-54.38,7.84c-35.13,3.39-71.7.76-106.82,1.65-48.7,2.5-104.09,6.35-140,42.8-5.94,6.71-16.78-1.25-12-9Z" style="fill:#000072"/><g style="opacity:0.2"><path d="M2247,1367.58c-22.13,46-111.48,30.76-154.65,28-63.34-4.11-98.15,37.79-54.89,96.3,0,0,65,37.87,143.33-11C2254.66,1434.86,2247,1367.58,2247,1367.58Z" style="fill:#000072"/></g><path d="M2247,1367.58c-8.12,28-42.17,38.25-68.13,41.43-27.48,3.44-54.9,1.48-81-.24-31.58-3.22-75.36,5.63-70.87,46,.92,12,5.38,24.4,10.42,37.08-10.47-8.72-19.61-19.72-24.81-33.7-13.13-33.73,10.38-65.08,43.63-72.68,14.15-3.75,29.67-3.76,43.68-2.18,26.75,2.76,52.29,6.72,77.88,7.28,25,.11,52.75-1,69.16-23Z" style="fill:#000072"/><path d="M1435.93,1481.79,1309.71,1522l-41.78,11.63c-67.28-38.92-94.26-155.6-85.89-228.69,3.65-32.29,14.18-56,31.18-60.89,28.13-8,54.63,65.81,123,102.55,38.13,20.52,89.27,29.53,161,6.32C1652.74,1302.61,1435.93,1481.79,1435.93,1481.79Z" style="fill:#f9e3d2"/><g style="opacity:0.5"><path d="M1452,1363.83c-51.84,13.37-93.35,7.82-127.28-6.07-65.28-26.67-102.44-84.13-130.22-97.11,5-8.63,11.2-14.48,18.71-16.63,28.13-8,54.63,65.81,123,102.55C1365.75,1362.49,1403.17,1371.48,1452,1363.83Z" style="fill:#fff"/></g><path d="M1435.93,1481.79,1309.71,1522l-41.78,11.63c-67.28-38.92-94.26-155.6-85.89-228.69,0,0,22.08,142.1,85.5,99.78,31.59-21.06,47.85-40.32,68.63-58.12,38.13,20.52,89.27,29.53,161,6.32C1652.74,1302.61,1435.93,1481.79,1435.93,1481.79Z" style="fill:#e2c3af"/><path d="M1267.93,1548.57a14.93,14.93,0,0,1-7.48-2c-75.15-43.46-102.32-170.45-93.06-245.41,5-40.41,19.42-65.14,41.71-71.51,23.13-6.63,40.69,14.14,61,38.15,40.06,47.31,94.92,112.1,222.43,70.87,31.36-10.14,61.89-16.75,72.89,3.31,8.45,15.39,2.2,37.2-55.7,93.63-30.9,30.1-62.91,56.62-64.26,57.73l-2.23,1.85-129,41a15,15,0,0,1-9.07-28.52l123.49-39.28c52.38-43.56,98-90.08,107.8-109.39-5.62.37-16.11,2.1-34.68,8.11-146.57,47.38-214.12-32.36-254.48-80-8.89-10.5-25.37-30-30-28.73-6.93,2-16.38,15.33-20.22,46.42-8,65,15.22,179.32,78.33,215.83a15,15,0,0,1-7.5,27.91Z" style="fill:#000072"/><path d="M1836.06,1434.61,1964.44,1402l41.62-12.19c36.69-68.64-1.75-182-47.31-239.73-20.08-25.5-41.52-40.11-58.51-35.25-28.13,8-11.81,84.79-50.53,152.13-21.61,37.59-60.32,72.28-133.48,90.47C1557.6,1397,1836.06,1434.61,1836.06,1434.61Z" style="fill:#f9e3d2"/><g style="opacity:0.5"><path d="M1760.35,1342.88c51.08-16,83.44-42.7,105-72.43,41.44-57.17,42.79-125.64,59.57-151.35-8.76-4.71-17.13-6.39-24.64-4.24-28.13,8-11.81,84.79-50.53,152.13C1833,1296.15,1805.88,1323.57,1760.35,1342.88Z" style="fill:#fff"/></g><path d="M1836.06,1434.61,1964.44,1402l41.62-12.19c36.69-68.64-1.75-182-47.31-239.73,0,0,56,132.41-20.17,130-37.91-1.2-61.86-9-88.87-13.1-21.61,37.59-60.32,72.28-133.48,90.47C1557.6,1397,1836.06,1434.61,1836.06,1434.61Z" style="fill:#e2c3af"/><path d="M1836.91,1449.85l-2.87-.39c-1.73-.23-42.86-5.84-84.94-15.09-78.88-17.33-95.68-32.55-96.64-50.08-1.26-22.86,28.18-33.38,60.17-41.35,130-32.37,142.59-116.44,151.75-177.82,4.64-31.15,8.66-58,31.76-64.65,22.23-6.34,47.44,7,72.88,38.48,47.45,58.79,91.3,181.13,50.23,258a15,15,0,1,1-26.39-14.11c34.51-64.55-5.95-174-47.12-225-19.52-24.18-34.45-30.45-41.37-28.51-4.57,1.31-8.36,26.67-10.39,40.3-9.23,61.8-24.67,165.24-174.13,202.44-19,4.75-28.88,8.84-33.82,11.5,19.58,12,88.33,27.51,149.16,35.94l125.57-31.9a15,15,0,1,1,7.37,29Z" style="fill:#000072"/><path d="M1940.06,2119.51s377.31-279.08,376.59-285.64c-12.85-117.44-83.9-393.59-289.85-518.38-104.21-63.15-254.45-85.79-410.66-50.84-266.86,59.7-386.17,210.09-428.32,334.82-90.14,266.73,3.57,650.38,161.52,762.33,5.38,3.81,568.8-236.25,568.8-236.25" style="fill:#fff"/><path d="M2316.64,1833.87c.71,6.54-376.58,285.63-376.58,285.63l-21.91,6s-563.45,240.06-568.82,236.27c-157.95-112-251.66-495.58-161.52-762.31,42.16-124.76,161.47-275.13,428.32-334.83a675.81,675.81,0,0,1,124.93-16.07c109.38-3.63,209.76,20.89,285.73,66.9,56.79,34.4,103.29,80.28,141.14,131.2l0,0C2267.5,1580.47,2307.35,1748.8,2316.64,1833.87Z" style="fill:#fff"/><g style="opacity:0.2"><path d="M2312.72,1804.86c1.67,10.49,3,20.18,3.91,29,.71,6.55-376.58,285.64-376.58,285.64l-21.92,6s-563.44,240.07-568.82,236.28c-157.94-112-251.65-495.58-161.51-762.32a427.34,427.34,0,0,1,48.79-99,400.45,400.45,0,0,0-15.52,39.13c-18.39,54.4,67.94,53.12,77.29,126.08-30.11,117.47-113,139.2-109.16,184.55,16.29,194.08,91.46,379.44,193.38,451.68,5.37,3.79,568.82-236.27,568.82-236.27l21.92-6S2217.74,1878.84,2312.72,1804.86Z" style="fill:#000072"/></g><path d="M2168,1446.72c-41.49,29.35-102.75,53.7-173,53.93-156.39.5-242.39-135.76-253.93-252.06,109.38-3.63,209.76,20.89,285.73,66.9,56.79,34.4,103.29,80.28,141.14,131.2Z" style="fill:#5f5f82"/><path d="M1348.22,2376.94c-3.4,0-5.12-1.23-7.53-2.94-78.66-55.74-145.85-179.88-179.75-332.07-35-156.92-30.32-319.94,12.7-447.25,33.64-99.54,135.43-276.67,439.23-344.63,155.41-34.77,309.09-15.58,421.69,52.64,202.07,122.45,281.74,390.48,297,529.55,1.12,10.23,1.17,10.62-64.3,60.89-31.25,24-74.87,57-129.63,98-93.2,69.81-187.7,139.72-188.64,140.42a15,15,0,0,1-17.28.37,14.93,14.93,0,0,1-7.68,7.4c-1.41.6-142.5,60.71-282.44,119.59-82.21,34.58-148,62-195.4,81.44C1376.49,2368.91,1356.91,2376.94,1348.22,2376.94ZM1761.56,1263.4a652.91,652.91,0,0,0-142.15,15.85c-289.51,64.77-385.79,231.43-417.42,325-90.38,267.49,8.33,632.92,150.38,741.19,47.69-16.74,354.89-146.31,559.9-233.67a14.94,14.94,0,0,1,14.24,1.36,15,15,0,0,1,4.65-5.67c135.12-99.94,337-250.74,369.81-279-16.48-135.43-93.14-385.79-281.92-500.18C1948.65,1285.63,1857.87,1263.4,1761.56,1263.4Z" style="fill:#000072"/><path d="M2203.34,1734.39c53.76-2.93,151.6,15.56,197.44,108.92,115.9,236-142,506.28-521.41,579.23-332.68,64-536-18.1-589.1-132-41.75-89.55-18.86-199.88,82.29-290.31,0,0,60.18-50.2,182-95,86.85-31.9,243.78-64.89,347.79-91.82,84.76-22,159.83-54.55,215.16-66.85A611.94,611.94,0,0,1,2203.34,1734.39Z" style="fill:#fcdbdb"/><path d="M2402.72,2079.24c-68.94,156.63-268.8,294.37-523.36,343.29-332.67,64-536-18.07-589.09-131.94a209.54,209.54,0,0,1-19.7-95q2.6,6.59,5.62,13c56.56,121.36,273.3,208.81,627.86,140.65C2121.88,2307.47,2302.07,2204.58,2402.72,2079.24Z" style="fill:#ffb6b8"/><path d="M2203.34,1734.39c67.21-12,141.36,11.42,186.31,64.08,44.73,53.8,61.57,128,53.15,196.7-18.84,137.08-123.87,244.33-235.6,316.16-182.23,115.74-424.58,163.32-638.37,144.23-108.94-12.21-237.83-49.85-291.18-155.17-52.64-110.28,1.38-233.23,94.91-300.12-37,40.18-67.25,85.05-81.06,137-13.81,49.45-9.21,103.78,14.24,149.34,50.67,92.67,167.67,125.21,266.57,138,205.82,20.65,443.53-27.14,618.78-138.48,104.29-66.95,204.1-167,219.66-294.81,7-60.69-8.61-124.51-44.08-174.35-38-51.14-99.14-76.65-163.33-82.57Z" style="fill:#000072"/><path d="M1281.37,1488.31c-61.09-20.91-142.8,31.56-181.68,59.23-104.8,74.57-126.92,59.34-149.64,89-20,26.11,31.44,109.16,110.2,135.76,79.06,26.71,171.59-2.72,241.44-111.7" style="fill:#fff"/><path d="M1279,1495.38c-63-12.67-133.58,38.82-182.81,73.78-29.81,20.6-61.61,39.49-95.25,53.4-15.23,7-30.61,10.39-39.57,24.37-2.24,10.81,3.45,21.94,8.72,32.21,15.68,27.81,41.48,51.24,69.66,66.35,58.35,32.37,131.1,23.16,184.92-14.5,28.48-18.67,53.39-43.55,77.07-70.39-22.09,49.23-60.34,94.9-110.51,118.88-71.24,35.74-158.14,16.22-212.82-40-23.69-24.71-48.27-55.38-47.44-92.12,2-29.22,34.9-43.49,57.89-52.81,31.43-13.68,60.77-31.55,89.55-51.27,29.6-20.49,60.62-41.07,94.33-54.35,25.83-10.33,54.6-17.9,83-14.88a93.86,93.86,0,0,1,28.11,7.18,7.51,7.51,0,0,1-4.84,14.15Z" style="fill:#000072"/><g style="opacity:0.2"><path d="M1016.38,1681.68c44.13,25.43,109.35-37.65,143.42-64.39,50-39.21,102.31-24.3,99.52,48.47,0,0-32.32,68-124.51,72C1047.91,1741.56,1016.38,1681.68,1016.38,1681.68Z" style="fill:#000072"/></g><path d="M1016.38,1681.68c26,8.92,49.5-6,70-20.15,20.8-14.93,39.63-32.63,60.15-50,10.66-9.22,23.46-18,37.25-22.9,31.7-12.57,68.92,0,77,35.33,3.57,14.49,2.21,28.72-1.53,41.82-3-13.31-6.29-26.11-12.27-36.52-19-35.92-60.16-18.34-84.39,2.14-20.53,16.15-42.05,33.25-66.66,45.95-23.21,12.05-57.11,22.89-79.62,4.35Z" style="fill:#000072"/><path d="M2111.22,1780.48c7.24,3.89,12.82,18.72.76,29.92s-39,12.81-39,12.81a52.8,52.8,0,0,1,6.73-29.67C2086.59,1781.21,2102.23,1775.64,2111.22,1780.48Z" style="fill:#f48990"/><path d="M1686.46,1899.58c-3.13,7.61,2,22.62,18.36,23.6s38.23-14.94,38.23-14.94a52.55,52.55,0,0,0-24-18.62C1705.94,1884.46,1690.33,1890.12,1686.46,1899.58Z" style="fill:#f48990"/><ellipse cx="1607.34" cy="1752.02" rx="104.35" ry="120.75" transform="translate(-441.51 545.65) rotate(-16.98)" style="fill:#000072"/><ellipse cx="1644.03" cy="1740.6" rx="34.02" ry="43.16" transform="matrix(0.96, -0.29, 0.29, 0.96, -438.77, 559.73)" style="fill:#fff"/><g style="opacity:0.2"><ellipse cx="1576.93" cy="1800.92" rx="18.84" ry="29.21" transform="matrix(0.96, -0.3, 0.3, 0.96, -461.1, 545.35)" style="fill:#fff"/></g><ellipse cx="2066.15" cy="1636.24" rx="94.66" ry="109.53" transform="translate(-387.71 674.57) rotate(-16.98)" style="fill:#000072"/><ellipse cx="2099.43" cy="1625.87" rx="30.86" ry="39.15" transform="translate(-384.97 688.43) rotate(-17.08)" style="fill:#fff"/><g style="opacity:0.2"><ellipse cx="2038.57" cy="1680.6" rx="17.09" ry="26.49" transform="translate(-405.06 676.19) rotate(-17.16)" style="fill:#fff"/></g><path d="M1719.72,2248.17c-76.58-16.33-135.41-76.53-101.69-144.65,42.9-71.38,105.89-13.19,225.78-35.12,71.25-13,92.77-42.41,126.66-21.19,31,19.37,39.89,85-2.67,133.81C1918.28,2237.83,1814,2268.29,1719.72,2248.17Z" style="fill:#5e3519"/><path d="M1714.26,2246.93c1.81.42,3.62.85,5.47,1.23,68.59,14.63,142.4,2.54,196.64-27,20.33-11.08,37.94-24.6,51.45-40.12,42.52-48.8,33.58-114.43,2.65-133.79-15.46-9.7-28.37-8.86-44.61-3.83-19.32,6-43.33,17.94-82.06,25-61.41,11.25-107.9,1.44-144.41-1.16-34.76-2.53-60.44,1.47-81.34,36.29C1585.09,2170,1640.35,2228.93,1714.26,2246.93Z" style="fill:#000072"/><path d="M1858.9,2112.87c57.69-14.88,67.86-43.54,67-69.48-19.32,6-43.33,17.94-82.06,25-61.41,11.25-107.9,1.44-144.41-1.16,2.63,29.49,12.58,43.23,28,48.64,9.54,3.34,20.75,4.7,25.8,5.25C1781.26,2126.11,1818.16,2123.35,1858.9,2112.87Z" style="fill:#fff"/><path d="M1714.26,2246.93c1.81.42,3.62.85,5.47,1.23,68.59,14.63,142.4,2.54,196.64-27-25.82-30.29-74.8-43.15-116.52-20.48-35.69-15-69.48,4.69-82.67,39.42C1716.07,2242.45,1715.14,2244.73,1714.26,2246.93Z" style="fill:#f28475"/><path d="M1806.2,2170s-33.6,24.37-22.85,26.12c12.72,2.08,35.44,13.07,40.84,26.11C1824.19,2222.2,1825.28,2192.08,1806.2,2170Z" style="fill:#000072"/><path d="M1779.87,2265.61a300.08,300.08,0,0,1-62.49-6.46c-51.65-11-93.14-39.62-111-76.53-12.94-26.77-12.4-55.84,1.58-84.08l.44-.8c29.28-48.72,67.92-44.58,116.82-39.31,31.07,3.33,69.77,7.49,116.56-1.07,26.61-4.87,46.28-12.19,62.09-18.07,26.31-9.79,47.08-17.54,72.55-1.59,15.82,9.9,26.9,29.07,30.38,52.59,5,33.74-6.41,70.42-30.55,98.11C1934,2236.86,1857.52,2265.61,1779.87,2265.61Zm-152-156.7c-10.75,22-11.19,43.48-1.29,63.94,14.63,30.25,51.21,54.91,95.46,64.35h0c87.42,18.64,189.43-8.68,237.28-63.55,19.88-22.81,29.33-52.74,25.27-80.07-2.49-16.76-10-30.54-20.09-36.86-15.32-9.58-25.53-6.55-52.81,3.6-16.63,6.19-37.33,13.9-65.87,19.12-50,9.14-90.48,4.8-123,1.31C1675.73,2075.67,1649.73,2072.89,1627.89,2108.91Z" style="fill:#000072"/><path d="M964.69,3218.22c-11.65,58-62.2,100.93-123.12,88.94l7.86-28.88c48.43,20.34,97.34-14.67,115.26-60.06Z" style="fill:#000072"/><path d="M688.42,2981.35c-12.46,82.12-72.52,111.75-144,67.33l17.33-24.4c10.79,9,22.43,17.06,35,21.76,44.22,18.73,80.79-25.23,91.7-64.69Z" style="fill:#000072"/><path d="M523.9,2415.39c-7.77-40.85,10.52-85.16,45.33-108.67,3.13-2.82,12-7.31,15.6-9.61s7.28-3.56,11-5.23c10.68-5.07,23.1-8.47,34.42-11.78l4.82,29.53-20.94,2.69L604,2314.79c-47.79,10.75-80.41,49.74-80.06,100.6Z" style="fill:#000072"/></svg>