<svg id="Layer_1" data-name="Layer 1" xmlns="http://www.w3.org/2000/svg" viewBox="0 0 4000 4000"><path d="M2900.38,1239.59s4.24,29.33-.33,46.22c-2.75,10.14-9.18,19.82-19.25,27.66-26.86,20.92-69.47,20.89-95.18-.07-10.76-8.77-16.85-19.83-18.32-31.25-2-15.85-1.15-48.56-1.15-48.56S2874.68,1218.63,2900.38,1239.59Z" style="fill:#fff"/><path d="M2554.22,1389.51s-54.45-55.32-51.39-66.74c4.38-16.34,270.54-237.4,296.3-248.7,14.48-6.35,53.7,56.85,53.7,56.85l-55.5,127.41Z" style="fill:#33c1ff"/><g style="opacity:0.4"><path d="M2840.46,1112.45c-9.42-10.9-18.91-19-24.55-16.54-25.75,11.25-291.89,232.34-296.28,248.69-.68,2.47,1.45,7.16,5.17,12.83-12.26-14.4-23.42-29.33-22-34.66,4.39-16.34,270.56-237.39,296.28-248.69C2808.38,1070,2827.7,1094.36,2840.46,1112.45Z" style="fill:#fff"/></g><path d="M2554.22,1400.74a11.2,11.2,0,0,1-8-3.36c-58.95-59.9-55.64-72.24-54.23-77.52,1.13-4.18,4.1-15.28,143.78-131.94,51-42.59,141.83-116.67,158.85-124.13,5.8-2.54,23.4-10.24,67.75,61.21a11.21,11.21,0,0,1,.75,10.4l-55.5,127.41a11.2,11.2,0,0,1-5,5.39l-243.11,131.19A11.28,11.28,0,0,1,2554.22,1400.74Zm-39.53-75.65c4.36,8.94,23.2,31.18,41.67,50.51l232.23-125.31,51.58-118.4c-14.51-22.49-31.21-42.81-38.37-46.62C2769,1103.47,2539.42,1295.37,2514.69,1325.09Z" style="fill:#000072"/><polygon points="3004.98 1240.43 2506.16 1594.13 2554.22 1389.51 2807.88 1214.02 3004.98 1240.43" style="fill:#3395ff"/><path d="M2506.16,1605.36a11.22,11.22,0,0,1-10.93-13.79L2543.29,1387a11.3,11.3,0,0,1,4.54-6.67l253.66-175.49a11.23,11.23,0,0,1,7.88-1.89l197.1,26.4a11.22,11.22,0,0,1,5,20.28l-498.82,353.71A11.2,11.2,0,0,1,2506.16,1605.36Zm58-209.07-40.29,171.53,451.36-320-164.54-22Z" style="fill:#000072"/><path d="M3362.89,1659.43c-118.33,167.16-256.1,285-256.1,285l-600.63-350.34,282.78-288.41,256.51-96.6S3230.32,1449.22,3362.89,1659.43Z" style="fill:#33c1ff"/><path d="M3045.46,1209.12s112.31,145.86,224.61,309.74c31.79,46.41,63.55,94.2,92.8,140.57-118.33,167.18-256.09,285-256.09,285l-146.29-85.33-454.32-265,282.76-288.39Z" style="fill:#33c1ff"/><path d="M3045.46,1209.12s112.31,145.86,224.61,309.74c31.79,46.41,63.55,94.2,92.8,140.57-118.33,167.18-256.09,285-256.09,285l-146.29-85.33-454.32-265,282.76-288.39Z" style="fill:#33c1ff"/><path d="M3045.46,1209.12s112.31,145.86,224.61,309.74c31.79,46.41,63.55,94.2,92.8,140.57-118.33,167.18-256.09,285-256.09,285l-146.29-85.33-454.32-265,282.76-288.39,54.07-20.35Z" style="fill:#33c1ff"/><polygon points="2843 1285.39 2762.66 1497.54 2506.17 1594.13 2788.93 1305.74 2843 1285.39" style="fill:#3395ff"/><path d="M3269.94,1518.7l.13.16c31.79,46.41,63.55,94.2,92.8,140.57-118.33,167.18-256.09,285-256.09,285l-146.29-85.33c46.7-71.51,28.36-158.4,61.42-201.25,43-55.72,97.23-8.07,134.58-37,41.81-32.35,42.34-108.08-2-125.57-33.24-13.12-90.25,50.18-110.64,24.42-28.22-35.64,25.66-90.68,81.47-88.16C3193.91,1434.71,3230.14,1474.22,3269.94,1518.7Z" style="fill:#fff"/><path d="M3103.5,1528.87c-9.51,15.66-5,37.38,12.07,35.06,15-2,9.85-18.51,15-31.49,9.52-23.81,24.1-26.28,23.6-27.7C3152.65,1500.28,3118.81,1503.68,3103.5,1528.87Z" style="fill:#fff"/><path d="M3129.59,1400.1c-9.47-19.55-24.72-15.95-24-2.22.57,10.5,10.78,19,21.68,23.18,7.19,2.76,21.66,4.21,21.66,4.21A77.16,77.16,0,0,1,3129.59,1400.1Z" style="fill:#fff"/><path d="M3106.79,1955.7a11.26,11.26,0,0,1-5.65-1.53L2500.5,1603.83a11.21,11.21,0,0,1-2.35-17.55l282.78-288.41a11.21,11.21,0,0,1,4.06-2.65l256.5-96.61a11.23,11.23,0,0,1,12.85,3.66c1.85,2.4,186.71,242.93,318,451.17a11.22,11.22,0,0,1-.33,12.47c-117.77,166.38-256.57,285.9-258,287.09A11.22,11.22,0,0,1,3106.79,1955.7Zm-582.53-364,581.2,339c27.23-24.23,142.64-130.17,243.92-271.65-118.24-186.53-277.56-396.89-307.78-436.49l-246.38,92.79Z" style="fill:#000072"/><path d="M3106.79,1944.47s-211.45,98.42-248.81,83.09c-185.48-203.86-351.82-433.43-351.82-433.43s197.22-68.91,256.5-96.6C2884.37,1637.63,3106.79,1944.47,3106.79,1944.47Z" style="fill:#33c1ff"/><path d="M3106.78,1944.47s-211.43,98.43-248.81,83.08c-111.39-122.44-215.9-254.15-281.61-339.82-43.66-57-70.19-93.6-70.19-93.6s197.22-68.91,256.49-96.59c19.52,22.51,41.63,49.29,65,78.43C2950,1728.25,3106.78,1944.47,3106.78,1944.47Z" style="fill:#3395ff"/><path d="M3028,1923.46c-59.14,25.25-118.48,47.22-147.29,53-101.65-113.07-196.9-232.92-259.28-314.11,49.12-29.54,89-57.78,149.76-74.85C2858.59,1694.67,2970.7,1845.48,3028,1923.46Z" style="fill:#b6cedd"/><path d="M3028,1923.46c-59.15,25.22-118.47,47.23-147.27,53-121.66-135.37-234.16-280.38-292.17-357.23,48.58-17.45,113.89-41.36,159.54-59.82C2837.73,1666.68,2965.48,1838.41,3028,1923.46Z" style="fill:#d2efff"/><path d="M2867.55,2040.07c-5.6,0-10.27-.67-13.82-2.13a11.14,11.14,0,0,1-4.05-2.82c-183.78-202-350.94-432.1-352.61-434.4a11.22,11.22,0,0,1,5.39-17.18c2-.69,197.36-69,255.45-96.18a11.22,11.22,0,0,1,13.22,2.81c120.64,138.86,342.52,444.64,344.75,447.72a11.22,11.22,0,0,1-4.35,16.76C3078.69,1969.93,2924.83,2040.07,2867.55,2040.07Zm-3.3-22.29c24.24,5,129.67-34,225.41-77.77-40.28-55.23-222.22-303.42-330-428.79-56.25,24.87-191,72.79-235.49,88.49C2560.94,1649.58,2706.25,1843.82,2864.25,2017.78Z" style="fill:#000072"/><polygon points="3045.45 1209.12 2762.66 1497.53 2554.22 1389.51 2852.83 1130.91 3045.45 1209.12" style="fill:#33c1ff"/><polygon points="3045.46 1209.12 2975.6 1280.33 2877.35 1380.57 2762.66 1497.54 2554.2 1389.5 2852.81 1130.92 3045.46 1209.12" style="fill:#33c1ff"/><polygon points="3045.46 1209.12 3033.05 1221.76 2980.8 1275.01 2975.6 1280.33 2877.35 1380.57 2855.12 1403.28 2776.37 1483.57 2762.66 1497.54 2554.2 1389.5 2635.34 1319.27 2706.97 1257.24 2841.82 1140.46 2852.81 1130.92 3022.88 1199.92 3045.46 1209.12" style="fill:#33c1ff"/><path d="M2762.66,1508.75a11.14,11.14,0,0,1-5.16-1.26l-208.44-108a11.23,11.23,0,0,1-2.19-18.45l298.61-258.6a11.24,11.24,0,0,1,11.58-1.91l192.61,78.2a11.22,11.22,0,0,1,3.79,18.25l-282.79,288.42A11.21,11.21,0,0,1,2762.66,1508.75Zm-188.58-121.59,186.38,96.59,265.25-270.54L2855,1143.9Z" style="fill:#000072"/><path d="M2890.91,1478.48c-.93-.92-1.66-1.17-2.2-.75a2.22,2.22,0,0,0-.25,2,60.45,60.45,0,0,0,5.74,17.68q3.9,7.54.77,11.88a12.13,12.13,0,0,1-1.2,1.37q-3.92,3.73-11,.89c-.81-.34-2.07-.93-3.79-1.76s-2.91-1.31-3.72-1.66l-14.12-6.53a1.68,1.68,0,0,0-2-.08q-1.2,1.38.74,3.25,12.39,11.2,18,17.21l4.06,4.61a36.93,36.93,0,0,1,5.38,9.89q3.22,10.65-2.48,17.72a14,14,0,0,1-1.2,1.38,13.61,13.61,0,0,1-12.72,3.86q-7.85-1.55-14.5-10.15a111.13,111.13,0,0,1-8.23-12.94q-1.53-2.61-4.64-7.67-11.34-18.84-15.06-29.51c-.35-1.15-.71-2.24-1.08-3.26q-3.71-12.77,2.33-19,4.83-4.64,12.47-2.73,4.26,1.13,12.77,6.67l20.82,13.71c1.46.63,2.58.61,3.36,0s.84-2,.48-3.77l-8.16-21.85q-4.4-11.73-3.35-19.19a7.84,7.84,0,0,1,.35-1.21,19.1,19.1,0,0,1,5.28-10.13q8.77-8.76,22.24.69c.59.34,1.12.68,1.59,1a190.37,190.37,0,0,1,33.55,32l1.74,2.25a44.33,44.33,0,0,1,6.91,11.65q3.38,9.81-.67,17.14a26.1,26.1,0,0,1-2.64,3.5q-6.77,6.74-15.56,2.7c-.75-.41-1.52-.85-2.32-1.33a55.8,55.8,0,0,1-7.35-6.35Q2904.09,1494.28,2890.91,1478.48Zm-46.46,3.38a7.74,7.74,0,0,0-7-3.22,6.78,6.78,0,0,0-3.49,1.57q-1.58,1.93-.38,3.68a4.17,4.17,0,0,0,1.36.72,19.2,19.2,0,0,0,8,.13,7.28,7.28,0,0,0,1.3-.42l.54-.55a1.15,1.15,0,0,0,.12-1.32Zm45.86-38.47a7.75,7.75,0,0,0-7-3.22,6.63,6.63,0,0,0-3.48,1.57,2.82,2.82,0,0,0-.39,3.68,7,7,0,0,0,1.37.72,19.37,19.37,0,0,0,8,.13,7.44,7.44,0,0,0,1.29-.43l.55-.54a1.16,1.16,0,0,0,.11-1.33Z" style="fill:#fff"/><path d="M2955.86,1442.28q7.36,12.24,9.65,17.92,1.95,5.86-1.72,9.7-4.93,4.92-12.53-.5c-.58-.46-1.26-1-2.05-1.6q-4-3.29-12-9.48t-12-9.48q-10.42-8.65-15.42-15.12-9.22-12.1-4.65-23.79a18.6,18.6,0,0,1,4-6.1,14.82,14.82,0,0,1,12.76-4.23q7.13.86,12.73,8.09a93.6,93.6,0,0,1,5.81,8.76Q2945.62,1425.29,2955.86,1442.28ZM2930,1412l-1-1.27a16.17,16.17,0,0,0-8.25-5.64,5.41,5.41,0,0,0-4.27,1q-1.29,1.47-.78,2.34l.38.49c.51.53,1.67.76,3.46.71a5.7,5.7,0,0,1,.92-.06c1.06.1,2.87,1.19,5.44,3.25a11.71,11.71,0,0,0,.93.79,3.28,3.28,0,0,0,2.68.11l.46-.46A1.12,1.12,0,0,0,2930,1412Z" style="fill:#fff"/><path d="M3015.16,1390.21q6.12-6.11,12.73-4.9a10.91,10.91,0,0,1,6.22,3.85q3.84,5.17,1.87,13.72a57,57,0,0,1-5.58,12.68q-8.45,15-14.09,21.34c-.86,1-1.72,1.89-2.57,2.74q-10.32,10.13-20.51,9.71-7.33-.48-16.14-7.46-11.48-9.18-23.81-25.12-2.79-3.62-7.84-10.55-8.11-11.31-10.05-18.22l-.12-.57q-2.47-9.67,1.43-17.2a17.59,17.59,0,0,1,3.21-4.42q6.68-6.66,16.46-3.43a29.69,29.69,0,0,1,4.13,1.78,37.25,37.25,0,0,1,10.42,9.7q.39.5,5,7.12,17.45,26.1,25,43.84a5,5,0,0,0,.67,1.07c.36.33.69.41,1,.23a3.68,3.68,0,0,0,.69-1.2c.31-1.7.77-4.3,1.4-7.82q2.22-13.47,5.24-19.61a16.56,16.56,0,0,1,1.37-2.41A26.75,26.75,0,0,1,3015.16,1390.21ZM2963,1377.62a1.44,1.44,0,0,0,0-1.42l-.23-.29a1.94,1.94,0,0,0-.21-.48l-.75-1q-5.39-6.95-11.88-6.35a.61.61,0,0,0-.43.08,4.26,4.26,0,0,0-2.44,1.23,2.37,2.37,0,0,0-.09,3c.57.47,2,.71,4.13.73a4.89,4.89,0,0,0,.91.13,8,8,0,0,1,3.26,1.08,18.86,18.86,0,0,1,2,1.79c2.36,1.93,4.1,2.56,5.21,1.91Zm66.45,19.32a1.49,1.49,0,0,0,.12-1.51l-.45-.59q-2.66-3.42-6.51-2.34a5.1,5.1,0,0,0-1.4.7c-1.2,1-1.61,1.9-1.24,2.79l.53.69q1.73,1.39,6.7,1.12a.6.6,0,0,0,.42-.08,4.22,4.22,0,0,0,1.29-.42.84.84,0,0,1,.27-.18A1.26,1.26,0,0,0,3029.44,1396.94Z" style="fill:#fff"/><path d="M3098.53,1330.94q4.08,5.28,1.21,11.62a20,20,0,0,1-2.94,4.14c-.9.79-1.57,1.4-2,1.82q-6.69,4.77-18.9,4.47c-.71-.09-1.74-.17-3.08-.22q-12.12-.39-22.67-1.46a1.91,1.91,0,0,0-.75-.13l-.67,0q6.77,11.46,10.63,18.34,6,11.52.6,17.09a9.09,9.09,0,0,1-8.58,2.32q-2.86-.78-8.12-5.07-4.32-3.48-13.22-10.38-19.38-15-27.86-23.85-3.61-3.84-5.21-5.9a33.59,33.59,0,0,1-6.13-11.9,23.14,23.14,0,0,1,1-15.6,20.36,20.36,0,0,1,4.32-6.56,16.58,16.58,0,0,1,16.07-4.77,20,20,0,0,1,5.76,2.22,31.84,31.84,0,0,1,8.47,8c.86,1.11,2,2.77,3.53,5q-1.24-16.26,6.37-36.35a21.2,21.2,0,0,1,4.32-7.6l.37-.36c1.94-2,4-2.59,6.27-1.93a5,5,0,0,1,2.21,1.6q2.34,3.22.55,10.54-.75,3-5.77,19.12-4.7,15.08-4.57,24.66a4.91,4.91,0,0,0,.64,2.48,2.13,2.13,0,0,0,2.3.48q3.09-.84,9.2-2.77,8.45-2.7,12.62-3.58a68.57,68.57,0,0,1,22.15-1.3Q3094.8,1326.33,3098.53,1330.94Zm-78.15-10.58a1.44,1.44,0,0,0,0-1.42l-.23-.29a2.32,2.32,0,0,0-.21-.49l-.76-1q-5.37-6.95-11.87-6.35a.64.64,0,0,0-.43.07,4.4,4.4,0,0,0-2.45,1.24,2.38,2.38,0,0,0-.08,3c.58.46,1.95.71,4.13.73a4.63,4.63,0,0,1,.82.22,10,10,0,0,1,3.35,1,17.61,17.61,0,0,1,2,1.78c2.3,2,4,2.66,5.12,2Zm72,16a1.82,1.82,0,0,0,0-1.6l-.46-.59q-2.11-2.75-6.84-3.4-3.89-.63-5.79,1.1a2.22,2.22,0,0,0,.18,2.94,6.27,6.27,0,0,0,3.78.91,14.45,14.45,0,0,1,2.39.38,6.12,6.12,0,0,1,1.65.44q3.18,1,4.58.28Zm-46.55-54.07a3.46,3.46,0,0,0,.65-3.77q-1.61-1.86-5,.28a.87.87,0,0,1-.35.17l-.27.28a2.57,2.57,0,0,0-.19,3.31,3.57,3.57,0,0,0,4.06.45A3.47,3.47,0,0,0,3045.83,1282.31Z" style="fill:#fff"/><path d="M2879.4,1258.39s25.3,3.92,26.95,22.91c1,11.32-14.81,47.28-22.13,59-15.72,25.25-46.84,40.45-76.09,39.41a72.25,72.25,0,0,1-21-3.77c-14.23-4.9-24.57-13.92-30.34-25-8-15.42-7.75-40.63,4.9-72.22,3.75-9.36,7.35,2.35,10.65,6.09C2806.14,1269.5,2858.1,1251.06,2879.4,1258.39Z" style="fill:#3395ff"/><path d="M2900.37,1239.57s4.25,29.33-.33,46.28c-2.75,10.09-9.17,19.78-19.21,27.62-21.59,16.83-53.31,20.08-78.27,9.88a66.54,66.54,0,0,1-16.95-9.93c-10.75-8.77-16.84-19.85-18.32-31.26-2-15.86-1.12-48.59-1.12-48.59s15.17-2.1,35.48-3.64C2835.72,1227.39,2884.27,1226.46,2900.37,1239.57Z" style="fill:#fff"/><path d="M2900.37,1239.57s4.25,29.33-.33,46.28c-2.75,10.09-9.17,19.78-19.21,27.62-21.59,16.83-53.31,20.08-78.27,9.88l-.91-93.42C2835.72,1227.39,2884.27,1226.46,2900.37,1239.57Z" style="fill:#d3e5ed"/><path d="M2832.84,1334.65c-18.54,0-37-5.63-50.76-16.9-11.59-9.44-18.62-21.51-20.35-34.88-2.07-16.1-1.22-48.08-1.19-49.44a5.62,5.62,0,0,1,4.85-5.4c11.35-1.57,111.71-14.66,138.53,7.21a5.6,5.6,0,0,1,2,3.55c.18,1.24,4.36,30.68-.47,48.49-3.16,11.68-10.49,22.27-21.21,30.61C2869.9,1329.07,2851.3,1334.65,2832.84,1334.65Zm-61.17-96.13c-.16,9.59-.31,31.23,1.2,42.91,1.34,10.48,7,20,16.3,27.63,23.75,19.35,63.31,19.36,88.18,0,8.78-6.84,14.76-15.38,17.28-24.69,3.52-13,1.34-34.59.49-41.65C2874.1,1229.12,2803.36,1234.55,2771.67,1238.52Z" style="fill:#000072"/><ellipse cx="2833.3" cy="1236.21" rx="67.34" ry="53.58" transform="translate(-53.97 131.91) rotate(-2.64)" style="fill:#fff"/><ellipse cx="2839.35" cy="1229.61" rx="42.31" ry="33.66" transform="translate(-53.66 132.18) rotate(-2.64)" style="fill:#d3e5ed"/><path d="M2838.45,1274.56c-13.33,0-26.57-4.15-36.76-12.45-10.37-8.46-16-19.9-15.86-32.21.14-12.47,6.48-24.49,17.38-33,21.09-16.43,53.5-16.35,73.79.19,10.36,8.46,16,19.89,15.86,32.21-.13,12.47-6.47,24.49-17.38,33C2865,1270.48,2851.67,1274.56,2838.45,1274.56Zm1.81-67.41c-8.38,0-16.86,2.49-23.26,7.48-5.56,4.33-8.66,9.84-8.73,15.52-.06,5.34,2.64,10.51,7.6,14.56,12.1,9.86,33.08,9.81,45.82-.12,5.57-4.33,8.67-9.84,8.73-15.53.06-5.34-2.64-10.5-7.6-14.55h0C2856.8,1209.6,2848.57,1207.15,2840.26,1207.15Z" style="fill:#000072"/><path d="M2850.68,1287.71c-28.28,10.57-64.86,3.33-82.76-23.33-19.79-29.52.43-67.23,30.36-79.51,28.5-13,63.65-10,88.39,9.88,19.9,14.49,25.24,45,10,64.63a52.66,52.66,0,0,1-16.83,14.78c10-10.7,16.33-24.05,15.9-37.09-.91-27.42-27.11-46.53-53.17-48.41-25.81-2.78-56.64,8.44-67.46,33.1-16.64,43.88,38.13,71,75.57,66Z" style="fill:#000072"/><path d="M3596.55,967.58c-92.77,27.54-175.66-7.57-227.45-19.11-97.27-21.66-151.4,19.59-177.64,54.6-30.26,40.29-34.89,88.4.22,118.07,29.48,24.94,63.22,26.89,97.86,58.59,27.67,25.31,17.66,115.29-57,126.8-152.37,23.51-138-173.54-192.26-199.89-64.18-31.2-137.38,70.32-153.1,100.6a71.94,71.94,0,0,0-3.41,7.71,39.94,39.94,0,0,0-2.11,14c0,8.85-4.39,17.76-13.07,24.49-14.5,11.26-36.21,12.88-52.29,4.8v0c-8.51-14.42-9.87-32.24-6.52-52.17,13.4-79.18,98.17-183.83,109.45-254.61,10.73-67.32,2-128.2-139.82-163.22-52.76-13-102.72-10.25-122.69-55.16-11.06-24.88-7.83-68.79,13.78-101.21,59.35-89,138.47-83.94,216.31-94.93,81.34-11.48,89.17-102,179.34-157C3111.9,352,3180.79,368.13,3162,438c-11.91,44.35-15.57,104.63,30.21,120.45,39.2,13.55,91.7-46.9,142.68,1.7,75.17,71.65-42.45,262.12,102.5,276.68C3508,844,3524.09,766.5,3566,722.37c48.82-51.44,126.34-34.94,149.79,36.2C3743.3,842.13,3691.32,939.44,3596.55,967.58Z" style="fill:#fff"/><path d="M3596.53,967.58c-92.75,27.54-175.64-7.57-227.44-19.11-97.27-21.67-151.39,19.58-177.64,54.61-30.26,40.26-34.9,88.41.23,118,29.48,24.94,63.24,26.91,97.87,58.59,27.66,25.33,17.64,115.32-57,126.83-152.37,23.48-138-173.56-192.27-199.92-28.61-13.91-59-1.42-85.28,19.31-32.7,25.84-59.07,64.5-67.8,81.32a75.81,75.81,0,0,0-3.42,7.68,40.39,40.39,0,0,0-2.08,14c0,8.82-4.4,17.77-13.09,24.47-14.5,11.26-36.19,12.88-52.31,4.8v0c-8.49-14.42-9.86-32.23-6.48-52.16.12-.75.23-1.46.39-2.21,14.54-78.88,97.86-182.3,109-252.4,10.73-67.33,2-128.21-139.79-163.23-52.78-13-102.74-10.25-122.7-55.16-11.05-24.87-7.82-68.8,13.79-101.18,59.35-89.05,138.46-84,216.32-95,81.32-11.46,89.14-102.05,179.33-157C3111.9,352,3180.8,368.14,3162,438c-11.91,44.36-15.56,104.6,30.22,120.44,39.19,13.56,91.7-46.88,142.67,1.7,75.19,71.67-42.45,262.13,102.5,276.67,70.59,7.09,86.7-70.33,128.56-114.46,48.81-51.46,126.35-34.95,149.78,36.17C3743.29,842.13,3691.33,939.44,3596.53,967.58Z" style="fill:#fff"/><path d="M3596.53,967.58c-92.75,27.54-175.64-7.57-227.44-19.11-97.27-21.67-151.39,19.58-177.64,54.61-30.26,40.26-34.9,88.41.23,118,29.48,24.94,63.24,26.91,97.87,58.59,27.66,25.33,17.64,115.32-57,126.83-152.37,23.48-138-173.56-192.27-199.92-28.61-13.91-59-1.42-85.28,19.31-32.7,25.84-59.07,64.5-67.8,81.32a75.81,75.81,0,0,0-3.42,7.68,40.39,40.39,0,0,0-2.08,14c0,8.82-4.4,17.77-13.09,24.47-14.5,11.26-36.19,12.88-52.31,4.8v0c-8.49-14.42-9.86-32.23-6.48-52.16.12-.75.23-1.46.39-2.21,11.83-64.1,69.05-144.4,96.05-209.85,0,0,0,0,0-.07,6.21-15.09,10.85-29.36,12.93-42.48,10.73-67.33,2-128.21-139.79-163.23-52.78-13-102.74-10.25-122.7-55.16-5.5-12.38-7.47-29.44-5.39-47.48,2.09-18.24,8.3-37.43,19.18-53.7,59.35-89.05,138.46-84,216.32-95,81.32-11.46,89.14-102.05,179.33-157C3111.9,352,3180.8,368.14,3162,438c-11.91,44.36-15.56,104.6,30.22,120.44,39.19,13.56,91.7-46.88,142.67,1.7,75.19,71.67-42.45,262.13,102.5,276.67,70.59,7.09,86.7-70.33,128.56-114.46,48.81-51.46,126.35-34.95,149.78,36.17C3743.29,842.13,3691.33,939.44,3596.53,967.58Z" style="fill:#fff"/><path d="M2937.4,932.08c5.19-64.11-17.17-125.34-154.22-159.18-12.26-3-24.09-5.2-35.57-7.25-41.15-7.53-65-13-76.56-39a42.72,42.72,0,0,1-2-5.43c9.35,9.57,23.07,18,42.88,23.79C2791.47,768,3015.57,739,2937.4,932.08Z" style="fill:#ffedd7"/><path d="M2955,1125.93c-32.7,25.84-59.07,64.5-67.8,81.32a75.81,75.81,0,0,0-3.42,7.68,40.39,40.39,0,0,0-2.08,14c0,8.82-4.4,17.77-13.09,24.47-14.5,11.26-36.19,12.88-52.31,4.8v0c-8.49-14.42-9.86-32.23-6.48-52.16.12-.75.23-1.46.39-2.21,4.17,10.25,14.68,26.13,35.18,16.55,29.71-13.89,26.27-60.4,71-95.55C2949,1099.15,2965.31,1107.09,2955,1125.93Z" style="fill:#ffedd7"/><path d="M3185.55,1236.8c58.4,24,67.72-47.58,82.79-33.79,2.66,2.89,6.95,19.11.35,38.06-4.69,13.5-15.61,30.41-40.94,34.31a127.09,127.09,0,0,1-19.33,1.58h0c-54.26,0-73.71-43-97.2-108.67-13.86-38.72-26.95-75.3-57.22-90C3122.92,1097.67,3123.65,1211.39,3185.55,1236.8Z" style="fill:#ffedd7"/><path d="M3629.34,814.23c8.84-36.88,17.43-55.48,33.75-60,9.44-2.63,18.72,1.85,22.81,14.26,10.22,31,6.88,65.26-9.39,96.45-18.08,34.64-50.47,61.05-88.89,72.45a220.41,220.41,0,0,1-63.62,9c-42.47,0-82.42-11.06-114.53-19.94-11.89-3.29-23.13-6.4-33.54-8.72a269.25,269.25,0,0,0-58.32-6.76c-34.62,0-62.93,7.81-85.7,18.9,0,0,48.3-46,144.59-33.85C3470.67,907.87,3596.75,950.16,3629.34,814.23Z" style="fill:#ffedd7"/><path d="M3208.17,1319.72c-88.08,0-116.14-78.41-137.11-137-10.84-30.29-21.08-58.89-35.7-66-53.31-25.91-120.93,62.35-138.23,95.68a60.24,60.24,0,0,0-2.86,6.48,28.43,28.43,0,0,0-1.39,10.07c0,12.62-6.36,24.77-17.42,33.35-17.6,13.65-44,16.1-64.21,6l-6.19-3.11v-4.05c-8.12-15.42-10.2-34.09-6.36-56.94,7.16-42.28,33.15-90.34,58.28-136.82,23.63-43.69,45.95-85,51.16-117.7,9.54-59.88,6.67-116.45-131.43-150.55-11.46-2.83-22.91-4.92-34-6.94-40.29-7.34-78.35-14.27-96.27-54.56-13.68-30.76-7.36-78.91,14.69-112,53.69-80.53,123.36-88.28,190.74-95.77,11-1.22,22.29-2.48,33.35-4,40-5.65,60.24-32.74,85.84-67,21.89-29.31,46.69-62.53,89.22-88.45,30.68-18.71,70.18-19.38,93.92-1.6,11.83,8.86,30,30,18.64,72.23-7.32,27.24-19.71,92.16,23,106.94,11.63,4,27.23-1.36,43.74-7.07,29.84-10.29,67-23.12,103,11.25,35.62,34,32.66,88.64,29.8,141.52-4.18,77.38-3.22,125.15,66.08,132.11,42.29,4.29,62-27.07,84.76-63.33,10.36-16.49,21.08-33.55,34.52-47.71,25.67-27.06,60.95-38.74,94.42-31.23,34.69,7.77,61.73,33.88,74.17,71.63,13.89,42.14,9.57,88.24-12.18,129.81-23.4,44.75-65.13,78.82-114.49,93.48h0c-78.58,23.32-149.7,3.65-201.63-10.72-11.36-3.15-22.09-6.11-31.45-8.2-95.8-21.33-145.26,22.41-166.22,50.38-22.06,29.37-35.68,73.9-1.52,102.77,12.37,10.46,26,16.69,40.44,23.29,17.68,8.09,37.73,17.26,57.75,35.59,17.2,15.72,22.63,48.45,13.21,79.57-11.07,36.58-38.81,60.86-76.08,66.61A171.49,171.49,0,0,1,3208.17,1319.72Zm-193.45-230.27a69,69,0,0,1,30.46,7.09c22.84,11.11,34,42.39,47,78.61,22.52,62.94,48,134.28,138.63,120.29,40.33-6.21,54-37.68,58-50.92,7.45-24.62,2.35-48.07-6.88-56.51-17.42-16-35-24-51.94-31.73-15.18-6.94-30.87-14.12-45.59-26.57-37.36-31.57-38.15-85.17-1.95-133.38,24.21-32.3,80.94-82.89,189.06-58.82,9.92,2.21,20.91,5.26,32.55,8.48,49.31,13.64,116.84,32.32,189.27,10.83,43.56-12.94,80.38-43,101-82.36,18.9-36.15,22.72-76.06,10.74-112.38-9.91-30.07-31-50.76-57.76-56.76-26.06-5.84-52.74,3.19-73.23,24.78-11.9,12.55-22,28.64-31.8,44.2-23.38,37.2-49.88,79.34-106,73.72-94.14-9.45-89.94-87.12-86.24-155.65,2.58-47.81,5.26-97.25-22.88-124.07C3301,543.37,3274.75,552.43,3247,562c-19.39,6.69-39.44,13.6-58.39,7.06-42.66-14.74-56.28-63.57-37.38-134,4.14-15.44,5.71-36.37-10.42-48.45-16.43-12.3-46-11.09-68.78,2.8-38.82,23.67-62.24,55-82.91,82.72-26.45,35.42-51.42,68.87-100.7,75.82-11.38,1.61-22.88,2.89-34,4.13-65.13,7.24-126.65,14.08-174.55,85.92-19.92,29.89-22.18,69.45-12.85,90.42,13.09,29.45,42.52,34.82,79.78,41.6,11.41,2.08,23.21,4.23,35.35,7.22,140.72,34.76,161,95.45,148.21,175.88-5.82,36.52-29,79.42-53.58,124.84-24.27,44.88-49.36,91.28-55.89,129.88-2.9,17.2-1.74,30.87,3.53,41.66,12.16,4.68,27.34,2.76,37.33-5,5.62-4.36,8.73-9.91,8.74-15.63a51.07,51.07,0,0,1,2.81-17.92,83.54,83.54,0,0,1,3.95-8.94C2890.5,1176.46,2950.68,1089.45,3014.72,1089.45Zm581.83-121.87h0Z" style="fill:#000072"/><path d="M3470.11,428.16c-52.67,2-99,49.2-99,95.44,0,46,72.88,41.54,118.36,27.3C3556.63,529.89,3556,424.82,3470.11,428.16Z" style="fill:#fff"/><path d="M3428.44,544.94c-27.6,0-57.84-17.79-21.32-29.17,51.09-15.92,43.39-33.49,65.17-49.25,20.75-15,47.27,1.8,48.87,12.32,3.21,21.12-8.44,48.28-36.36,57-18.43,5.77-39,9.08-56.35,9.08Z" style="fill:#ffedd7"/><path d="M3428.23,571.87c-19.22,0-37.85-3.39-50.95-13-11.37-8.35-17.37-20.54-17.37-35.24,0-53.59,52.32-104.43,109.77-106.66h0c50.06-2,73.18,29.16,77.88,56.38,5.66,32.73-11.6,74.79-54.72,88.29C3476.72,566.66,3452,571.87,3428.23,571.87Zm42.32-132.5c-45.33,1.77-88.2,42.7-88.2,84.24,0,7.58,2.61,13,8.22,17.16,18.19,13.36,62.8,9.68,95.57-.58,30.93-9.68,43.34-39.7,39.3-63-4.28-24.82-24.75-38.94-54.89-37.78Zm-.44-11.21h0Z" style="fill:#000072"/><path d="M2482.08,838.14c21.69-56.67,97.73-75.35,132.32-59,26.93,12.71,18.26,45.16,4.78,68.39-11.32,19.49-17.69,50.07-38.48,65C2529.23,949.61,2455.37,908,2482.08,838.14Z" style="fill:#fff"/><path d="M2538.74,910.63c-16.24,0-30.95-7.31-39.34-19.54-5.43-7.92-7.83-17.27-7.17-27.61,3.44-24.62,31.07,1,57.81-2.62,35.7-4.79,63-34.31,65.4-59.34,2.63,8.47-1.14,23.05-9.85,38.06-4.05,7-7.42,14.92-10.69,22.6-6.24,14.69-12.69,29.88-23.37,37.57A56,56,0,0,1,2538.74,910.63Z" style="fill:#ffedd7"/><path d="M2538.52,937.49a75.83,75.83,0,0,1-46.44-15.44c-25.79-19.85-33.64-53.54-20.48-87.92h0c10.54-27.55,33.5-49.62,64.64-62.14,29.32-11.78,61.88-13,83-3,11,5.19,18.59,13.66,22,24.51,6.79,21.8-4.78,46.74-12.28,59.66-3.21,5.52-6.11,12.36-9.18,19.6-7.33,17.26-15.64,36.82-32.44,48.92A83.63,83.63,0,0,1,2538.52,937.49Zm-46-95.34c-9.76,25.5-4.94,48.14,13.22,62.12,19.11,14.72,47.23,14.38,68.36-.82,11.72-8.44,18.42-24.22,24.9-39.49,3.35-7.9,6.52-15.35,10.43-22.09,9.48-16.32,13.31-31.92,10.26-41.72-1.52-4.88-4.73-8.34-10.12-10.89-15.44-7.29-41.57-5.86-65,3.56-14.64,5.89-40.86,20.12-52.05,49.33Z" style="fill:#000072"/><path d="M3162.14,233.73c-20.22,28.34-22,77,2.85,88.28,18.11,8.25,32.79-3.85,53.56-19,28.42-20.73,39.07-23.59,47.57-43.46,4.59-10.72,5.41-44.37-22.27-56.52C3228.1,196.12,3191.78,192.2,3162.14,233.73Z" style="fill:#fff"/><path d="M3176.75,308.93a12.52,12.52,0,0,1-5.26-1.27c-4.29-2-6.51-7.29-7.61-11.43-2-7.45-2-16.53-.27-25.59,2.95,56.67,33.08-19.67,56.7-34.49,31.11-19.51,34.27,9.36,31.37,17.19-3.66,9.87-9.27,14-24.49,24.41-5.12,3.48-10.92,7.44-17.89,12.52l-3.6,2.64c-11.73,8.59-21.85,16-28.95,16Z" style="fill:#ffedd7"/><path d="M3176.68,335.94a38.93,38.93,0,0,1-16.35-3.72c-11-5-18.73-15-22.47-29-6.29-23.47-.06-54.74,15.14-76h0c32.73-45.86,75.35-43.24,95.36-34.45,35.11,15.41,34.32,56.62,28.08,71.21-7.77,18.15-17.67,24.9-34.1,36.09-5,3.37-10.56,7.19-17.18,12l-3.55,2.59C3206.81,325.53,3192.62,335.94,3176.68,335.94Zm-5.41-95.69c-11.21,15.71-16.25,40.3-11.73,57.19,1.36,5.07,4.21,11.68,10.1,14.36,10.12,4.61,18.65-.52,38.7-15.22l3.6-2.64c6.9-5,12.67-9,17.77-12.44,15.21-10.36,20.91-14.24,26.1-26.36,2.19-5.14,4.92-32.44-16.47-41.83-3.81-1.68-38.06-15.11-68.07,26.94Z" style="fill:#000072"/></svg>