<svg id="e3SbyQCafEF1" xmlns="http://www.w3.org/2000/svg" xmlns:xlink="http://www.w3.org/1999/xlink" viewBox="0 0 3065.1 2547.62" shape-rendering="geometricPrecision" text-rendering="geometricPrecision" width="3065.1" height="2547.62">
<style><![CDATA[
#e3SbyQCafEF23_tr {animation: e3SbyQCafEF23_tr__tr 3000ms linear infinite normal forwards}@keyframes e3SbyQCafEF23_tr__tr { 0% {transform: translate(505.81px,1542.8px) rotate(3.003996deg)} 50% {transform: translate(505.81px,1542.8px) rotate(18.037614deg)} 100% {transform: translate(505.81px,1542.8px) rotate(3.003996deg)}} #e3SbyQCafEF44_to {animation: e3SbyQCafEF44_to__to 3000ms linear infinite normal forwards}@keyframes e3SbyQCafEF44_to__to { 0% {transform: translate(794.035419px,1353.659456px)} 50% {transform: translate(818.745179px,1361.567166px)} 100% {transform: translate(794.035419px,1353.659456px)}} #e3SbyQCafEF44_tr {animation: e3SbyQCafEF44_tr__tr 3000ms linear infinite normal forwards}@keyframes e3SbyQCafEF44_tr__tr { 0% {transform: rotate(8.178007deg)} 50% {transform: rotate(1.556722deg)} 100% {transform: rotate(8.178007deg)}} #e3SbyQCafEF87_tr {animation: e3SbyQCafEF87_tr__tr 3000ms linear infinite normal forwards}@keyframes e3SbyQCafEF87_tr__tr { 0% {transform: translate(2436.77px,1654.001327px) rotate(0deg)} 50% {transform: translate(2436.77px,1654.001327px) rotate(-11.857006deg)} 100% {transform: translate(2436.77px,1654.001327px) rotate(0deg)}} #e3SbyQCafEF95_tr {animation: e3SbyQCafEF95_tr__tr 3000ms linear infinite normal forwards}@keyframes e3SbyQCafEF95_tr__tr { 0% {transform: translate(2416.527101px,2165.66px) rotate(3.628966deg)} 50% {transform: translate(2416.527101px,2165.66px) rotate(14.022818deg)} 100% {transform: translate(2416.527101px,2165.66px) rotate(3.628966deg)}} #e3SbyQCafEF119_to {animation: e3SbyQCafEF119_to__to 3000ms linear infinite normal forwards}@keyframes e3SbyQCafEF119_to__to { 0% {transform: translate(2062.907845px,1378.25582px)} 50% {transform: translate(2062.907845px,1394.572146px)} 100% {transform: translate(2062.907845px,1378.25582px)}} #e3SbyQCafEF119_tr {animation: e3SbyQCafEF119_tr__tr 3000ms linear infinite normal forwards}@keyframes e3SbyQCafEF119_tr__tr { 0% {transform: rotate(-8.189041deg)} 50% {transform: rotate(-3.015622deg)} 100% {transform: rotate(-8.189041deg)}}
]]></style>
<path d="M1613.16,2138.65c16.19,16.5,36.65,35.74,61.38,56.39c111,92.34,308.32,211.08,596.66,219.94l71.47-291.83c0,0-295.05,12.31-509.15-158.37q-14-11.12-27.41-23.24c-61.56-55.85-158.83-49-207.53,18.31-1.36,1.89-2.75,3.89-4,5.88-35.62,54.3-26.91,126.59,18.62,172.92" transform="translate(-507.47-770.71)" fill="#fff"/><path d="M1613.16,2138.65c16.19,16.5,36.65,35.74,61.38,56.39c172.09-79.57,159-230.26,159-230.26q-14-11.12-27.41-23.24c-61.56-55.85-158.83-49-207.53,18.31-1.36,1.89-2.75,3.89-4,5.88-35.62,54.3-26.91,126.59,18.62,172.92" transform="translate(-507.47-770.71)" fill="#5d5e8c"/><g opacity="0.300003"><path d="M2261.4,2120.28l-2.4,9.77c-26,106.23-133.34,171.58-239.48,145.18-203.34-50.57-334.3-159.41-396.26-222.45-19.930701-20.280372-32.522616-46.632597-35.78-74.88-27,52.56-16.51,117.79,25.68,160.72C1702,2229,1918.61,2404.19,2271.22,2415l71.47-291.82c0,0-31.46,1.31-81.29-2.86" transform="translate(-507.47-770.71)" fill="#000072"/></g><g opacity="0.600006"><path d="M1588.55,2001q2-3,4.06-5.89c48.69-67.37,145.93-74.15,207.54-18.34c204,184.78,505.36,172.55,536.32,171.79l6.22-25.4c0,0-321.24,13.43-536.56-181.63-61.61-55.81-158.85-49-207.54,18.34-1.39,1.91-2.74,3.88-4,5.89-13.437073,20.544189-20.990343,44.376417-21.84,68.91c3.688031-11.907287,9.023023-23.240358,15.85-33.67" transform="translate(-507.47-770.71)" fill="#fff"/></g><path d="M2284.85,2432.89l-14.16-.44c-352.79-10.78-571.21-181-670-281.56-51.59-52.49-60.33-134.39-20.78-194.74c1.46-2.24,3-4.4,4.49-6.53c25.67-35.52,64.08-57.62,108.17-62.24c45.722888-4.698354,91.286829,10.266631,125.32,41.16c207.3,187.79,520.94,177.26,524.08,177.11l23.25-1-80.37,328.24Zm-575.63-511.38c-4.34228-.002255-8.681652.224728-13,.68-34.06,3.57-63.69,20.58-83.44,47.91q-1.83,2.54-3.6,5.24c-30.59,46.67-23.66,110.18,16.47,151c93.8,95.44,299.72,256.16,632,270.59l62.71-256.09c-78.78-.8-338.9-16.93-525.95-186.38-23.327615-21.168275-53.68965-32.911778-85.19-32.95Z" transform="translate(-507.47-770.71)" fill="#000072"/><path d="M1694.21,2400.9c-54.954041-.099539-100.103765-43.41751-102.477926-98.320332s38.867617-101.956619,93.607926-106.799668c116.28-10.21,337.23-42.68,510.51-145.4c48.816449-28.939721,111.850279-12.826449,140.79,35.99s12.826449,111.850279-35.99,140.79c-208.28,123.48-463.65,161.61-597.34,173.34-3,.27-6.09.4-9.1.4" transform="translate(-507.47-770.71)" fill="#fbd9c7"/><g opacity="0.300003"><path d="M2300.65,2139.81c-208.28,123.49-463.66,161.61-597.34,173.35q-4.59.4-9.11.4c-39.756033-.077922-75.901061-23.078949-92.81-59.06-15.000596,31.788249-12.685999,69.042718,6.134015,98.729714s51.526154,47.674804,86.675985,47.670286q4.52,0,9.11-.4c133.68-11.73,389.06-49.86,597.34-173.34c45.489751-26.992982,63.053648-84.111347,40.59-132-8.718309,18.648584-22.866123,34.228956-40.59,44.7" transform="translate(-507.47-770.71)" fill="#000072"/></g><g opacity="0.600006"><path d="M1592.83,2313.51c7.109556-46.830772,45.317462-82.729681,92.5-86.91c116.29-10.2,337.24-42.67,510.51-145.4c29.399396-17.469807,65.566839-19.156245,96.464322-4.497998s52.469379,43.737128,57.535678,77.557998c6.005937-39.272624-11.169174-78.488125-44.10562-100.705254s-75.730271-23.453403-109.89438-3.174746c-173.27,102.72-394.22,135.19-510.51,145.4-56.514151,4.988879-98.292323,54.833511-93.33,111.35.19,2.16.55,4.27.87,6.38" transform="translate(-507.47-770.71)" fill="#fff"/></g><path d="M1694.21,2418.4c-64.351625-.057739-117.25414-50.763523-120.039402-115.05487s45.533873-119.382306,109.639402-125.00513c114.8-10.07,332.81-42.06,503.11-143c57.104718-33.548486,130.586411-14.61083,164.36269,42.359449s15.132241,130.527017-41.70269,164.530551c-211.29,125.26-469.58,163.86-604.74,175.73-3.49.28-7.07.44-10.63.44Zm553.89-364.92c-15.255962.008393-30.226444,4.137109-43.33,11.95-176.26,104.49-400.14,137.44-517.9,147.78-46.879894,4.169243-81.537128,45.501136-77.47,92.39c3.82,43.63,41.08,77.8,84.81,77.8c2.53,0,5.07-.11,7.55-.33c132.22-11.6,384.64-49.24,590-171c33.000644-19.639426,48.811397-58.907779,38.626671-95.93508s-43.854202-62.685626-82.256671-62.68492l-.03.03Z" transform="translate(-507.47-770.71)" fill="#000072"/><path d="M1214.16,2977.88v253.4c.056893,25.650579-16.248589,48.481473-40.53,56.75-23.111613,7.922065-47.358696,12.029107-71.79,12.16-23.78,0-46.58-3.79-65.91-8.59-47.93-11.91-63-73.89-24.19-104.5c6.938307-5.425862,14.704148-9.700451,23-12.66v-264.93l179.42,68.37Z" transform="translate(-507.47-770.71)" fill="#fbd9c7"/><g opacity="0.300003"><path d="M1167.93,2960.26v229.92c.047661,25.647631-16.254373,48.473697-40.53,56.75-23.112052,7.920336-47.35885,12.02733-71.79,12.16-22.58,0-44.23-3.44-62.9-7.89c6.366929,20.091446,22.754101,35.405851,43.23,40.4c19.32,4.8,42.12,8.59,65.91,8.59c24.430215-.133886,48.676286-4.237379,71.79-12.15c24.277094-8.278327,40.576484-31.110345,40.52-56.76v-253.4l-46.23-17.62Z" transform="translate(-507.47-770.71)" fill="#000072"/></g><path d="M1101.84,3317.69c-23.656067-.18502-47.201992-3.24411-70.12-9.11-29.106079-7.148812-51.541845-30.342543-57.72-59.67-6.293122-28.266302,4.176323-57.637507,26.93-75.55c5.074547-3.99356,10.534931-7.470787,16.3-10.38v-278.86l214.47,81.7v265.47c.06808,33.158807-21.030194,62.663392-52.43,73.32-24.922121,8.560742-51.078752,12.979297-77.43,13.08ZM1052.2,2934.9v251.78l-11.5,4.2c-6.524808,2.333731-12.637603,5.688849-18.11,9.94-12.41,9.8-17.79,25-14.41,40.71c3.435906,16.253236,15.86972,29.106691,32,33.08c21.57,5.36,42.33,8.08,61.68,8.08c22.528152-.108258,44.886823-3.901699,66.19-11.23c17.176989-5.857649,28.701541-22.021798,28.64-40.17v-241.35L1052.2,2934.9Z" transform="translate(-507.47-770.71)" fill="#000072"/><path d="M1469.38,2977.88v253.4c-.053814,25.649596,16.250518,48.47888,40.53,56.75c23.111833,7.9212,47.358773,12.028218,71.79,12.16c23.79,0,46.59-3.79,65.91-8.59c47.93-11.91,63-73.89,24.2-104.5-6.940316-5.422818-14.705646-9.697125-23-12.66v-264.93l-179.43,68.37Z" transform="translate(-507.47-770.71)" fill="#fbd9c7"/><g opacity="0.300003"><path d="M1515.62,2960.26v229.92c-.047661,25.647631,16.254373,48.473697,40.53,56.75c23.111613,7.922065,47.358696,12.029107,71.79,12.16c22.58,0,44.23-3.44,62.9-7.89-6.366929,20.091446-22.754101,35.405851-43.23,40.4-19.32,4.8-42.12,8.59-65.91,8.59-24.430215-.133886-48.676286-4.237379-71.79-12.15-24.279116-8.277483-40.581952-31.108694-40.53-56.76v-253.4l46.24-17.62Z" transform="translate(-507.47-770.71)" fill="#000072"/></g><path d="M1581.7,3317.69c-26.341175-.103979-52.487406-4.522489-77.4-13.08-31.393926-10.662648-52.486447-40.164816-52.42-73.32v-265.47l214.47-81.7v278.88c5.765069,2.909213,11.225453,6.38644,16.3,10.38c22.753677,17.912493,33.223122,47.283698,26.93,75.55-6.182973,29.335533-28.632298,52.531226-57.75,59.67-22.922083,5.859948-46.471401,8.912327-70.13,9.09Zm-94.82-327.75v241.35c-.061541,18.148202,11.463011,34.312351,28.64,40.17c21.299511,7.329148,43.655035,11.122629,66.18,11.23c19.36,0,40.11-2.72,61.69-8.08c16.13028-3.973309,28.564094-16.826764,32-33.08c3.39-15.69-2-30.91-14.4-40.7-5.473187-4.258024-11.589862-7.616794-18.12-9.95l-11.49-4.21v-251.77l-144.5,55.04Z" transform="translate(-507.47-770.71)" fill="#000072"/><g id="e3SbyQCafEF23_tr" transform="translate(505.81,1542.8) rotate(3.003996)"><g transform="translate(-505.809999,-1542.799996)"><path d="M1096.89,2230.4c0,0-250.89-100.4-348.71-324.19-28-64-104.87-92.34-165.42-57.48q-2.58,1.49-5.14,3.12c-46,29.36-64.24,87.76-45.32,139c36.94,99.88,142.62,308.87,409.21,438.67l155.38-199.12Z" transform="translate(-507.47-770.71)" fill="#fbd9c7"/><g opacity="0.300003"><path d="M1035.56,2200.19l-5.21,6.67c-56.56,72.46-161.36,85.56-233.63,28.74-138.44-108.86-201.31-237.44-227.08-307.13-8.294589-22.414017-8.861264-46.957044-1.61-69.73-38.85,31-53.27,84.6-35.72,132.06c36.93,99.88,142.61,308.87,409.2,438.67l155.38-199.07c0,0-24.57-9.84-61.33-30.21" transform="translate(-507.47-770.71)" fill="#000072"/></g><g opacity="0.600006"><path d="M560.89,1876.8c1.71-1.09,3.42-2.12,5.14-3.11c60.55-34.87,137.43-6.54,165.42,57.48c92.66,211.95,327.92,306.47,351.92,316.56l13.52-17.33c0,0-250.89-100.4-348.71-324.18-28-64-104.87-92.35-165.42-57.48-1.72,1-3.43,2-5.13,3.11-17.382869,11.118938-31.389311,26.785403-40.5,45.3c6.934157-7.856224,14.931376-14.705694,23.76-20.35" transform="translate(-507.47-770.71)" fill="#fff"/></g><path d="M946.59,2451.41l-12.74-6.2c-267.59-130.3-376.73-336.83-418-448.34-21.9-59.24.1-126.44,52.32-159.77c1.92-1.23,3.87-2.41,5.83-3.54c32.6-18.77,70.46-22.55,106.62-10.64c37.422191,12.407837,67.800788,40.146714,83.55,76.29c93.87,214.69,336.74,314,339.18,314.94l21.63,8.66-178.39,228.6ZM638.88,1851.14c-16.644619.006541-32.99237,4.408257-47.39,12.76-1.49.86-3,1.75-4.43,2.69-38.46,24.55-54.57,74.23-38.34,118.14c38.76,104.82,140.38,297.53,387.78,422.72l132.79-170.13c-63.82-29.94-253.25-132.21-337.15-324.1-11.761972-27.023127-34.460751-47.769441-62.43-57.06-9.943831-3.304173-20.351599-4.998853-30.83-5.02Z" transform="translate(-507.47-770.71)" fill="#000072"/></g></g><path d="M1775.64,2604.6c0,0,75.2,76.94,39.11,176.07-39.18,107.64-126.25,104.69-126.25,104.69-18.08,64-78.52,191.84-264.57,109.16c0,0-27.77,27-82.16,27s-82.11-27-82.11-27C1017.14,3102.32,988,2852.38,988,2852.38c-130.83-11.23-124.7-108.48-110.74-162.71c3.134951-12.359086,7.244484-24.450274,12.29-36.16-93.92-82.15,11.08-135,11.08-135-127.8-219.07,76.93-296,76.93-296-8.05-59,12.22-92.78,35.71-112c25.83-21.14,55.56-24.62,55.56-24.62h502.9c19.293163-.01031,38.372797,4.037298,56,11.88c36.68,16.23,65.39,48.11,75.94,88.66c6.7,25.75,9.16,57.86,4.17,97.77c0,0,92.59,30.86,123.87,145.62s-56.06,174.74-56.06,174.74" transform="translate(-507.47-770.71)" fill="#fff"/><g opacity="0.300003"><path d="M1814.75,2780.67c-39.18,107.64-126.25,104.69-126.25,104.69-18.08,64-78.52,191.84-264.57,109.16c0,0-27.77,27-82.16,27s-82.11-27-82.11-27C1017.14,3102.32,988,2852.38,988,2852.38c-130.83-11.23-124.7-108.48-110.74-162.71c0,0,18.23,108.26,132.53,97.39c19-1.81,36.14,11.51,39.66,30.33c10.86,58.19,45.72,161.63,154.94,127.58c0,0,43.35,24.77,137.3,24.77s137.5-24.74,137.5-24.74s115.46,30.75,146.14-96c3.794905-16.02168,17.697825-27.623736,34.14-28.49c59.93-2.9,186.12-30.16,116.17-215.9c0,0,75.2,76.94,39.11,176.07" transform="translate(-507.47-770.71)" fill="#000072"/></g><g opacity="0.300003"><path d="M1386.79,2462.46c0,0-19.44-69.21,39-89.43s90.78,26.52,90.78,26.52s73.63-71.1,113.88,34.1c0,0-62.8-69.1-110.36,11.31c0,0-84.62-96.19-133.28,17.5" transform="translate(-507.47-770.71)" fill="#000072"/></g><g opacity="0.300003"><path d="M1023.48,2701.53c0,0,2.11-58.42,57.72-58.42s57.86,47.19,57.86,47.19s54.38-27.88,66.06,54.36c0,0-34.6-62-84.93-20.21c0,0,0-61.59-44.49-56.62l-52.22,33.7Z" transform="translate(-507.47-770.71)" fill="#000072"/></g><g transform="translate(0 0.000001)" opacity="0.300003"><path d="M1627.72,2097.81c-77.09,63.81-176.22,96.49-267.91,105.64-114.68,11.46-248.08-10.78-346.53-92.89c25.83-21.15,55.56-24.63,55.56-24.63h502.9c19.293163-.01031,38.372797,4.037298,56,11.88" transform="translate(-507.47-770.71)" fill="#000072"/></g><path d="M1022.05,2713.16c-.237424-11.610104,3.230263-22.993924,9.9-32.5c6.68-10.1,18.73-18.25,32-20.52c3.268872-.459754,6.560465-.740174,9.86-.84c3.205026.081005,6.40318.338059,9.58.77c6.349555.890257,12.522804,2.759098,18.3,5.54c6.133628,2.908169,11.674144,6.929621,16.34,11.86c4.631822,4.980399,8.354822,10.734126,11,17c2.507098,5.935857,4.137497,12.204812,4.84,18.61.1.78.18,1.56.23,2.34l.09,1.18c0,.28.12,1.21,0,.14-.48266-2.677606-2.136845-4.999334-4.51-6.33-2.444136-1.30429-5.355204-1.40034-7.88-.26l-.85.45c-.18.08-.77.52-.42.28l.92-.61l1.85-1.21c9.89-6.18,21.28-11.55,34.63-12.05c6.776681-.179394,13.511603,1.113684,19.74,3.79c1.5.77,2.95,1.64,4.38,2.48c1.440555.777874,2.783344,1.72454,4,2.82l3.68,3.12c1.075087,1.114258,2.077168,2.296713,3,3.54c7.73,9.66,11,20.71,11.86,31.54.034079.474607-.235447.918938-.672101,1.108005s-.945106.081592-1.267899-.268005v0c-7.25-8-14-15.4-21.38-19.83-3.302627-2.07917-6.949802-3.552263-10.77-4.35-3.546191-.504888-7.149388-.454281-10.68.15-8.064599,1.60663-15.71287,4.853827-22.47,9.54l-1.35.94-.68.47-1.23.8c-.549612.334296-1.120876.631621-1.71.89-4.905261,2.221798-10.570537,2.00319-15.29-.59-4.676182-2.573701-7.904483-7.159733-8.75-12.43l-.34-2.51c-.06-.5-.14-1-.24-1.49-.637055-3.819729-1.829693-7.525663-3.54-11-3.235231-6.321445-8.555439-11.330777-15.06-14.18-3.512415-1.690035-7.201708-2.984641-11-3.86-1.9-.26-3.84-.82-5.72-1.13-1.81,0-3.73-.41-5.54-.33-7.776463.112801-15.334526,2.589139-21.67,7.1-7.13,5-14,12.27-20.36,20.64l-.09.13c-.522667.673216-1.488895.802343-2.17.29-.375091-.282109-.59995-.720768-.61-1.19" transform="translate(-507.47-770.71)" fill="#000072"/><path d="M1385.69,2485.52c-4.803665-14.460687-5.259142-30.012971-1.31-44.73c4.318322-16.31562,14.786939-30.325146,29.21-39.09c3.63-2.21,7.54-3.71,11.37-5.53c3.88-1.49,7.86-2.44,11.85-3.54c3.954721-.914539,7.962441-1.582492,12-2c4.159982-.313658,8.336766-.337048,12.5-.07c8.615598.527443,17.061678,2.628795,24.92,6.2c7.803352,3.647077,14.910049,8.628533,21,14.72c5.851981,5.866114,10.823578,12.548803,14.76,19.84.51.89,1,1.78,1.42,2.7l.68,1.36c.17.37.66,1.28.21.45-1.18687-1.865354-3.138162-3.110081-5.33-3.4-2.230186-.230114-4.442422.577352-6,2.19l-.51.59c-.09.11-.43.67-.17.28l.82-1.19l1.66-2.39c9-12.41,20.23-24.36,35.75-31.45c7.68-3.61,16.46-5.14,25-5.23c2.13.18,4.26.47,6.37.74l3.13.42c1,.24,2,.57,3,.85l5.93,1.83c1.869464.751649,3.686815,1.626917,5.44,2.62c14.22,7.42,24.28,18.87,31.74,31.18.305766.510975.140253,1.17303-.37,1.48-.340426.209211-.769574.209211-1.11,0v0c-12.28-7.34-24.22-14.17-36.19-16.91-10.923886-3.0548-22.625799-1.435873-32.31,4.47-9.59,5.54-18.4,14.36-25.47,24.67l-1.3,1.94-.66,1-.94,1.33c-.416956.560065-.871327,1.091278-1.36,1.59-4.030655,4.197154-9.805183,6.246778-15.58,5.53-5.733918-.711579-10.816891-4.033783-13.77-9l-1.57-2.81c-.35-.65-.71-1.28-1.11-1.9-2.923064-4.925474-6.547756-9.399072-10.76-13.28-8.0564-7.30725-18.422492-11.554198-29.29-12-5.737584-.39183-11.501409-.099778-17.17.87-2.76.71-5.69,1.09-8.43,1.79-2.55,1-5.36,1.67-7.82,2.88-10.445004,4.820427-19.077669,12.850487-24.64,22.92-6.09,10.78-10.26,23.86-12.69,37.68v.12c-.068296.392857-.290203.742353-.616694.971272s-.730695.31842-1.123306.248728c-.543485-.089671-.991231-.475659-1.16-1" transform="translate(-507.47-770.71)" fill="#000072"/><path d="M1417.92,2983l14.25-8.45q7.51-4.53,15.08-9.44c5-3.38,10-6.75,15-10.43s9.93-7.41,15-11.22v0c.536211-.404167,1.21155-.57762,1.876159-.481871s1.263522.452781,1.663841.991871c.549023.740062.656067,1.718756.28,2.56-2.665427,5.928635-5.749904,11.659814-9.23,17.15-3.487437,5.542502-7.325246,10.856648-11.49,15.91-4.185347,5.126678-8.744472,9.936488-13.64,14.39-2.488592,2.252171-5.088521,4.378172-7.79,6.37-2.861406,2.16597-5.898617,4.089314-9.08,5.75-6.196677,2.957592-13.624941.586104-16.961536-5.415004s-1.43085-13.562271,4.351536-17.264996l.69-.42Z" transform="translate(-507.47-770.71)" fill="#000072"/><path d="M1253.69,3006.05c-3.179272-1.664345-6.216188-3.587502-9.08-5.75-2.73-2-5.31-4.15-7.79-6.37-4.898708-4.456997-9.461147-9.270119-13.65-14.4-4.16376-5.050625-8.001532-10.36138-11.49-15.9-3.469258-5.494809-6.550103-11.225447-9.22-17.15-.47656-1.051811-.180475-2.292833.719611-3.0162s2.175748-.745504,3.100389-.0538v0c5.11,3.82,10,7.63,15,11.23s10,7,15,10.43s10.07,6.42,15.07,9.43l14.26,8.46.6.36c5.779426,3.696397,7.69175,11.247557,4.368354,17.249236s-10.738462,8.387848-16.938354,5.450764" transform="translate(-507.47-770.71)" fill="#000072"/><path d="M1149.6,3039c-29.93,0-57-6.86-81.1-20.59-67-38.22-89.17-117.85-95.58-150.14-49.61-6.86-84.48-27.06-103.77-60.17-30.91-53.06-10.6-122.44-.35-150-26.83-26.46-38.67-53.58-35.22-80.73c3.95-31.15,27.49-53.14,43.68-64.82-36.82-69.06-45.58-131.87-26-186.9c23.65-66.5,81.76-101.34,107.58-114-2.92-38.45,5.46-70.65,25-95.84c31.65-40.87,80.93-47.09,83-47.33l2-.12h272.86v35h-271.6c-5.46.9-38.27,7.31-58.87,34.17-15.56,20.29-21.06,48.06-16.33,82.55l1.9,13.92-13.08,4.91c-.71.27-75.07,29.3-99.6,98.79-17.2,48.71-6.56,106.58,31.62,172l9.38,16.08-16.63,8.37c-.32.16-36.65,19.05-40.2,47.76-2.21,17.79,8.82,37.44,32.78,58.41l9.83,8.6-5.45,11.87c-.35.76-35.52,79.27-6,129.79c14.94,25.58,45.24,40.5,90,44.34l14.23,1.22l1.65,14.19c.12,1,12.59,99.11,80.61,137.77c42.22,24,98.26,20.77,166.57-9.6l10.82-4.81l8.49,8.26c.85.79,24.09,22,69.92,22s69.07-21.24,70-22.15l8.47-7.92l10.72,4.59c64,28.45,117.35,33.09,158.5,13.78c50.77-23.82,73.27-80.2,82.16-111.68l3.73-13.2l13.7.46c2.94,0,75.14.37,109.21-93.22c31.94-87.74-34.52-157.14-35.19-157.83L1748.57,2602l17.16-11.78c3.08-2.15,76.59-54.88,49.09-155.7-28.28-103.7-109.17-132.47-112.6-133.64l-13.47-4.61l1.7-14.14c3.33-26.67,3.34-51.22,0-73-9.24-60.26-62.45-105.69-123.78-105.69h-224.81v-35h224.82c79.74,0,146.35,56.94,158.37,135.39c3.25,21.21,3.77,44.5,1.55,69.38c28.67,13.68,95.54,55.07,122,152.06c25.81,94.61-22.76,156.44-48.51,181.34c21.49,28.48,61.47,96.65,31.12,180-33.85,93-100.55,111.68-129.48,115.37-12.6,38.25-40.25,95.2-97.34,122-48.53,22.77-108.35,19.62-177.93-9.34-13.83,9.47-42.3,24.35-84.66,24.35s-70.84-14.88-84.66-24.35c-39.05,16.27-74.98,24.36-107.54,24.36Z" transform="translate(-507.47-770.71)" fill="#000072"/><g id="e3SbyQCafEF44_to" transform="translate(794.035419,1353.659456)"><g id="e3SbyQCafEF44_tr" transform="rotate(8.178007)"><g transform="translate(-836.735841,-1329.980841)"><path d="M939.52,1604q-7.65,7.65-15.24,14.75C816,1719.69,715.87,1734.9,664.06,1734.52c-9.670427-.097433-18.796122-4.492556-24.90115-11.992909s-8.556336-17.328195-6.68885-26.817091c46.22-233.41,269.12-272.18,269.12-272.18l14.07,66.91.79,3.71l20,95l3.07,14.85Z" transform="translate(-507.47-770.71)" fill="#fbd9c7"/><path d="M936.4,1589.11c-135.45,85.35-251,75.13-251,75.13c83-128,216.53-168.61,216.53-168.61s5.19-2,13.73-5.17l20.74,98.65Z" transform="translate(-507.47-770.71)" fill="#f29b9f"/><g opacity="0.300003"><path d="M939.52,1604q-7.65,7.65-15.24,14.75c-2.731797-2.029894-5.346013-4.213416-7.83-6.54-76.37-70.81-231.06,52-231.06,52c74.81-120.54,207-163.92,207-163.92s10.78-2.88,24.09-6.17l20,95l3.04,14.88Z" transform="translate(-507.47-770.71)" fill="#000072"/></g><g opacity="0.600006"><path d="M642.47,1726c51.06-223.32,266.69-260.82,266.69-260.82l14.07,66.9L938.56,1605c.32-.33.65-.62,1-1l-3.13-14.93-20.74-98.65-14.06-66.91c0,0-222.9,38.76-269.12,272.17-2.184408,11.141165,1.607112,22.614306,10,30.26" transform="translate(-507.47-770.71)" fill="#fff"/></g><path d="M684.61,1663.74c10.16-22.73,24.48-43.31,40.49-62.35c4.07-4.7,8.14-9.43,12.44-14l13.17-13.31c9.24-8.4,18.45-16.89,28.37-24.58c4.84-4,9.81-7.81,15-11.33s10.23-7.29,15.47-10.78c10.78-6.46,21.36-13.36,32.74-18.83c22.25-11.94,46.26-20.31,70.46-27.34c6.964882-1.96305,14.231961,1.949427,16.427796,8.844458s-1.470394,14.289398-8.287796,16.715542l-.77.27c-22.26,7.64-44.49,15.38-65.46,26.18-10.81,4.73-20.85,11-31.26,16.54-5.08,3-10,6.23-15.07,9.34-2.5,1.59-5.06,3.08-7.5,4.76l-7.27,5.12c-19.63,13.33-38.07,28.5-55.87,44.53s-35,33-51.48,51.15v0c-.36637.367019-.952515.39307-1.35.06-.287205-.285308-.374059-.71563-.22-1.09" transform="translate(-507.47-770.71)" fill="#000072"/><path d="M665.78,1752h-1.78c-14.884968-.125545-28.940015-6.876677-38.34205-18.417032s-13.173289-26.669788-10.28795-41.272968c25.07-126.68,100.69-197.72,159.71-235c63.7-40.25,121.17-50.57,123.58-51l16.65-2.9L958.6,1609.7l-6.69,6.7C834.43,1734,722.93,1752,665.78,1752Zm222.37-307.39c-50.81,13.74-201.91,69.64-238.5,254.49-.858868,4.388599.285119,8.931546,3.12,12.39c2.781034,3.4635,6.978181,5.484893,11.42,5.5h1.61c50.55,0,148.6-15.94,254.64-118.75l-32.29-153.63Z" transform="translate(-507.47-770.71)" fill="#000072"/><path d="M1950.39,1605.88c-53.11,11.08-161.39,16-295.85-73.38v-5.86l.08-9.38.68-87l.11-13.77.53-68.38c0,0,226.15-6.13,317.68,213.51c3.703366,8.927925,3.24609,19.040152-1.247957,27.597389s-12.559693,14.673739-22.012043,16.692611" transform="translate(-507.47-770.71)" fill="#fbd9c7"/><path d="M1654.64,1517.27c149.67,56.83,260.91,23.92,260.91,23.92-106.66-109-245.64-122.38-245.64-122.38s-5.49-1-14.49-2.35l-.78,100.81Z" transform="translate(-507.47-770.71)" fill="#f29b9f"/><g opacity="0.300003"><path d="M1915.51,1541.17c-2.61-1.17-112.79-51.25-221.19-18.61-16.38,4.92-29.5,5.9-39.75,4.08l.08-9.38.68-87c8.951724-5.289413,19.578741-6.980156,29.73-4.73c64.71,14.15,183.89,52.77,230.45,115.67" transform="translate(-507.47-770.71)" fill="#000072"/></g><g opacity="0.600006"><path d="M1659.21,1458.06l.53-68.36c0,0,217.17-5.88,312,200.58c5.079223-8.749634,5.778371-19.370023,1.89-28.71C1882.12,1341.93,1656,1348.1,1656,1348.1l-.54,68.36-.78,100.81-.11,15.26c1.36.9,2.71,1.74,4.07,2.63l.57-77.1Z" transform="translate(-507.47-770.71)" fill="#fff"/></g><path d="M1914.84,1541.83q-29.65-21.72-60.59-39.94c-20.62-12.19-41.7-23.4-63.58-32.59l-8.14-3.57c-2.72-1.16-5.53-2.11-8.29-3.18-5.55-2-11-4.23-16.63-6.17-11.31-3.41-22.38-7.52-33.91-10-22.7-6.43-46-9.62-69.35-12.7l-.77-.1c-7.240221-.935107-12.404851-7.486295-11.624047-14.744778s7.22059-12.561369,14.494047-11.935222c25.12,2.1,50.31,5.55,74.49,12.85c12.24,3.11,24,7.78,35.82,12c5.82,2.37,11.53,5,17.29,7.5s11.42,5.19,17,8.13c11.23,5.57,22,12.07,32.66,18.47l15.55,10.44c5.11,3.57,10,7.41,15,11.21c19.46,15.49,37.58,32.82,52,53.09.279202.436025.179414,1.013059-.23,1.33-.336037.2242-.773963.2242-1.11,0l-.08-.09Z" transform="translate(-507.47-770.71)" fill="#000072"/><path d="M1890.66,1629.29c-61.36,0-147.07-16.56-245.82-82.19l-7.88-5.24l1.63-210.78l16.89-.46c2.46-.07,60.83-1.33,131.24,25.5c65.23,24.87,153.42,79.52,203.09,198.72c5.728421,13.739825,5.036796,29.3176-1.886734,42.4957s-19.358882,22.585939-33.923266,25.6643c-20.841413,4.265552-42.066719,6.373338-63.34,6.29ZM1672.1,1523.1c125.65,80.62,225.69,75.88,274.69,65.63c4.351738-.893726,8.067067-3.705029,10.11-7.65c2.097828-3.956819,2.317886-8.644039.6-12.78-72.47-173.91-231.64-198.79-284.18-202.19l-1.22,156.99Z" transform="translate(-507.47-770.71)" fill="#000072"/><path d="M1759.27,1766.82c-10.33,262.53-221.49,373.09-403.24,391.24s-410.64-48.33-472.75-303.6c-27.76-114.15-17-221.15,3.25-304.59c25.12-103.18,65-170.28,65-170.28l315.33-108.86.91-.07l330.64,44.21c0,0,51.22,56.66,96,151c37,78.1,69.63,182,65,301" transform="translate(-507.47-770.71)" fill="#fbd9c7"/><g opacity="0.300003"><path d="M1752,1648.7q.36,17.23-.31,34.91c-10.33,262.53-221.49,373.09-403.23,391.24s-410.65-48.33-472.76-303.6c-3.66-15.07-6.64-30-9-44.78.895939,43.140846,6.461727,86.057769,16.6,128c62.1,255.27,291,321.8,472.75,303.6s392.91-128.71,403.23-391.24c1.507588-39.520781-.931154-79.093387-7.28-118.13" transform="translate(-507.47-770.71)" fill="#000072"/></g><g opacity="0.300003"><path d="M1694.32,1465.82c-43.89-3.59-86.86-24.71-112.42-65.24-7.24-11.49-22.57-14.31-33.86-6.78-78.06855,51.946938-181.134726,45.752841-252.42-15.17-5.053397-4.36612-11.67933-6.463076-18.324571-5.799308s-12.725488,4.029895-16.815429,9.309308c-62.062717,79.305571-171.73938,103.290519-261.24,57.13q-4.47-2.34-8.89-4.89c-1.934241-1.123025-4.305195-1.19174-6.30123-.182622s-3.346375,2.959175-3.58877,5.182622v.1c-5.634411,52.59555-42.899909,96.376162-93.92,110.34c25.12-103.19,65-170.29,65-170.29l315.33-108.85.9-.08l330.65,44.22c0,0,51.22,56.66,96,151" transform="translate(-507.47-770.71)" fill="#000072"/></g><path d="M1359,1977.79c50.44-22.85,55.15-78.35,52.08-114.45-1.26-14.81-17-24-30.35-17.54-10.542871,4.990832-21.492644,9.072323-32.73,12.2-14.142787,3.990462-28.877738,5.459557-43.53,4.34-11.587665-.817152-23.083454-2.630516-34.36-5.42-6.782656-1.692327-13.964254.038105-19.231749,4.63396s-7.955496,11.476582-7.198251,18.42604c4,36,19.24,89.43,73,102c14.202301,3.309789,29.099266,1.851369,42.39-4.15" transform="translate(-507.47-770.71)" fill="#000072"/><path d="M1330.43,1904.79c-50.55,5.06-58.36,50.13-58.36,50.13c29,34.4,66.32,29.46,66.32,29.46s37.57-2.55,59.18-42c0,0-16.58-42.64-67.14-37.58" transform="translate(-507.47-770.71)" fill="#ec6a82"/><path d="M1331.64,1993.66c-5.820973-.001189-11.622473-.67227-17.29-2-45.15-10.54-73.79-49.81-80.64-110.59-1.120497-10.213299,2.828263-20.328445,10.572023-27.081307s18.30214-9.288509,28.267977-6.788693c10.714305,2.653847,21.638556,4.373622,32.65,5.14c13.484763,1.042073,27.047519-.312172,40.06-4c10.691584-2.945403,21.107339-6.813252,31.13-11.56c9.197347-4.441245,19.992121-4.067206,28.86,1c9.010527,5.121767,14.920273,14.35294,15.8,24.68c3,35.3-.52,98.41-57.91,124.41-9.898624,4.474746-20.636938,6.789449-31.5,6.79Zm-66.82-127.41c-3.214262.036237-6.264696,1.424263-8.403576,3.823843s-3.16848,5.588888-2.836424,8.786157c4.13,36.59,18.81,82.49,65.32,93.34c12.061551,2.80265,24.709777,1.565934,36-3.52v0c43.88-19.87,49.36-67.79,46.24-104.5-.299826-3.775278-2.464488-7.151701-5.77-9-3.141806-1.829963-6.988341-1.976177-10.26-.39-11.074886,5.25619-22.584655,9.54224-34.4,12.81-15.267319,4.323732-31.179333,5.911547-47,4.69-12.172864-.84691-24.248641-2.75414-36.09-5.7-.915865-.227696-1.856257-.341886-2.8-.34Z" transform="translate(-507.47-770.71)" fill="#000072"/><path d="M1299.59,2178.4c-84.65,0-165.73-18.64-233-54.12-101.84-53.73-171.12-145.6-200.34-265.69-63.08-259.24,64.69-478.72,70.16-487.94l3.27-5.51l321.39-110.93l6.35,18.39l2.58-19.29l337,45.08l4.31,4.76c7.18,7.95,175.89,197.78,165.41,464.37-4.86,123.5-54.56,227.28-143.75,300.12-72.27,59-170,97.33-275.23,107.85-19.46,1.95-38.91,2.91-58.15,2.91ZM963.52,1393.94c-18.84,34.91-117.58,233-63.23,456.37c58.81,241.68,273.09,308.45,454,290.35s377.72-126,387.49-374.52c9-229.64-127-404.27-152.38-434.8l-320.34-42.85-305.54,105.45Z" transform="translate(-507.47-770.71)" fill="#000072"/><path d="M1865.13,1321.79c-21.37,129.47-232.38,147.25-285.86,12-90.241774,79.073801-227.28334,70.918421-307.51-18.3-59.081458,100.158258-186.06282,136.79779-289.42,83.51-6.522982-3.358083-12.865054-7.056512-19-11.08-.07,3.86-.3,7.64-.72,11.38-6.010595,56.385082-46.785074,102.920714-101.891503,116.288071s-112.671067-9.313816-143.848497-56.678071c-.11-.15-.18-.26-.22-.3s0,0,0-.07c-.025882-.009151-.054118-.009151-.08,0-19.604651-30.061031-26.363986-66.71741-18.770478-101.793707s28.90827-65.655042,59.190478-84.916293c-41-108.59,29.65-241.61,162.64-301.6c105.6-47.73,219.75-35.44,289.46,23.07-1-2.38-35.32-84.76,27.42-111.77c54.28-23.34,96.91,24.74,116.08,62.64c3.037375,5.902848,5.640925,12.019018,7.79,18.3s13.39-56.28,77.24-50.45c26.74,2.45,38.13,21.18,42.32,42.13c5.83,29-2.11,62.22-2.11,62.22s23.52-31.32,69.32-35.89c41.38-4.17,74.06-1.82,125.92,28.1c75.46,43.61,92.21,108,94.75,147.62c0,0,85.67,19.71,98.6,109c2.38,16.42,2.31,35.18-1.25,56.62" transform="translate(-507.47-770.71)" fill="#fff"/><g opacity="0.300003"><path d="M1865.13,1321.79c-21.37,129.47-232.38,147.25-285.86,12-90.241774,79.073801-227.28334,70.918421-307.51-18.3-59.081458,100.158258-186.06282,136.79779-289.42,83.51-6.522982-3.358083-12.865054-7.056512-19-11.08-.07,3.86-.3,7.64-.72,11.38-5.320101,49.746478-37.851182,92.412013-84.414312,110.712025s-99.438634,9.200552-137.205688-23.612025c-14.79-14.94-22.55-25.42-24.1-27.54-.11-.15-.18-.26-.22-.3-.022098-.039781-.048963-.07672-.08-.11.025882-.009151.054118-.009151.08,0c3.79,1.34,161.5,56,183.85-127.42c1.26-10.35,14-14,20.81-6.06.44.52.89,1,1.32,1.44c0,0,85.14,70.08,213.67,15.24c93-39.66,122.3-125.91,131.4-170.56c1.009557-4.906931,4.881206-8.719162,9.803163-9.652712s9.920633,1.196241,12.656837,5.392712c11.954103,18.313177,20.928862,38.405973,26.59,59.53c15,56.44,68.56,94.28,126.85,90.61c5-.32,10.09-.82,15.37-1.53c62.3-8.46,113.39-60,139.73-92.08c8.6-10.49,25.62-4.82,26.07,8.74.46884,15.300782-1.807107,30.56182-6.72,45.06s15.28,96,123.11,86c77.2-7,116.16-48.64,125.16-98.08c2.38,16.42,2.31,35.18-1.25,56.62" transform="translate(-507.47-770.71)" fill="#000072"/></g><path d="M1260,1309c0,0,.52-1,.81-1.68l1.08-2.36c.71-1.66,1.41-3.36,2.06-5.15c1.31-3.53,2.58-7.2,3.77-10.94c2.4-7.49,4.37-15.31,6.25-23.25s3.34-16,5.06-24.25s3.26-16.55,5.27-25c.045139-.218372.177264-.408944.365933-.527805s.417608-.15576.634067-.102195c.290594.060773.524657.27565.61.56c1.31,4.16,2.37,8.37,3.42,12.6.87,4.24,1.65,8.52,2.3,12.81c1.187125,8.638802,1.768544,17.35006,1.74,26.07.079793,8.877796-.535419,17.748218-1.84,26.53-.670026,4.512791-1.598215,8.983459-2.78,13.39-.6,2.24-1.3,4.5-2.06,6.78-.42,1.16-.79,2.31-1.29,3.48s-.89,2.16-1.86,4c-3.480398,6.404577-11.434206,8.863709-17.922031,5.541074s-9.140851-11.213886-5.977969-17.781074l.36-.72Z" transform="translate(-507.47-770.71)" fill="#000072"/><path d="M1571.35,1323l6.57-6c2.32-2.22,4.67-4.47,6.95-6.81c4.683358-4.692509,9.100272-9.643593,13.23-14.83c4.26339-5.323168,8.155895-10.933052,11.65-16.79c3.65916-6.156421,6.996965-12.498251,10-19l.07-.15c.506141-1.103944,1.704578-1.71536,2.895438-1.477188s2.061949,1.263493,2.104562,2.477188c.657556,7.75172.284303,15.556409-1.11,23.21-1.366107,7.810792-3.676376,15.42662-6.88,22.68-4.707817,11.134944-11.430427,21.305307-19.83,30-1.45,1.45-2.91,2.87-4.48,4.24-1.69238,1.491402-3.472206,2.880535-5.33,4.16-5.779564,4.058752-13.71714,2.935133-18.143112-2.568284s-3.820864-13.497256,1.383112-18.271716l.92-.87Z" transform="translate(-507.47-770.71)" fill="#000072"/><path d="M957.37,1399.89c-1.893779-.991717-3.712021-2.121434-5.44-3.38-1.6-1.11-3-2.29-4.53-3.45-2.838381-2.364154-5.511317-4.920149-8-7.65-4.935922-5.358628-9.185288-11.3111-12.65-17.72-3.35-6.38-6.26-12.94-7.75-19.87-1.668973-6.788782-2.269515-13.796234-1.78-20.77.078879-1.242884.947702-2.294264,2.153455-2.60594s2.475243.18697,3.146545,1.23594l.11.17c3.53,5.64,6.64,11,10.2,16c3.331197,4.892365,7.007196,9.540832,11,13.91c3.863194,4.19956,8.082237,8.057258,12.61,11.53c2.18,1.77,4.5,3.29,6.72,4.87c1.14.71,2.27,1.49,3.4,2.11l2.85,1.6l1,.54c6.486584,3.589851,8.834851,11.758416,5.245,18.245s-11.758416,8.834851-18.245,5.245" transform="translate(-507.47-770.71)" fill="#000072"/><path d="M1494.79,1016.78c-.197634,1.013291-.451357,2.014831-.76,3-.25.82-.52,1.45-.78,2.18-.519834,1.320952-1.110697,2.612836-1.77,3.87-1.228109,2.367511-2.646085,4.63159-4.24,6.77-3.008411,4.053011-6.493445,7.72942-10.38,10.95-3.727695,3.107247-7.789313,5.790396-12.11,8-4.275605,2.212958-8.815387,3.872952-13.51,4.94-.408645.098707-.839806.029403-1.196935-.192393s-.610387-.577552-.703065-.987607c-.070701-.305911-.049835-.625863.06-.92v0c3.39-9,6.68-16.73,9.16-24.17c1.23-3.7,2.24-7.31,3.05-10.68.36-1.7.76-3.33,1-4.85.19-.76.24-1.49.36-2.14c0-.29.11-.67.11-.88s.11-.75,0-.08c.91354-5.680758,4.792731-10.440485,10.172354-12.481372s11.439737-1.051871,15.891359,2.593485s6.616254,9.391442,5.676287,15.067887" transform="translate(-507.47-770.71)" fill="#000072"/><path d="M829,1536.85c-77,0-143.12-58.53-150.94-136.71-5.386337-52.081793,16.615867-103.23228,58.13-135.14-34.57-115.24,40.44-249.51,176.19-310.78c92.81-41.92,193.71-41.12,269.48-.36-2.69-33.86,6.85-70.87,47.7-88.44c23.46-10.09,47.93-10,70.78.19c25.25,11.29,46.56,34.47,61,58.32c15.16-17.83,40.13-32.83,77.78-29.39c30.68,2.82,51.24,22.76,57.92,56.14c1.654588,8.634766,2.478349,17.408157,2.46,26.2c14.224172-7.589492,29.804111-12.302551,45.85-13.87c45.24-4.51,82-1,136.39,30.37c76.28,44.08,97.21,108.62,102.33,149.73c33,12.39,118.83,57.08,98.3,181.48v0c-10.66,64.55-64.92,111.32-138.23,119.16-60.87,6.5-134.18-17.07-171.21-82.62-33.703777,24.309667-73.25107,39.247302-114.61,43.29-67.211236,6.580841-134.050772-15.724454-183.84-61.35-67.860115,93.504913-193.287551,124.395873-296.81,73.1-13.46,63.92-67.41,113.27-133.46,119.88-5.07.55-10.16.8-15.21.8Zm223.52-578.3c-41.4,0-84.76,9.09-125.75,27.61-124.09,56-191.49,178.77-153.46,279.49c2.923932,7.756873.00091,16.500886-7,20.94-37.268883,23.567646-57.978287,66.206705-53.46,110.07c6.41,64.09,63.77,111,127.86,104.6c54.77-5.47,98.73-49.14,104.52-103.83.33-3.22.53-6.56.59-9.87.097351-6.400336,3.679414-12.237489,9.341718-15.222802s12.502357-2.64297,17.838282.892802c5.624973,3.683452,11.436011,7.074615,17.41,10.16c95.099229,49.037511,211.94071,15.338975,266.32-76.81c2.83351-4.795869,7.780947-7.956304,13.323624-8.511164s11.018422,1.562143,14.746376,5.701164c43.060022,47.680895,106.17807,72.120032,170.12,65.87c41.824725-4.093633,81.303311-21.235421,112.85-49c4.276239-3.761592,10.116186-5.20554,15.652665-3.870178s10.076064,5.282785,12.167335,10.580178c25.45,64.37,91.1,87.38,144.91,81.63c43.46-4.64,97.67-31,107.42-90.06c19.72-119.5-79.85-144.67-84.1-145.68-7.496247-1.786282-12.958681-8.241518-13.48-15.93-2.52-39.73-19.5-95.15-86-133.59-46.66-26.94-75.47-29.84-115.4-25.86-37.1,3.71-56.34,28.06-57.14,29.09-5.022114,6.547739-13.934166,8.700438-21.391364,5.167066s-11.435342-11.793707-9.548636-19.827066c.06-.27,6.94-30,2-54.7-4.64-23.21-16.75-27.24-26.79-28.16-46.64-4.25-57.53,32.95-58.62,37.21-1.893111,7.526199-8.511929,12.910154-16.265925,13.231216s-14.795251-4.497283-17.304075-11.841216c-7.1-21.12-28.33-57.31-57.71-70.44-14.07-6.28-28-6.28-42.67,0-45,19.37-21.07,81.92-18.19,89c3.052117,7.445924.639469,16.013546-5.849596,20.772667s-15.385712,4.485806-21.570404-.662667c-38.01-31.83-89.89-48.15-145.35-48.15h-.02Zm812.59,363.23v0Z" transform="translate(-507.47-770.71)" fill="#000072"/><g transform="translate(0 0.000001)"><ellipse rx="80.51" ry="92.98" transform="translate(625.65 941.21)" fill="#000072"/><ellipse rx="26.25" ry="33.23" transform="translate(647.52 914.32)" fill="#fff"/><g opacity="0.2"><ellipse rx="14.54" ry="22.49" transform="translate(595.63 972.54)" fill="#fff"/></g><ellipse rx="80.51" ry="92.98" transform="translate(977.02 917.15)" fill="#000072"/><ellipse rx="26.25" ry="33.23" transform="translate(955.15 890.26)" fill="#fff"/><g opacity="0.2"><ellipse rx="14.54" ry="22.49" transform="translate(1007.04 948.48)" fill="#fff"/></g></g></g></g></g><g id="e3SbyQCafEF87_tr" transform="translate(2436.77,1654.001327) rotate(0)"><g transform="translate(-2436.769996,-1654.001321)"><path d="M3526.7,2217.32c-13.87,18.49-31.59,40.28-53.38,64-97.77,106.2-277.7,250-562.34,296.92l-109.43-279.81c0,0,294.09-26.82,483.73-224.32q12.41-12.85,24.09-26.66c53.64-63.51,151-69.62,208.13-9.3c1.6,1.7,3.24,3.49,4.78,5.29c42.49,49.12,43.42,121.92,4.42,173.87" transform="translate(-507.47-770.71)" fill="#fff"/><path d="M3526.7,2217.32c-13.87,18.49-31.59,40.28-53.38,64-181.11-56.1-188-207.21-188-207.21q12.41-12.85,24.09-26.66c53.64-63.51,151-69.62,208.13-9.3c1.6,1.7,3.24,3.49,4.78,5.29c42.49,49.12,43.42,121.92,4.42,173.87" transform="translate(-507.47-770.71)" fill="#5d5e8c"/><g opacity="0.300003"><path d="M2881.73,2284.85l3.66,9.37c39.84,101.86,154.88,152.43,256.59,112.23c194.86-77,310.27-202.22,363.36-272.91c17.084907-22.748949,26.077808-50.554787,25.55-79c33.76,48.52,32,114.57-4.19,162.71-76.08,101.31-267.65,303.64-615.73,360.95l-109.44-279.81c0,0,31.36-2.85,80.2-13.58" transform="translate(-507.47-770.71)" fill="#000072"/></g><g opacity="0.600006"><path d="M3532.89,2077.6c-1.57-1.81-3.18-3.58-4.8-5.3-57.18-60.34-154.46-54.19-208.14,9.28-177.74,210.12-478.1,237.86-508.89,241.21l-9.53-24.36c0,0,320.2-29.17,507.82-251c53.69-63.47,151-69.62,208.15-9.28q2.43,2.58,4.8,5.3c16.037116,18.58984,26.67237,41.219586,30.75,65.43-5.226437-11.319932-12.012331-21.852204-20.16-31.29" transform="translate(-507.47-770.71)" fill="#fff"/></g><path d="M2899.83,2597.81l-123.07-314.67l23.18-2.13c3.13-.29,315.41-31.32,496-244.87c29.648621-35.127592,72.833976-55.993121,118.78-57.39c44.35-1.25,85.3,15.58,115.43,47.37c1.8,1.9,3.58,3.87,5.33,5.89c47.19,54.6,49.36,136.94,5.16,195.79-84.63,112.71-278.62,310.37-626.88,367.71l-13.93,2.3ZM2826,2313l96,245.55c327.43-58.25,510.28-244.8,590.63-351.81c34.38-45.78,32.85-109.65-3.65-151.88-1.38-1.6-2.81-3.17-4.25-4.69-23.2-24.49-54.87-37.44-89-36.47-35.999427,1.106547-69.830413,17.467583-93.05,45C3159.73,2251.43,2904,2301.82,2826,2313Z" transform="translate(-507.47-770.71)" fill="#000072"/></g></g><g id="e3SbyQCafEF95_tr" transform="translate(2416.527101,2165.66) rotate(3.628966)"><g transform="translate(-2416.527098,-2165.66)"><path d="M2875.79,2998.63l14.75-79.23l10.89-58.72c0,0,178.54,54.61,289.93-56.77c0,0,2.93,7.75,3.7,20.24c2.92,45.47-22.25,153.41-319.27,174.48" transform="translate(-507.47-770.71)" fill="#fff"/><g opacity="0.300003"><path d="M2875.79,2998.63l14.75-79.23c224.62,37,300.51-96,300.51-96s1.39.2,4,.72c2.92,45.47-22.25,153.41-319.27,174.48" transform="translate(-507.47-770.71)" fill="#000072"/></g><path d="M2854.44,3017.69l33.35-179.49l18.74,5.74c2.56.77,170.27,49.78,272.46-52.41l19.23-19.23l9.54,25.47c.73,1.95,17.54,48.42-15,99-43.24,67.35-149.48,107.48-315.78,119.28l-22.54,1.64Zm60.77-135.47l-18.05,97.14c174.72-15.77,241-63,265.67-100.66c7.936791-11.835193,12.919465-25.401235,14.53-39.56-94.47,70.61-215.79,53.32-262.15,43.08Z" transform="translate(-507.47-770.71)" fill="#000072"/><path d="M3273.46,2803.29c-9.25,49.89-45,59-69.92,58.93-16.720145.048542-32.406397-8.0859-42-21.78-3.474622-4.980467-6.40157-10.321394-8.73-15.93-4.467547-10.550369-5.770451-22.172277-3.75-33.45c1.358964-6.978877,3.913178-13.670579,7.55-19.78c2.068881-3.548793,4.409196-6.932221,7-10.12c42.08-52.2,73.22-36.63,65-106.2c0,0,59.49,69.57,44.85,148.33" transform="translate(-507.47-770.71)" fill="#5d5e8c"/><g opacity="0.300003"><path d="M3273.46,2803.29c-9.25,49.89-45,59-69.92,58.93-16.720145.048542-32.406397-8.0859-42-21.78-3.474622-4.980467-6.40157-10.321394-8.73-15.93l-3.75-33.45c1.358964-6.978877,3.913178-13.670579,7.55-19.78c10.49,19.37,27.6,35.76,55.34,32.63c63-7.09,16.7-148.95,16.7-148.95s59.49,69.57,44.85,148.33" transform="translate(-507.47-770.71)" fill="#000072"/></g><path d="M3203.69,2879.74h-.19c-22.478725.049651-43.554736-10.919888-56.41-29.36-22.85-33.09-21.8-69.61,2.89-100.19c15.68-19.44,29.8-30.15,41.13-38.75c18.72-14.2,24.38-18.49,20.12-54.42l-6.77-57.22l37.45,43.79c2.65,3.1,64.77,76.92,48.76,162.91-8.67,46.55-40.35,73.24-86.98,73.24Zm37.5-171.51c-6.05,13-16.19,21.44-28.92,31.1-10.34,7.83-22.05,16.72-35.06,32.84-15.08,18.69-15.51,37.76-1.32,58.31c6.322314,9.003168,16.658932,14.33217,27.66,14.26h.15c29.78,0,47-14.6,52.57-44.65c6.38-34.29-3.45-67.24-15.08-91.86Z" transform="translate(-507.47-770.71)" fill="#000072"/></g></g><path d="M2944.13,2896.08v234.13c0,0,22,169.95-170.89,169.95s-171.34-157.47-171.34-157.47v-102.55c0,0-38.64,12.23-107,12.23-67.31,0-105.79-11.87-107-12.18l-.05-.05v102.55c0,0,21.53,157.47-171.34,157.47-139.8,0-166.78-89.29-171-138.41-.967778-10.492679-.934293-21.053669.1-31.54v-234.13c-65.1-132.3-83.39-253.76-76.55-359.65c12.07-187,102.54-325.07,152.12-387.71c19.27-24.3,32.38-37.19,32.38-37.19h682.71c0,0,78,77,133,208.23c31.49,75.17,55.33,168.11,52.66,274.67-2.31,91.46-24.25,192.88-77.73,301.65" transform="translate(-507.47-770.71)" fill="#fff"/><path d="M2216.5,3300.17c-192.87,0-170.94-170-170.94-170s155.32,81.54,342.29,0v12.49c0,0,21.53,157.47-171.35,157.47" transform="translate(-507.47-770.71)" fill="#5d5e8c"/><path d="M2773.24,3300.17c192.87,0,170.94-170,170.94-170s-155.32,81.54-342.29,0v12.49c0,0-21.52,157.47,171.35,157.47" transform="translate(-507.47-770.71)" fill="#5d5e8c"/><path d="M2725,2755.68c0,99.79-103,180.69-230.13,180.69s-230.14-80.9-230.14-180.69s103-180.69,230.14-180.69s230.13,80.9,230.13,180.69" transform="translate(-507.47-770.71)" fill="#fcdada"/><path d="M2251.28,2376c-36.89,125.73-149.15,203.46-250.72,173.66-10.964995-3.240713-21.544125-7.666846-31.55-13.2c16.75-259.46,184.5-424.9,184.5-424.9h19.22c75.68,46.75,110.51,155.73,78.55,264.44" transform="translate(-507.47-770.71)" fill="#5d5e8c"/><path d="M3021.86,2594.43c-2.31,91.46-24.25,192.88-77.73,301.65v96.13c-4.458579-.798854-8.868839-1.847167-13.21-3.14-87-25.54-131.84-133.53-100.24-241.22c28.82-98,111.08-162,191.18-153.42" transform="translate(-507.47-770.71)" fill="#5d5e8c"/><g opacity="0.300003"><path d="M2216.5,3300.17c-139.8,0-166.77-89.29-171-138.42c62.58,86.27,219,79.49,232,.21c18.29-111.39-29.23-182.85-29.23-182.85c52.5,35.4,139.59,61,139.59,61v102.59c0,0,21.53,157.47-171.35,157.47" transform="translate(-507.47-770.71)" fill="#000072"/></g><g opacity="0.300003"><path d="M2773.24,3300.17c139.8,0,166.77-89.29,171-138.42-62.58,86.27-219,79.49-232,.21-18.28-111.39,29.24-182.85,29.24-182.85-52.51,35.4-139.6,61-139.6,61v102.59c0,0-21.52,157.47,171.35,157.47" transform="translate(-507.47-770.71)" fill="#000072"/></g><g opacity="0.300003"><path d="M2969.2,2319.76c-125.27,30.11-277.29,33-436,2-163.28-32-306.47-94.64-412.06-173c19.27-24.31,32.37-37.2,32.37-37.2h682.72c0,0,78,77,133,208.23" transform="translate(-507.47-770.71)" fill="#000072"/></g><path d="M2598,3022.32c11.18-2.46,23.56-5.55,35.36-8.7s23.81-6.73,35.64-10.5s23.52-8,35.19-12.54s23.22-9.46,35.08-14.54l.13-.06c1.672749-.712867,3.616157-.151334,4.650908,1.343845s.875586,3.511815-.380908,4.826155c-9.121811,9.596731-19.137045,18.302719-29.91,26-10.766205,7.690115-22.053345,14.623452-33.78,20.75-11.680781,6.227485-23.6994,11.799451-36,16.69-12.447344,5.019831-25.228046,9.1698-38.25,12.42-9.692918,2.168589-19.340334-3.812644-21.708321-13.458787s3.413054-19.414835,13.008321-21.981213l.35-.09.62-.16Z" transform="translate(-507.47-770.71)" fill="#000072"/><path d="M2384,3058c-13.024096-3.249977-25.80791-7.396531-38.26-12.41-12.297993-4.900365-24.316257-10.475504-36-16.7-11.722135-6.128877-23.005791-13.062128-33.77-20.75-10.771042-7.699705-20.786055-16.405501-29.91-26-1.249498-1.313742-1.406648-3.323617-.376527-4.8156s2.965257-2.057266,4.636527-1.3544l.14.06c11.86,5.08,23.32,10.14,35.08,14.54s23.36,8.73,35.19,12.54s23.7,7.32,35.64,10.5s24.18,6.24,35.36,8.7l.51.11c9.841714,2.162195,16.067195,11.893286,13.905,21.735s-11.893286,16.067195-21.735,13.905l-.43-.1" transform="translate(-507.47-770.71)" fill="#000072"/><path d="M2839.39,2108.3c13.573339,11.68945,26.339229,24.28495,38.21,37.7c12,13.26,23.28,27.13,34,41.47s20.65,29.25,30.4,44.32l13.7,23.17c4.28,7.89,8.74,15.7,12.89,23.68c33,63.94,55.15,133.69,66.32,205.24c5.72,35.79,7.58,72.15,7.22,108.39-.3,9.06-.48,18.13-.9,27.19l-2.34,27.09c-.59,9.06-2,18-3.33,27s-2.36,18-4.23,26.83c-3.82,17.7-7,35.56-12.13,52.9-2.4,8.71-4.6,17.5-7.32,26.1l-8.74,25.63-4.38,12.81c-1.59,4.21-3.36,8.36-5,12.55l-10.16,25c-3.22,8.42-7.49,16.35-11.3,24.49l-11.74,24.27l1.88-8.06v234.15l-.16-2.34c.47,4,.6,6.79.75,10.09s.17,6.3.14,9.42c0,6.25-.43,12.45-1,18.65-1.231166,12.477352-3.645353,24.80946-7.21,36.83-7.14,24.17-20.11,47.52-38.59,65.88-9.122877,9.193436-19.462362,17.093569-30.73,23.48-5.47,3.41-11.31,5.94-17.05,8.7-2.91,1.25-5.88,2.3-8.82,3.46-2.908182,1.188458-5.879303,2.216666-8.9,3.08-23.92,7.5-48.4,10.46-72.4,10.82s-48.1-1.51-72.21-7.15c-24-6-48-15.89-68.34-32.3-20.336693-16.470978-35.763511-38.206879-44.6-62.84-4.364485-11.954001-7.347207-24.36803-8.89-37-.804644-6.270087-1.265334-12.579533-1.38-18.9-.08-3.16-.06-6.33.06-9.56s.27-6.12.77-10.28l-.17,2.46v-102.57l23.74,17.39c-3.07.93-5.14,1.44-7.63,2.07l-7.09,1.63c-4.7,1-9.37,1.91-14,2.71-9.33,1.61-18.64,2.83-28,3.83-37.118357,3.759998-74.521643,3.759998-111.64,0-9.31-1-18.62-2.22-27.95-3.83-4.67-.8-9.33-1.67-14-2.71l-7.09-1.63c-2.49-.63-4.56-1.14-7.63-2.07l23.74-17.39v102.54l-.17-2.46c.49,4.16.64,6.94.77,10.28s.14,6.4.07,9.56c-.122989,6.320418-.586997,12.629593-1.39,18.9-1.534624,12.632462-4.514123,25.047039-8.88,37-8.848876,24.629278-24.277534,46.362901-44.61,62.84-20.34,16.41-44.4,26.34-68.34,32.3-24.11,5.64-48.28,7.45-72.21,7.15s-48.49-3.32-72.41-10.82c-3.016949-.864836-5.98466-1.89302-8.89-3.08-2.94-1.16-5.91-2.21-8.82-3.46-5.74-2.76-11.57-5.29-17-8.7-11.267638-6.386431-21.607123-14.286564-30.73-23.48-18.48-18.36-31.45-41.71-38.59-65.88-3.564647-12.02054-5.978834-24.352648-7.21-36.83-.59-6.2-1-12.4-1-18.65c0-3.12,0-6.25.14-9.42s.28-6.06.75-10.09l-.15,2.34v-234.11l1.87,8.06c-31.56-64.49-55.23-133.2-68.55-204.19-12.79-71-14.75-144.28-4.41-215.87c10.367089-71.587659,31.675875-141.156564,63.18-206.27c15.524357-32.515627,33.377493-63.867229,53.42-93.81c9.94-15,20.6-29.59,31.71-43.84q8.34-10.68,17.21-21c6-7,11.8-13.5,18.78-20.62c7.13347-6.718752,18.301001-6.600368,25.290437.268097s7.302759,18.032228.709563,25.281903l-.42.43c-5.34,5.45-11.29,12-16.71,18.4s-10.94,13-16.19,19.79c-10.51,13.48-20.65,27.31-30.1,41.62-19.129912,28.488233-36.174375,58.322726-51,89.27-29.909877,61.748825-50.146366,127.729897-60,195.63-9.77,67.69-7.92,136.84,4.19,204.17c12.65,67.3,35.12,132.77,65.39,194.63v0c1.206854,2.494875,1.839023,5.228579,1.85,8v234.15c-.000096.69506-.040162,1.38954-.12,2.08v.26c-.19,1.6-.39,4.52-.47,6.9s-.14,5.06-.12,7.61c0,5.11.37,10.25.84,15.36c1.006781,10.141371,2.96541,20.165536,5.85,29.94c5.75,19.35,15.67,36.85,29.43,50.57c6.894317,6.962043,14.722487,12.932452,23.26,17.74c4.17,2.64,8.81,4.58,13.29,6.79c2.3,1,4.7,1.81,7,2.74c2.343048.977417,4.744297,1.809004,7.19,2.49c19.47,6.11,40.54,8.8,61.92,9.1s42.92-1.41,63.08-6.12c20-5,38.87-13,54-25.25c15.173709-12.321854,26.663299-28.582339,33.21-47c3.442892-9.388744,5.791737-19.143161,7-29.07.638643-4.999928,1.009173-10.030459,1.11-15.07.06-2.52,0-5-.05-7.49s-.29-5.21-.46-6.69l-.05-.44c-.07801-.663841-.118075-1.331593-.12-2v-102.48c.003458-5.763372,2.727656-11.186832,7.348965-14.630662s10.597237-4.503763,16.121035-2.859338l.27.09c1.24.37,3.53,1,5.4,1.44l6.07,1.4c4.09.9,8.28,1.68,12.48,2.41c8.42,1.44,17,2.57,25.56,3.49c34.578798,3.490624,69.421202,3.490624,104,0c8.59-.92,17.14-2,25.55-3.49c4.2-.73,8.39-1.51,12.48-2.41l6.07-1.4c1.87-.46,4.17-1.07,5.41-1.44l.19-.06c9.636789-2.926705,19.822768,2.506414,22.76,12.14.517411,1.725948.780179,3.518165.78,5.32v102.54c.002674.668249-.034056,1.336075-.11,2l-.05.45c-.17,1.48-.4,4.37-.46,6.69s-.11,5-.05,7.49c.095846,5.039773.466396,10.070573,1.11,15.07c1.21289,9.926003,3.561608,19.679894,7,29.07c6.557789,18.417136,18.053492,34.676481,33.23,47c15.13,12.23,34,20.23,54,25.25c20.18,4.71,41.64,6.42,63.09,6.12s42.45-3,61.92-9.1c2.445213-.682564,4.846367-1.514118,7.19-2.49c2.34-.93,4.74-1.76,7-2.74c4.48-2.21,9.12-4.15,13.28-6.79c8.538902-4.810014,16.370051-10.780129,23.27-17.74c13.77-13.72,23.68-31.22,29.42-50.57c2.894117-9.77213,4.852924-19.797205,5.85-29.94.49-5.11.83-10.25.84-15.36c0-2.55,0-5.11-.11-7.61s-.28-5.3-.47-6.9v-.25c-.079268-.693856-.119332-1.391631-.12-2.09v-234.17c-.05007-2.252569.372337-4.490641,1.24-6.57l.63-1.48c6.72-15.86,13.89-31.5,20.32-47.42l9.12-24.06c1.5-4,3.09-8,4.52-12l3.86-12.25l7.73-24.49c2.35-8.21,4.28-16.54,6.53-24.78c4.77-16.44,7.56-33.3,11.06-50c5.47-33.61,10.14-67.5,10.36-101.59.7-34-.39-68.21-5.33-102-4.533171-33.878-11.586055-67.370845-21.1-100.2-9.686209-32.929292-21.620916-65.155005-35.72-96.45-3.43-7.89-7.18-15.63-10.76-23.47l-11.61-23.11c-8-15.3-16.28-30.48-25.22-45.3-17.598832-29.964137-37.147613-58.739462-58.52-86.14l-.15-.18c-1.460982-1.837237-1.284556-4.484337.407321-6.11144s4.343844-1.700113,6.122679-.16856" transform="translate(-507.47-770.71)" fill="#000072"/><g id="e3SbyQCafEF119_to" transform="translate(2062.907845,1378.25582)"><g id="e3SbyQCafEF119_tr" transform="rotate(-8.189041)"><g transform="translate(-2062.907844,-1378.255809)"><g transform="translate(.000001 0)"><path d="M2594.66,979.75l-100.6,32.9-159,52.14c-76.3-113.47-45.53-209.32-14.8-262.32c5.352276-9.188629,15.340756-14.670991,25.966304-14.252085s20.151421,6.670609,24.763696,16.252085c68.54,143.09,223.69,175.25,223.69,175.25" transform="translate(-507.47-770.71)" fill="#f9c594"/><g opacity="0.300003"><path d="M2494.06,1012.65l-159,52.14c-76.29-113.48-45.53-209.32-14.8-262.32c4.198527-7.299587,11.423854-12.35585,19.72-13.8-10.78,70.67-12.19,215,154.1,224" transform="translate(-507.47-770.71)" fill="#000072"/></g><path d="M2327.93,1085.5l-7.38-11c-83.28-123.85-45.4-229.1-15.41-280.81c8.602889-14.800359,24.681654-23.633567,41.787273-22.956718s32.436168,10.752884,39.842727,26.186718c63.84,133.2,210,165.39,211.48,165.7l63.85,13.46-334.17,109.42Zm17.16-279.79c-3.99834-.067669-7.711547,2.063489-9.67,5.55-30.49,52.57-53.16,134.87,7,232.66l196.05-64.18c-54.18-22.45-136.91-70.87-183.3-167.67-1.76337-3.783914-5.516734-6.243549-9.69-6.35l-.39-.01Z" transform="translate(-507.47-770.71)" fill="#000072"/><path d="M2988.18,1056.83l80.75,68.43l127.6,108.28c113.47-76.3,121.14-176.67,112.67-237.35-1.494013-10.528136-8.680972-19.370062-18.681751-22.983666s-21.179627-1.407835-29.058249,5.733666c-117.46,106.65-273.28,77.89-273.28,77.89" transform="translate(-507.47-770.71)" fill="#f9c594"/><g opacity="0.300003"><path d="M3068.94,1125.26l127.6,108.27c113.47-76.29,121.14-176.67,112.67-237.34-1.141281-8.332023-5.921613-15.7278-13.05-20.19-16.69,69.51-69.84,203.73-227.22,149.29" transform="translate(-507.47-770.71)" fill="#000072"/></g><path d="M3195.3,1255.4l-268.51-227.65l64.53,11.89c1.71.31,149.07,25.52,258.36-73.67c12.679011-11.502434,30.678131-15.052905,46.775334-9.226812s27.654524,20.073988,30.034666,37.026812c8.28,59.19,3.66,171-120.2,254.24l-10.99,7.39ZM3040.19,1078l157.35,133.4c92.65-67.86,102.7-152.63,94.29-212.8-.581594-4.107107-3.385542-7.556425-7.287296-8.964577s-8.262261-.544501-11.332704,2.244577c-79.49,72.12-174.38,85.78-233.02,86.12Z" transform="translate(-507.47-770.71)" fill="#000072"/><path d="M2323.19,1039.41c-25,23.08-53.14,62-78.68,101.79-43.09,67.13-78.73,136.65-78.73,136.65-26.274773-5.115159-52.220889-11.793695-77.7-20-78.88-25.76-129.3-60.18-157.7-84.61-17.43-14.94-16.79-42.42,1.77-56c164.68-120,391-77.88,391-77.88" transform="translate(-507.47-770.71)" fill="#5d5e8c"/><path d="M1984.45,1130.24c0,0,57.77,71.15,176.68,86.2l74.06-94.22c0,0-114.61-39.31-250.74,8" transform="translate(-507.47-770.71)" fill="#f3acc8"/><g opacity="0.300003"><path d="M2244.51,1141.21c-43.08,67.13-78.73,136.64-78.73,136.64-26.272809-5.109308-52.215944-11.787937-77.69-20c136.51-161.67-103.63-125.79-110.82-124.7c142.39-50.74,253.05-10.65,253.05-10.65l14.19,18.71Z" transform="translate(-507.47-770.71)" fill="#000072"/></g><g opacity="0.600006"><path d="M1925.13,1153.1c133.3-97.12,306.95-88,368.32-81.06c10.16-12.62,20.19-23.8,29.74-32.63c0,0-226.35-42.1-391,77.88-13.22,9.66-17.17,26.35-12.15,40.58c1.545408-1.758306,3.264093-3.356382,5.13-4.77" transform="translate(-507.47-770.71)" fill="#fff"/></g><path d="M1976,1130.82c20.62-12.73,43.4-20.74,66.7-26.5c23.445814-5.5721,47.345559-9.022686,71.41-10.31c24.229117-1.457791,48.541975-.607293,72.61,2.54c24.23,2.54,47.94,8.57,71.35,15.4c6.443953,1.661485,11.471641,6.700527,13.118586,13.148212s-.348266,13.2806-5.206041,17.828907-11.807058,6.090073-18.132545,4.022881l-.32-.09-1.06-.34-16-5.08c-5.35-1.67-10.61-3.69-16.09-4.89-10.89-2.64-21.7-5.8-32.79-7.68-22-4.77-44.55-6.69-67.17-8s-45.46.19-68.14,2.9c-22.894271,2.642563-45.620617,6.578858-68.07,11.79h-.19c-1.266132.288925-2.55581-.378662-3.050905-1.579266s-.050856-2.583208,1.050905-3.270734" transform="translate(-507.47-770.71)" fill="#000072"/><path d="M2175.35,1297.56l-12.94-2.53c-125.38-24.56-201.6-72.56-243.47-108.5-12.465216-10.65346-19.338883-26.447406-18.64-42.83.573484-16.098263,8.520812-31.037765,21.55-40.51c168.8-123,395-82.8,404.55-81l34.29,6.36-25.6,23.69c-64.08,59.29-152.85,231.87-153.74,233.61l-6,11.71Zm53.4-247.63c-78.5,0-193.41,13.86-286.29,81.54-4.378892,3.179545-7.034859,8.210736-7.19,13.62-.248023,5.691355,2.138458,11.179894,6.47,14.88c37.25,32,104.36,74.38,214.63,98.09c18.86-35.68,76.91-142.15,130.51-205.57-15.28-1.37-35.14-2.56-58.13-2.56Z" transform="translate(-507.47-770.71)" fill="#000072"/><path d="M3217.08,1214.51c14.42,30.8,25.82,77.46,34.47,124c14.56,78.42,21.35,156.24,21.35,156.24c26.257738,5.187449,52.801552,8.803873,79.49,10.83c82.77,5.9,142.45-7,178-18.86c21.78-7.26,31.56-33,19.5-52.51-107.25-173.26-332.77-219.66-332.77-219.66" transform="translate(-507.47-770.71)" fill="#fff"/><path d="M3496.52,1426.43c0,0-80.34,44.09-196.15,13.17l-33-115.2c0,0,121,6.84,229.19,102" transform="translate(-507.47-770.71)" fill="#f3acc8"/><g opacity="0.300003"><path d="M3251.55,1338.47c14.56,78.42,21.35,156.24,21.35,156.24c26.257738,5.187449,52.801552,8.803873,79.49,10.83-65.43-201.22,143.43-77.4,149.67-73.67-112.73-100.71-230.33-105.35-230.33-105.35l-20.18,11.95Z" transform="translate(-507.47-770.71)" fill="#000072"/></g><g opacity="0.600006"><path d="M3542.83,1470c-86.8-140.23-251-197.35-310.52-214-4.64-15.52-9.71-29.65-15.22-41.44c0,0,225.51,46.41,332.75,219.67c8.6,13.93,6,30.87-4.06,42.15-.778125-2.214548-1.783487-4.342564-3-6.35" transform="translate(-507.47-770.71)" fill="#fff"/></g><path d="M3500.27,1433.77c-18.820266-13.292756-38.378247-25.508982-58.58-36.59-20-11.07-40.58-20.94-62-28.39s-43-14.1-65.2-18c-11-2.44-22.19-3.59-33.27-5.25-5.52-1-11.16-1.08-16.74-1.55l-16.75-1.34-1-.08c-10.043298-.803574-17.533574-9.596702-16.73-19.64s9.596702-17.533574,19.64-16.73h.42c24.26,2.51,48.49,5.87,71.9,12.66c23.469871,6.156811,46.302288,14.527693,68.19,25c21.805836,10.273013,42.640299,22.492551,62.25,36.51c19.4,14.12,37.47,30.13,51.77,49.7.762988,1.051921.654246,2.501149-.257176,3.427431s-2.358702,1.058447-3.422824.312569l-.22-.04Z" transform="translate(-507.47-770.71)" fill="#000072"/><path d="M3393.87,1524.57c-36.42,0-77.85-3.57-124.34-12.68l-12.93-2.53-1.14-13.13c-.16-1.94-17.28-195.32-54.23-274.35l-14.77-31.59l34.16,7c9.51,2,234.17,50,344.09,227.66c8.486194,13.691942,10.20461,30.525779,4.66,45.65-5.534704,15.437429-17.863065,27.470766-33.43,32.63-32.94,11.04-80.26,21.34-142.07,21.34Zm-104.79-44.63c111.07,19.64,189.21,5.69,235.77-9.87c5.408357-1.792813,9.690446-5.975317,11.61-11.34c1.901365-5.06543,1.339648-10.726942-1.52-15.32-78.18-126.35-224.43-183.26-289.17-203.09c25.71,78.95,39.3,199.46,43.31,239.62Z" transform="translate(-507.47-770.71)" fill="#000072"/><path d="M3286.19,1788.33c-7.39,33.5-13.65,53.09-13.65,53.09L2035.29,1599.07c0,0,2.09-26.82,10.12-69.68c12.29-66.09,38.53-170.16,92.58-272.42c86.58-163.45,244.15-322.1,529.33-312.16c42.27,1.5,87.27,6.68,135.33,16.1c591.42,115.85,521.84,655.16,483.54,827.42" transform="translate(-507.47-770.71)" fill="#fff"/><path d="M2662.88,972.66c-41.08,209.73-244.36,346.42-454.09,305.33-24.223845-4.692871-47.935011-11.725844-70.8-21c86.58-163.45,244.16-322.1,529.33-312.16-1.17,9.25-2.62,18.55-4.44,27.85" transform="translate(-507.47-770.71)" fill="#5d5e8c"/><g opacity="0.300003"><path d="M3286.19,1788.33c-7.39,33.5-13.65,53.09-13.65,53.09L2035.29,1599.07c0,0,2.09-26.82,10.12-69.68c153.52-88.62,394.13-119.75,650.67-69.5c267.92,52.48,486.07,180.54,590.11,328.44" transform="translate(-507.47-770.71)" fill="#000072"/></g><g opacity="0.600006"><path d="M2802.65,960.91c-48.06-9.42-93.06-14.6-135.33-16.1-285.18-9.94-442.75,148.71-529.32,312.19-89,168.46-102.7,342.1-102.7,342.1l25.83,5.07c4.27-38,24.45-181,98.18-320.5c54.27-102.46,137.49-202.91,264.5-258.19c10.79,17.27,51.39,23,96.5,12.51c45.63-10.63,79.79-34.14,81.11-54.57c22.964536-1.57794,45.995401-1.965125,69-1.16c40.82,1.45,84.26,6.46,130.68,15.55c635.88,124.55,480.33,756.13,456.48,840.71l15,2.94c0,0,236.28-742.2-469.89-880.52" transform="translate(-507.47-770.71)" fill="#fff"/></g><path d="M3284.52,1861.58L2016.6,1613.22l1.23-15.55c1.19-15.15,32.1-373.3,279.62-561.2C2431.11,935,2602.22,903.78,2806,943.71s350.5,133.38,436,277.78c158.33,267.41,51.84,610.75,47.23,625.23l-4.71,14.86ZM2054.43,1585l1205.72,236.18c18.36-68.59,84-358.65-48.34-582-80.21-135.35-219-223.19-412.51-261.1s-355.18-8.91-480.53,86.17c-206.85,156.88-255.47,450.27-264.34,520.75Z" transform="translate(-507.47-770.71)" fill="#000072"/><path d="M3285.9,2011.88c-41.65,212.62-376.35,326-747.56,253.33s-638.38-304-596.73-516.65s376.34-326,747.55-253.34s638.39,304,596.74,516.66" transform="translate(-507.47-770.71)" fill="#fcdada"/><g opacity="0.600006"><path d="M2689.17,1495.22c-371.22-72.71-705.91,40.71-747.56,253.34-8.5,43.39-3.95,87.54,11.53,131-6-30.6-6.59-61.32-.65-91.67c26.37-134.6,170.24-229.36,366.39-262.39c8,14.31,36.08,23,68.5,20c32.65-3,58.86-16.84,63.85-32.5c78.87-2.06,162.83,4.68,248.82,21.53c295.47,57.87,524.83,216.24,585.2,385.67-36.29-183.75-277.85-362.65-596.08-425" transform="translate(-507.47-770.71)" fill="#fff"/></g><path d="M2583.76,2083.62c150.35,29.45,188.51-109.9,198.08-174.62c1.185414-7.760009-1.009457-15.656139-6.029467-21.69124s-12.384409-9.631205-20.230533-9.87876c-31.66-1-66.36-4.73-91.78-7.94-24.75557-3.137559-49.271244-7.941802-73.38-14.38-24.75-6.6-58.3-16.27-88-27.27-7.36105-2.73092-15.539161-2.179107-22.466625,1.515922s-11.941131,10.17956-13.773375,17.814078c-15.55,63.55-32.78,207,117.57,236.45" transform="translate(-507.47-770.71)" fill="#000072"/><path d="M2611.57,1941.64c-105.91-20.75-142.52,55.5-142.52,55.5c31.26,84,114.71,86.48,114.71,86.48s78.21,29.2,138.85-36.81c0,0-5.13-84.43-111-105.17" transform="translate(-507.47-770.71)" fill="#ed7696"/><path d="M2519.33,1580.07c8.14,15.13,4.54,32.87-8,39.63s-29.37,0-37.5-15.13-4.53-32.87,8-39.63s29.37,0,37.5,15.13" transform="translate(-507.47-770.71)" fill="#000072"/><path d="M2809.8,1637c-13.24,10.94-16.6,28.73-7.5,39.74s27.19,11.06,40.43.12s16.6-28.72,7.51-39.73-27.24-11.13-40.44-.13" transform="translate(-507.47-770.71)" fill="#000072"/><path d="M2760.47,2304.8c-73.08,0-149-7.44-225.5-22.41-182.48-35.75-346.3-110.25-461.28-209.81C1956,1970.72,1903,1854.45,1924.44,1745.19s114.35-196.92,261.74-246.87c144-48.81,323.86-56,506.35-20.27s346.3,110.26,461.28,209.81c117.65,101.86,170.66,218.13,149.26,327.38v0c-21.4,109.26-114.36,196.93-261.75,246.88-83.69,28.37-179.49,42.68-280.85,42.68Zm-293.55-814.19c-97.48,0-189.37,13.7-269.51,40.85-135,45.75-219.74,124-238.63,220.46s30.06,200.9,137.82,294.2c110.44,95.62,268.51,167.33,445.1,201.92c361.14,70.73,687.29-36.71,727-239.53s-221.7-425.37-582.9-496.11c-74.31-14.56-148.07-21.79-218.88-21.79Z" transform="translate(-507.47-770.71)" fill="#000072"/><ellipse rx="109.24" ry="94.6" transform="matrix(.137099-.990557 0.990557 0.137099 2495.539981 726.143729)" fill="#000072"/><ellipse rx="39.05" ry="30.84" transform="matrix(.137099-.990557 0.990557 0.137099 2474.410311 691.333065)" fill="#fff"/><g opacity="0.2"><ellipse rx="26.42" ry="17.08" transform="matrix(.137099-.990557 0.990557 0.137099 2525.472097 767.427073)" fill="#fff"/></g><ellipse rx="109.24" ry="94.6" transform="matrix(.288698-.95742 0.95742 0.288698 1940.798516 606.374611)" fill="#000072"/><ellipse rx="39.05" ry="30.84" transform="matrix(.288698-.95742 0.95742 0.288698 1974.540434 583.546051)" fill="#fff"/><g opacity="0.2"><ellipse rx="26.42" ry="17.08" transform="matrix(.288698-.95742 0.95742 0.288698 1896.391237 631.412641)" fill="#fff"/></g><path d="M2623.09,2100.15c-14.014776-.071965-27.989775-1.498601-41.73-4.26v0c-50.75-9.94-88.16-33.23-111.17-69.24-38.24-59.84-26.53-140-16.14-182.44c2.679809-11.095823,9.978042-20.515355,20.052924-25.881491s21.964018-6.16628,32.667076-2.198509c29.83,11,63.71,20.73,86.87,26.91c23.57074,6.291173,47.538259,10.988459,71.74,14.06c23.84,3,58.92,6.82,90.6,7.85c11.411238.360117,22.122851,5.586455,29.429528,14.359054s10.509829,20.252717,8.800472,31.540946c-6.4,43.22-25.79,121.87-83.79,162.86-24.91,17.6-54.17,26.44-87.33,26.44Zm-36.93-28.8c43.78,8.58,80.74,2.5,109.83-18.06c50.4-35.62,67.68-106.84,73.49-146.12.670826-4.264952-.536164-8.611577-3.31-11.92-2.724159-3.282775-6.735387-5.226397-11-5.33-32.64-1.05-68.56-5-92.94-8-25.300627-3.217127-50.356898-8.128156-75-14.7-23.68-6.32-58.36-16.24-89.1-27.62-3.981797-1.513366-8.423767-1.228905-12.18.78-3.82072,2.021861-6.583451,5.593729-7.58,9.8-9.44,38.56-20.3,111,12.93,163c19.18,30,51.12,49.59,94.9,58.17h-.04Z" transform="translate(-507.47-770.71)" fill="#000072"/></g><g opacity="0.300003"><path d="M3278.61,1893.34c-.4732,10.983747-1.739835,21.918915-3.79,32.72-41.65,212.62-376.34,326.05-747.56,253.33-302.69-59.29-536.13-224-589.44-398.11-10.09,203.14,248.27,414.93,600.52,483.93c371.21,72.72,705.91-40.71,747.56-253.33c7.69-39.25,4.78-79.13-7.29-118.54" transform="translate(-507.47-770.71)" fill="#000072"/></g></g></g></g></svg>
