<svg id="Layer_1" data-name="Layer 1" xmlns="http://www.w3.org/2000/svg" viewBox="0 0 2890.73 2422.63"><path d="M1019,2493.92v171.3c-24.09-56.68-104-26.43-104-26.43-91.29,44-161.65,30.52-217.95-21.85-.49-.44-.93-.88-1.42-1.31-191,6.81-225.15-149.28-169-297,15.21,95.81,224.83,27.25,203,250.71C826.25,2618.84,913.67,2510.71,1019,2493.92Z" transform="translate(-483.31 -819.77)" style="fill:#fff"/><path d="M3246.37,2002.86v701a199.44,199.44,0,0,1-76.36,157c-18,14.17-37.06,29.11-56.79,44.59a230.59,230.59,0,0,0-65.84,82.46c-40.33,84.75-77.45,142.2-111.56,173.48-80,73.41-143.24,2.34-191.2-199.75l-.38-1.47c-11.28,1.25-22.78,2.5-34.34,3.76-136.31,14.39-286.9,26.7-361.56,32.59a75.61,75.61,0,0,0-64,46.71q-51.84,127.13-103.78,164.49-86.42,62.37-172.93-124.43c-3.6-7.74-7.2-15.86-10.79-24.26a84.6,84.6,0,0,0-64.26-50.08,86.12,86.12,0,0,0-13-1.15q-111.6-1-223.79-5.67-40.87-1.71-81.86-3.92-36.87-2-73.8-4.31l-2.4,6.27q-141.35,334.05-282.59,80.17-21.68-39-43.39-91.83a46.63,46.63,0,0,0-33-27.69A205.43,205.43,0,0,1,1019,2760.55v-753a367.8,367.8,0,0,1,35.27-156.75L1315,1300.59a114.71,114.71,0,0,1,72.82-61.42c18.15-5.07,31-21.26,31-40.11V967.86a129,129,0,0,1,129-129h1130A128.93,128.93,0,0,1,2806.7,967.8v267.12h34.39a98.29,98.29,0,0,1,87.53,53.47L3060.9,1546l141.71,276A395.78,395.78,0,0,1,3246.37,2002.86Z" transform="translate(-483.31 -819.77)" style="fill:#fff"/><path d="M1352.08,2368.5c-8.18,19.26-5.82,42,3.41,60.76s24.74,33.9,42.09,45.6c9.9,6.68,20.7,12.44,32.44,14.61s24.62.38,34.14-6.84c17.82-13.51,18.29-40.32,12.3-61.86-8.57-30.83-27.83-61.12-53.89-80.13C1397.29,2322.21,1363.48,2341.68,1352.08,2368.5Z" transform="translate(-483.31 -819.77)" style="fill:#5f5e73"/><path d="M1708.78,1869c47.5,31.63,113,24.59,162.49-3.77s86.09-74.51,118.9-121.2c23.76-33.8,47.28-72.79,41-113.62-6.91-44.94-47.78-77.39-61.37-120.78-10-31.73-4.31-66.21,4.6-98.25s21.09-63.49,24.26-96.59-4.28-69.36-28.86-91.76l-403,11.86-46.33-40s-48.17,49.33-103.12,14.67l-19.55,25.32-60.45,49.27a42.92,42.92,0,0,0,41.38,65s52.44-85.07,103.44,11.14C1569.63,1498.51,1643.82,1671.62,1708.78,1869Z" transform="translate(-483.31 -819.77)" style="fill:#5f5e73"/><path d="M3246.37,2002.86v223l-4.52.16c-55.11-7.84-105.3-37.11-146.89-74.12s-75.43-81.64-109.06-126c-41.15-54.34-84.26-114.3-83-182.42.6-31.78,10.95-62.52,23.32-91.84A684.58,684.58,0,0,1,3060.9,1546l141.71,276A395.78,395.78,0,0,1,3246.37,2002.86Z" transform="translate(-483.31 -819.77)" style="fill:#5f5e73"/><path d="M729.72,2569.3l-32.64,47.64c-.49-.44-.93-.88-1.42-1.31-191,6.81-225.15-149.28-169-297C541.91,2414.4,751.53,2345.84,729.72,2569.3Z" transform="translate(-483.31 -819.77)" style="fill:#5f5e73"/><g style="opacity:0.55"><path d="M729.72,2569.3,718.93,2585c4-193.11-189.88-133.53-204.49-225.53-1,2.56-1.91,5.12-2.83,7.63a393.28,393.28,0,0,1,15.09-48.51C541.91,2414.4,751.53,2345.84,729.72,2569.3Z" transform="translate(-483.31 -819.77)" style="fill:#fff"/></g><path d="M2220.65,1565.44c11.51,14.88,28.38,29.18,46.92,26,19.63-3.41,30.78-25,33.22-44.75,4.6-37.34-16.07-100-64.16-93C2181.59,1461.56,2197.24,1535.18,2220.65,1565.44Z" transform="translate(-483.31 -819.77)" style="fill:#5f5e73"/><g style="opacity:0.30000000000000004"><ellipse cx="2421.13" cy="1612.4" rx="212.47" ry="160.37" transform="translate(-544.71 2308.8) rotate(-65.08)" style="fill:#000070"/></g><g style="opacity:0.30000000000000004"><ellipse cx="1965.57" cy="1864.62" rx="144.99" ry="109.44" transform="translate(-1037.02 2041.6) rotate(-65.08)" style="fill:#000070"/></g><g style="opacity:0.30000000000000004"><ellipse cx="2902.87" cy="1836.26" rx="144.99" ry="109.44" transform="translate(-468.98 2875.2) rotate(-65.08)" style="fill:#000070"/></g><path d="M2007.59,3083.26c-3.6-7.74-7.2-15.86-10.79-24.26a84.88,84.88,0,0,0-77.23-51.23q-111.6-1-223.79-5.67l-1.42-2.89c-102.46-156.85,110.91-259,266.52-256.7,54.06.82,106.55,21.09,145.68,58.43C2200.47,2890.54,2164.44,3020.14,2007.59,3083.26Z" transform="translate(-483.31 -819.77)" style="fill:#5f5e73"/><path d="M1462.51,2976.76c-41.59,64.15-126.28,96.14-202.53,101.32l-4.85,2.23q-21.68-39-43.39-91.83a46.63,46.63,0,0,0-33-27.69A205.43,205.43,0,0,1,1019,2760.55V2364.7c44-27.25,101.6-31.94,149.28-11.39,51.35,22.18,89.28,72.92,95.93,128.46,2.94,24.25.33,49.05,5.34,72.92,9.27,44.15,43,78.87,78.43,106.72s74.72,51.94,103,87.09C1501.86,2812,1506.76,2908.47,1462.51,2976.76Z" transform="translate(-483.31 -819.77)" style="fill:#5f5e73"/><g style="opacity:0.55"><path d="M3246.37,2002.86v701a199.44,199.44,0,0,1-76.36,157c-18,14.17-37.06,29.11-56.79,44.59a230.59,230.59,0,0,0-65.84,82.46c-59.19,124.43-111.56,190-157.45,200.24,35.42-30.19,74.17-89,116.41-177.79a230.67,230.67,0,0,1,65.84-82.46l56.79-44.58a199.47,199.47,0,0,0,76.36-157v-701a395.81,395.81,0,0,0-43.76-181l-141.71-275.94-132.28-257.58a98.31,98.31,0,0,0-87.53-53.47h-34.39V990.26a128.93,128.93,0,0,0-128.95-129h-1130a128.69,128.69,0,0,0-40.44,6.48,128.65,128.65,0,0,1,81.48-28.94h1130A128.93,128.93,0,0,1,2806.7,967.8v267.12h34.39a98.29,98.29,0,0,1,87.53,53.47L3060.9,1546l141.71,276A395.78,395.78,0,0,1,3246.37,2002.86Z" transform="translate(-483.31 -819.77)" style="fill:#fff"/></g><path d="M2137.22,3242.4c-55.71,0-107.39-57.55-158-175.9a65.76,65.76,0,0,0-59.88-39.65c-121.1-1.11-244.42-5.5-366.73-13.08-56.5,131.35-113.94,195.23-175.5,195.23h-.48c-64.1-.34-123.82-70.11-182.58-213.29a27.63,27.63,0,0,0-19.55-16.32C1071.74,2956,1000,2866,1000,2760.55v-753a387.59,387.59,0,0,1,37.1-164.92l260.68-550.25a133.69,133.69,0,0,1,84.89-71.63c10.2-2.86,17.05-11.6,17.05-21.75V967.86c0-81.66,66.43-148.09,148.08-148.09h1130c81.62,0,148,66.41,148,148v248h15.31a116.94,116.94,0,0,1,104.51,63.85l274,533.5a416.83,416.83,0,0,1,45.87,189.67v701a217.26,217.26,0,0,1-83.66,172L3125,2920.42a212.49,212.49,0,0,0-60.39,75.65c-71.94,151.21-133.74,218.56-194.87,212.16-58.4-6.18-103.06-78.53-140-227.31-136.94,14.84-295.53,27.95-379.86,34.59a56.21,56.21,0,0,0-47.88,34.91c-52.55,128.71-106.21,191.51-164.07,192Zm-597.11-267.61c.41,0,.82,0,1.23,0,126.13,8.07,253.44,12.73,378.4,13.87a103.91,103.91,0,0,1,94.59,62.79c53.91,126.14,96.55,152.76,122.93,152.76h.31c27.64-.23,72.45-29.6,129.07-168.26a94.17,94.17,0,0,1,80.2-58.52c87.54-6.89,255.3-20.77,395.3-36.29a19.08,19.08,0,0,1,20.55,14.11l.39,1.47c42.76,180.17,87.69,211.1,110.67,213.53,23.4,2.41,74.76-19,156.41-190.6a250.58,250.58,0,0,1,71.29-89.28l56.78-44.58a179.34,179.34,0,0,0,69.06-142V2002.86a378.38,378.38,0,0,0-41.65-172.23l-274-533.53a79,79,0,0,0-70.57-43.11H2806.7a19.07,19.07,0,0,1-19.08-19.07V967.8a110,110,0,0,0-109.87-109.88h-1130a110.06,110.06,0,0,0-109.93,109.94v231.19c0,27-18.47,51.08-44.92,58.49a95.55,95.55,0,0,0-60.68,51.21L1071.52,1859a349.26,349.26,0,0,0-33.42,148.58v753c0,87.55,59.58,162.24,144.9,181.63a65.85,65.85,0,0,1,46.38,39.05c64.2,156.41,115.64,189.45,147.49,189.62h.25c30.91,0,80.71-31,142.9-177.83l2.28-6A19.08,19.08,0,0,1,1540.11,2974.79Z" transform="translate(-483.31 -819.77)" style="fill:#000070"/><path d="M1649.43,857.93a109.2,109.2,0,0,0-71.26,26.29,109.94,109.94,0,0,0-37.23,66.22c-.46,3.2-.89,6.41-1.07,9.64-.17,1.61-.21,3.23-.23,4.85s-.1,3.19-.08,5.2l.06,22.76.11,45.53.21,91.06,0,45.52v11.39c0,.83,0,2.16,0,2.57l.08,1.66c0,1.13.32,2.18.38,3.28a27,27,0,0,0,16,19.76,26.61,26.61,0,0,0,6.38,1.76,23.56,23.56,0,0,0,3,.31,16.53,16.53,0,0,0,2.38,0l2.84-.09,45.49-1.27,182-5,364-9.91c121.32-3.49,242.68-6.16,364.05-9.1a8.18,8.18,0,0,1,.62,16.34c-121.28,6.24-242.56,12.76-363.88,18.46l-364,17.64-182,8.82-45.5,2.18-2.85.12a30,30,0,0,1-3.31,0,61.19,61.19,0,0,1-8.28-.65,65,65,0,0,1-15.54-4.14,65.6,65.6,0,0,1-39.6-47.7,72.17,72.17,0,0,1-1.09-8l-.2-4c-.07-1.48,0-2,0-3.11V1175l0-45.52.21-91.06.11-45.53.06-22.76.1-6.19c0-2.17.11-4.35.31-6.51.26-4.35.82-8.67,1.45-13a148.48,148.48,0,0,1,95-115.57,150.24,150.24,0,0,1,51.19-9.1,19.08,19.08,0,0,1,.12,38.15Z" transform="translate(-483.31 -819.77)" style="fill:#000070"/><g style="opacity:0.30000000000000004"><path d="M1734.53,1946.17l-40.17,27.26-520.28-9.76L1145,1934c-26.33,22.48-52.27,25.31-73.13,21.38a363.83,363.83,0,0,0-3.82,52.2v753a205.43,205.43,0,0,0,159.74,200.24,46.65,46.65,0,0,1,33,27.69q21.66,52.82,43.38,91.83c18.37,33,36.74,58.44,55.11,76.54a89.71,89.71,0,0,1-17,7c94.5-28,71.22-180.71,71.22-180.71L1539.68,2995l.44-1.15q36.95,2.37,73.8,4.31c152.38-13.3,142.63-130,142.63-130l6.27-442.5C1770.94,2228.83,1774.86,2040.68,1734.53,1946.17Z" transform="translate(-483.31 -819.77)" style="fill:#000070"/></g><path d="M2742.14,2941.18l139.65-6.62.39,0a8.18,8.18,0,0,1,2,16.19l-137.88,28.37a19.15,19.15,0,0,1-7.72-37.52,18.57,18.57,0,0,1,2.84-.37Z" transform="translate(-483.31 -819.77)" style="fill:#000070"/><path d="M2385.38,3012.61,2229,3001.71a8.2,8.2,0,0,1,0-16.35l156.39-10.9a19.12,19.12,0,1,1,2.66,38.15A21.46,21.46,0,0,1,2385.38,3012.61Z" transform="translate(-483.31 -819.77)" style="fill:#000070"/><path d="M1537.94,3012.8l-91.88-21.52a8.23,8.23,0,0,1,1.87-16.25l94.37-.13a19.21,19.21,0,0,1,0,38.41A20.08,20.08,0,0,1,1537.94,3012.8Z" transform="translate(-483.31 -819.77)" style="fill:#000070"/><path d="M1355.93,1374.92c5.83-14.56,12.65-29,21.63-42.69a147.76,147.76,0,0,1,15.27-19.72c1.51-1.58,2.79-3,4.6-4.64a49.5,49.5,0,0,1,20.15-11.09,50.43,50.43,0,0,1,30.74,1.37,51.62,51.62,0,0,1,24.7,19.27c8.77,13.13,17.45,25.72,25.68,38.91q25,39.15,48,79.56c15.45,26.85,30,54.21,43.79,81.9,6.71,13.94,13.63,27.78,20.15,41.8s13,28.05,19.24,42.2c12.75,28.17,25,56.54,37.06,85q36.21,85.29,68.4,172.07l8,21.7,4,10.86,2,5.47,2.22,7.49a71,71,0,0,1-66.16,88l-3.9.16-2.91,0-5.76-.07-11.52-.13-23-.28L1454,1989.92l-92.18-.28c-30.72-.28-61.44-.45-92.15-1.57-15.36-.47-30.71-1.13-46.07-1.9-7.67-.34-15.35-.71-23-1.23l-5.75-.36-3-.21-3.85-.4a45,45,0,0,1-7.6-1.36,42.49,42.49,0,0,1-7.38-2.26c-19.35-7.34-33.81-24.21-38.15-43.34a56.83,56.83,0,0,1,.66-28.63A68.46,68.46,0,0,1,1148,1885a8.22,8.22,0,0,1,13.91,8.51l-.14.3a58.51,58.51,0,0,0-5.17,18.86,35.61,35.61,0,0,0,2.82,16.92c4.46,10.38,13.73,18,23.66,20.21a16.88,16.88,0,0,0,3.74.68,15.94,15.94,0,0,0,3.79.24l1.89,0c.62,0,1.83-.06,2.71-.08l5.77-.22c7.68-.34,15.36-.53,23-.68q23.05-.62,46.1-.8c30.73-.39,61.44.17,92.16.63l92.15,1.92,184.33,2.34,23,.28,11.52.13,5.76.07,2.85,0,1.85-.13a32.1,32.1,0,0,0,25-13.15,33.37,33.37,0,0,0,5.78-27.69c-.38-1.18-.73-2.36-1-3.57l-2-5.33-4-10.77-7.93-21.54q-32.05-86-67.78-170.49c-5.94-14.08-12-28.11-18.29-42s-12.49-27.87-19-41.7c-12.91-27.68-26.31-55.09-39.72-82.48-13.69-27.25-27.14-54.62-41.09-81.73-6.93-13.58-14-27.11-21.23-40.51-7.08-13.5-14.45-26.84-21.81-40.2l-22.36-39.74c-4.39-8.32-14.81-13.39-24.73-11.51a21.57,21.57,0,0,0-7.06,2.48,22.34,22.34,0,0,0-3.23,2.07c-1.12.81-2.59,2.1-3.85,3.17a124.22,124.22,0,0,0-14.58,15.32c-9.07,11.2-16.84,24-24.21,37.11l0,0a8.19,8.19,0,0,1-14.75-7Z" transform="translate(-483.31 -819.77)" style="fill:#000070"/><g style="opacity:0.30000000000000004"><path d="M1154.84,1889.38a70.66,70.66,0,0,0-7.13,14.72c-10.81,30.82,12.23,63.09,44.88,63.48l489,5.84c36.57.44,62.23-35.86,49.73-70.23-77.61-213.45-165.3-410.06-270.43-577.51-12.2-19.43-39.06-23.45-56.12-8.11-17.22,15.46-30.18,37-41.49,60.85Z" transform="translate(-483.31 -819.77)" style="fill:#000070"/></g><path d="M1548.17,1482.07l-278.09,310.42a8.18,8.18,0,0,1-12.46-10.59l261.48-324.54a19.08,19.08,0,1,1,29.72,24C1548.62,1481.55,1548.38,1481.84,1548.17,1482.07Z" transform="translate(-483.31 -819.77)" style="fill:#000070"/><path d="M1777.53,2370.58l-3.76,357.76-.94,89.45-.46,44.72-.24,22.36c-.16,4-.48,8.39-.75,12.58s-1.26,8.38-1.9,12.58a134.53,134.53,0,0,1-101.69,104.39l-6.32,1.42c-2.12.37-4.27.59-6.41.87a91.62,91.62,0,0,1-12.9,1.07c-9.15.34-16-.08-23.57-.24h-.06a19.08,19.08,0,0,1,.84-38.16l.85,0c15.91,1.07,27.18,1.61,39.79-1a98.13,98.13,0,0,0,34.76-14.17,100.14,100.14,0,0,0,42.72-61.06c.54-3.16,1.42-6.27,1.74-9.47l.89-9.71.92-22.35,1.83-44.68,3.66-89.37,14.65-357.49a8.18,8.18,0,0,1,16.35.42Z" transform="translate(-483.31 -819.77)" style="fill:#000070"/><path d="M1875.64,1999.75q-120.61,22.44-202.74,78.44c-27.29,18.61-30.68,57.66-7.32,81,59.53,59.53,130.17,103.12,210.06,133.48" transform="translate(-483.31 -819.77)" style="fill:#fff"/><path d="M3105.91,1947q122.53-6,215.36,29.53c30.86,11.82,43.16,49,25.82,77.16-44.18,71.66-102.86,130.38-173.58,178.35" transform="translate(-483.31 -819.77)" style="fill:#5f5e73"/><g style="opacity:0.55"><path d="M3347.09,2058.82c-2.13,3.43-4.25,6.86-6.49,10.19a52.72,52.72,0,0,0-33-58.05q-73.9-28.28-166.62-30.25a37,37,0,0,1-35.09-28.61h0q122.53-6,215.33,29.54C3352.1,1993.47,3364.42,2030.69,3347.09,2058.82Z" transform="translate(-483.31 -819.77)" style="fill:#fff"/></g><path d="M1877.13,2007.79q-33.63,9.33-66.08,21-16.18,5.9-31.87,12.76c-10.5,4.44-20.79,9.28-30.9,14.37a505.18,505.18,0,0,0-57.94,34.33l-6.73,4.53a33.42,33.42,0,0,0-4.21,3.54,32.19,32.19,0,0,0-6.46,8.74,33.09,33.09,0,0,0-3,21.76,31.93,31.93,0,0,0,4.15,10.33,27.63,27.63,0,0,0,1.6,2.29,12.64,12.64,0,0,0,1.76,2.18l2,2.13,3.1,2.9c8.22,7.77,16.52,15.44,25,22.9,16.78,15.14,33.9,30.11,52.33,43.52s37.51,26.05,57.34,37.69,40.32,22.36,61.32,32.31h0a8.2,8.2,0,0,1-5.84,15.27,553.77,553.77,0,0,1-67.23-24.52,532.64,532.64,0,0,1-64.07-33.1c-10.3-6.29-20.48-12.83-30.42-19.74s-19.78-14.05-29-21.91c-4.72-3.82-9.16-8-13.6-12.09s-8.76-8.39-13.05-12.68l-3.21-3.23-3.9-4.4a38.26,38.26,0,0,1-3.66-4.71c-1.12-1.66-2.36-3.23-3.31-5a76.67,76.67,0,0,1-8.7-22.2,73.28,73.28,0,0,1,5.31-46.74,65.82,65.82,0,0,1,13.88-19.68,71.72,71.72,0,0,1,9.2-7.78c2.91-2.08,5.2-3.53,7.89-5.25a307.37,307.37,0,0,1,32.12-17.85c10.94-5.44,22.14-10.27,33.41-14.79a490.14,490.14,0,0,1,69.16-21.26,548.55,548.55,0,0,1,70.62-11.71,8.21,8.21,0,0,1,3,16.07Z" transform="translate(-483.31 -819.77)" style="fill:#000070"/><path d="M1882.08,2104.21c-11.59,3.58-22.77,6.16-33.71,9.1s-21.62,5.89-32.19,9.21-21,7-31.48,11.08-21,8.47-32.29,12.62l-.16.05a8.46,8.46,0,0,1-9.55-13.21c8-10.07,17.92-18.3,28.68-25.32a151.47,151.47,0,0,1,72.63-23.39c12.75-.64,25.53.18,37.9,3.51a8.49,8.49,0,0,1,.35,16.3Z" transform="translate(-483.31 -819.77)" style="fill:#000070"/><path d="M1811.68,2119.88a16.84,16.84,0,0,0,.41,2.32c.18.93.42,1.89.68,2.88.46,2,1.12,4,1.71,5.93,1.33,4,2.79,8,4.53,11.88a139.85,139.85,0,0,0,12.5,22.71,147.22,147.22,0,0,0,16.61,20.47,170.45,170.45,0,0,0,20.1,17.73l.34.26a8.18,8.18,0,0,1-9,13.58,189.37,189.37,0,0,1-25-16.3,170.15,170.15,0,0,1-22.24-20.5,167.09,167.09,0,0,1-18.52-24.47c-2.76-4.37-5.25-8.94-7.62-13.63-1.13-2.4-2.29-4.76-3.31-7.28-.53-1.23-1-2.51-1.53-3.83s-.93-2.47-1.52-4.48l-.9-3.11a16.73,16.73,0,0,1,32.14-9.31A17.22,17.22,0,0,1,1811.68,2119.88Z" transform="translate(-483.31 -819.77)" style="fill:#000070"/><path d="M3105.51,1938.85a547.61,547.61,0,0,1,71.42-4.9,489.68,489.68,0,0,1,72.2,4.72c12,1.8,24,3.91,35.91,6.68a306.33,306.33,0,0,1,35.38,10c3,1,5.57,1.93,8.88,3.28a71.9,71.9,0,0,1,10.75,5.46,65.86,65.86,0,0,1,18,15.94,73.33,73.33,0,0,1,16,44.25,76.87,76.87,0,0,1-3.34,23.61c-.52,1.93-1.37,3.75-2.07,5.62a39.16,39.16,0,0,1-2.48,5.43l-2.78,5.18L3361,2068c-3.17,5.17-6.3,10.37-9.76,15.35s-6.74,10.1-10.45,14.9c-7.18,9.79-15.13,19-23.19,28s-16.47,17.73-25,26.23a533.34,533.34,0,0,1-54.7,47,556,556,0,0,1-59.76,39.38,8.2,8.2,0,0,1-9.21-13.52h0q27.21-21.81,52.21-45.59c16.6-15.9,32.26-32.63,47.09-49.91s28.05-35.82,40.88-54.42c6.54-9.22,12.85-18.6,19.06-28.05l2.34-3.54,1.44-2.53a11.49,11.49,0,0,0,1.2-2.53,25,25,0,0,0,1-2.59,31.91,31.91,0,0,0,1.65-11,33.14,33.14,0,0,0-7.93-20.48,35.09,35.09,0,0,0-13.23-9.48l-7.59-2.85a504.9,504.9,0,0,0-64.3-20c-11-2.62-22.14-5-33.38-6.85q-16.83-3.09-34-5.06-34.23-3.87-69.14-5.18h0a8.2,8.2,0,0,1-.76-16.33Z" transform="translate(-483.31 -819.77)" style="fill:#000070"/><path d="M3120.13,2034.2c11.27-6.1,23.52-9.84,36.07-12.17a151.57,151.57,0,0,1,76.07,6c12.08,4.35,23.66,10.06,33.75,18a8.47,8.47,0,0,1-6.23,15.06l-.19,0c-11.95-1.42-23.15-3.41-34.33-4.82s-22.13-2.71-33.18-3.52-22.14-1.26-33.45-1.53-22.8-.27-34.89-1.08h-.14a8.5,8.5,0,0,1-7.91-9A8.59,8.59,0,0,1,3120.13,2034.2Z" transform="translate(-483.31 -819.77)" style="fill:#000070"/><path d="M3228.56,2048.86c-.1,2.09-.25,3.23-.44,4.7s-.38,2.77-.61,4.09c-.41,2.69-1,5.25-1.54,7.84-1.22,5.12-2.59,10.14-4.27,15a166.75,166.75,0,0,1-12.37,28.08,170,170,0,0,1-16.91,25.08,188.67,188.67,0,0,1-20.54,21.62,8.18,8.18,0,0,1-11.94-11.12l.27-.33a170.63,170.63,0,0,0,15.46-21.89,146.84,146.84,0,0,0,11.44-23.75,139.76,139.76,0,0,0,6.92-25c.8-4.2,1.3-8.43,1.67-12.6.12-2.07.3-4.16.3-6.16,0-1,0-2,0-3a18.71,18.71,0,0,0-.14-2.36,16.72,16.72,0,1,1,32.87-3.59Z" transform="translate(-483.31 -819.77)" style="fill:#000070"/><path d="M2720.8,1558.34l-126.93,83.39a128.37,128.37,0,0,1-31.18,15.91c-75.81,26.38-161.76-22.51-191.9-109.22-24.47-70.37-4.8-143.94,44-183.35l.22-.11a125.72,125.72,0,0,1,20.71-13.62l112.22-73.58,22.46-14.72a118.92,118.92,0,0,1,16.78-7.25c75.82-26.38,161.77,22.51,191.91,109.23C2805.83,1441.86,2779.83,1522.64,2720.8,1558.34Z" transform="translate(-483.31 -819.77)" style="fill:#00cdfc"/><g style="opacity:0.55"><path d="M2727.29,1554.14c26.87-40.93,34.34-97.29,15.42-151.63-30.14-86.71-116.09-135.6-191.9-109.22a119.55,119.55,0,0,0-16.79,7.25l-22.45,14.72-112.22,73.57a119.15,119.15,0,0,0-13.19,8,136.29,136.29,0,0,1,28.61-31.78l.22-.11a125.72,125.72,0,0,1,20.71-13.62l112.22-73.58,22.46-14.72a118.92,118.92,0,0,1,16.78-7.25c75.82-26.38,161.77,22.51,191.91,109.23C2804.85,1439,2781.68,1516.59,2727.29,1554.14Z" transform="translate(-483.31 -819.77)" style="fill:#fff"/></g><path d="M2520.14,1683.92c-27.1,0-54.42-7.37-80-21.9-40.27-22.92-71.32-61-87.41-107.34-26.64-76.59-6.54-158.76,50-204.45q.57-.46,1.17-.87a146.27,146.27,0,0,1,22.05-14.48l133.91-87.79c.49-.32,1-.63,1.52-.9a137.23,137.23,0,0,1,19.49-8.42c41.91-14.59,87.65-9.75,128.75,13.65,40.27,22.91,71.31,61,87.4,107.33,29.25,84,1.46,174.64-66.09,215.72l-126.44,83.06a147.94,147.94,0,0,1-84.41,26.39Zm-94.21-303.33c-43.43,35.74-58.36,100.51-37.12,161.56,13.06,37.57,38,68.36,70.24,86.71,31.39,17.86,66,21.69,97.38,10.76a109.09,109.09,0,0,0,26.54-13.56l.42-.28,126.94-83.39.6-.38c52.45-31.72,73.53-103.52,50.12-170.72-13.06-37.58-38-68.37-70.24-86.72-31.4-17.86-66-21.69-97.38-10.76a101.75,101.75,0,0,0-13.37,5.69l-133.9,87.79c-.53.34-1.07.66-1.63,1a108.09,108.09,0,0,0-17.58,11.58C2426.62,1380.09,2426.28,1380.34,2425.93,1380.59Z" transform="translate(-483.31 -819.77)" style="fill:#000070"/><path d="M2547.94,1296.84a19.08,19.08,0,0,1-12.11-33.84,143.3,143.3,0,0,1,25.92-17,19.08,19.08,0,0,1,19.08,33l-22.45,14.71A19,19,0,0,1,2547.94,1296.84Z" transform="translate(-483.31 -819.77)" style="fill:#000070"/><path d="M2666.29,1510.56c-39.1,0-77.3-31.3-92.9-76.12-9.68-27.82-9.49-58,.53-82.87,5.24-13,18.07-36.14,45.16-45.57a68.8,68.8,0,0,1,22.68-3.82c39.1,0,77.31,31.3,92.91,76.12,9.69,27.81,9.49,58-.54,82.86-5.23,13-18.05,36.13-45.16,45.58A68.93,68.93,0,0,1,2666.29,1510.56Zm-24.53-175.68a36.32,36.32,0,0,0-11.94,2c-14.88,5.19-22.41,19.1-25.57,26.93-7.1,17.61-7.1,39.43,0,59.88,10.93,31.39,37,54.17,62,54.17a36.13,36.13,0,0,0,11.93-2c14.9-5.2,22.42-19.1,25.58-26.93,7.11-17.61,7.1-39.44,0-59.88C2692.86,1357.66,2666.78,1334.88,2641.76,1334.88Z" transform="translate(-483.31 -819.77)" style="fill:#000070"/><path d="M2720.83,1577.41a19.08,19.08,0,0,1-10.51-35l6.7-4.41a19.07,19.07,0,0,1,21,31.86l-6.71,4.42A18.92,18.92,0,0,1,2720.83,1577.41Z" transform="translate(-483.31 -819.77)" style="fill:#000070"/><path d="M2591.38,1662.44a19.08,19.08,0,0,1-10.45-35l2.51-1.64a19.08,19.08,0,0,1,20.86,32l-2.51,1.63A19,19,0,0,1,2591.38,1662.44Z" transform="translate(-483.31 -819.77)" style="fill:#000070"/><path d="M2655.61,1594.55c-69.92,0-138.22-49.87-165.18-127.31-15.9-45.67-15.25-94.15,1.84-136.5,17.39-43.11,49.65-74.75,90.84-89.09,84.21-29.3,179.63,24.2,212.72,119.28h0c15.89,45.67,15.24,94.15-1.84,136.5-17.4,43.12-49.66,74.76-90.84,89.09A144.18,144.18,0,0,1,2655.61,1594.55Zm-24.79-328.24a112.07,112.07,0,0,0-37,6.23c-32.15,11.19-57.45,36.2-71.27,70.44-14.12,35-14.57,75.32-1.28,113.51,27.18,78.06,104,122.53,171.1,99.14,32.14-11.18,57.45-36.2,71.26-70.43,14.12-35,14.58-75.32,1.28-113.52h0C2742.69,1307.72,2687.12,1266.31,2630.82,1266.31Z" transform="translate(-483.31 -819.77)" style="fill:#000070"/><path d="M2368.9,1483.8a16.35,16.35,0,0,1-7.69-30.79l126.51-67.23a16.35,16.35,0,0,1,15.35,28.88l-126.52,67.22A16.25,16.25,0,0,1,2368.9,1483.8Z" transform="translate(-483.31 -819.77)" style="fill:#000070"/><path d="M2379.8,1570.27a16.35,16.35,0,0,1-7.76-30.75l134.29-72.24a16.35,16.35,0,1,1,15.49,28.79l-134.29,72.25A16.33,16.33,0,0,1,2379.8,1570.27Z" transform="translate(-483.31 -819.77)" style="fill:#000070"/><path d="M2432.15,1648.42a16.36,16.36,0,0,1-8.39-30.4l131.08-78.14a16.35,16.35,0,1,1,16.75,28.08l-131.08,78.15A16.22,16.22,0,0,1,2432.15,1648.42Z" transform="translate(-483.31 -819.77)" style="fill:#000070"/><path d="M1019,2684.32a19.08,19.08,0,0,1-17.56-11.62c-15.8-37.17-72.29-18.67-79-16.3-90.34,43.32-169,36.08-234-21.51-96.87,1.27-146.16-38.53-170.63-72.7-42.61-59.5-46-153.1-9-250.38a19.07,19.07,0,0,1,36.67,3.79c3.9,24.55,26.91,34,67.24,48.63,61.66,22.35,145.39,52.71,137,193.09,46.83,17.17,93-7.08,145.74-34.83,37.88-19.91,77.06-40.49,120.48-47.42a19.07,19.07,0,1,1,6,37.67c-37.23,5.94-73.59,25.05-108.74,43.52-60.9,32-123.87,65.1-192.27,30a19.06,19.06,0,0,1-10.28-18.82c12-122.79-47.74-144.43-111-167.35-24.85-9-50.2-18.2-68.17-34.45-18.16,69.8-12.32,133.07,17.23,174.33,28.63,40,77.76,59,146.14,56.59a19,19,0,0,1,13.79,5.2c54.37,51.42,119.12,57.92,198,19.84.5-.24,1-.46,1.54-.66,33.56-12.69,103.57-21.34,128.3,36.83a19.09,19.09,0,0,1-17.55,26.54Z" transform="translate(-483.31 -819.77)" style="fill:#000070"/><ellipse cx="2099.49" cy="1789.72" rx="224.82" ry="172.36" style="fill:#ff94ff"/><path d="M2716.33,2657c-11.64,25.26-40.55,41.56-70,38.89-14.75-1-29.12-7.26-40.57-16.34a54.27,54.27,0,0,1-8.06-7.35l-3.77-3.92-3.24-4.23-3.17-4.29-.79-1.08-.39-.54c-.13-.18,0,0,0,0a4.12,4.12,0,0,0,.26.32,2.7,2.7,0,0,0,3.88,0c.11-.12.2-.24.27-.32s.08-.17-.05,0l-.39.54-.79,1.08-3.17,4.28-3.24,4.24-3.77,3.91a54.33,54.33,0,0,1-8.06,7.36c-11.45,9.07-25.82,15.34-40.57,16.33-29.44,2.66-58.35-13.63-70-38.88a6.42,6.42,0,0,1,10.65-6.92l.29.33c14.37,16.4,36.78,23.83,55.94,20a53,53,0,0,0,25.57-12.74,39.69,39.69,0,0,0,5.22-5.23l2.54-2.74,2.19-3.15,2.25-3.11,1.49-2.07a25.6,25.6,0,0,1,3.21-3.82,26.27,26.27,0,0,1,37,0,25.67,25.67,0,0,1,3.22,3.82l1.49,2.07,2.25,3.1,2.19,3.15,2.53,2.75a40.29,40.29,0,0,0,5.23,5.22,53.06,53.06,0,0,0,25.57,12.74c19.15,3.78,41.56-3.63,55.94-20l.28-.32a6.41,6.41,0,0,1,10.65,6.91Z" transform="translate(-483.31 -819.77)" style="fill:#000070"/><path d="M2480.64,2531.57a35.08,35.08,0,0,1,11.08,8.14,47.89,47.89,0,0,1,7.4,10.27,59.31,59.31,0,0,1,4.92,11.69,41.91,41.91,0,0,1,1.81,13.5,8.07,8.07,0,0,1-8.42,7.72,8.27,8.27,0,0,1-3.37-.9,42.2,42.2,0,0,1-10.8-8.3,59.39,59.39,0,0,1-7.68-10.11,48.48,48.48,0,0,1-5.21-11.53,35.27,35.27,0,0,1-1.52-13.66,8.35,8.35,0,0,1,9.11-7.54A8.57,8.57,0,0,1,2480.64,2531.57Z" transform="translate(-483.31 -819.77)" style="fill:#000070"/><path d="M2698.67,2538.39a35.27,35.27,0,0,1-1.53,13.66,48.08,48.08,0,0,1-5.21,11.53,58.87,58.87,0,0,1-7.68,10.11,42.14,42.14,0,0,1-10.79,8.3,8.09,8.09,0,0,1-10.9-3.45,8.34,8.34,0,0,1-.9-3.37,42.18,42.18,0,0,1,1.81-13.5,59.34,59.34,0,0,1,4.93-11.69,47.84,47.84,0,0,1,7.39-10.27,35.08,35.08,0,0,1,11.08-8.14,8.36,8.36,0,0,1,11.08,4.13A8.67,8.67,0,0,1,2698.67,2538.39Z" transform="translate(-483.31 -819.77)" style="fill:#000070"/><path d="M1913.06,1794.37q142.72-378.18,178.39,29.6c2.08,23.86-10.43,47-32,57.41-46,22.06-112.42,6.72-140.91-34.58C1908,1831.54,1906.52,1811.71,1913.06,1794.37Z" transform="translate(-483.31 -819.77)" style="fill:#f2d840"/><g style="opacity:0.6000000000000001"><path d="M2059.42,1881.37a79.89,79.89,0,0,1-9.49,3.87,59,59,0,0,0,6.71-32.86q-19.29-220.34-69.82-211.2Q2066,1534.41,2091.47,1824C2093.54,1847.85,2081,1871,2059.42,1881.37Z" transform="translate(-483.31 -819.77)" style="fill:#fff"/></g><path d="M2858.68,1748.05q142.72-378.19,178.38,29.59c2.09,23.86-10.42,47-32,57.41-46,22.07-112.41,6.72-140.9-34.58C2853.61,1785.22,2852.13,1765.39,2858.68,1748.05Z" transform="translate(-483.31 -819.77)" style="fill:#f2d840"/><g style="opacity:0.6000000000000001"><path d="M3005,1835a94.43,94.43,0,0,1-20.6,7.09,58.94,58.94,0,0,0,9.49-37.55q-17.41-199.65-60.61-210.87,78.48-104.07,103.77,183.94C3039.15,1801.53,3026.62,1824.69,3005,1835Z" transform="translate(-483.31 -819.77)" style="fill:#fff"/></g><path d="M2013.08,1910.39c-43.13,0-87.26-19.42-110.26-52.76-13.77-20-16.61-46.13-7.61-70h0c53.48-141.7,94.16-199.74,135.85-193.94,42.14,5.8,65.88,74.17,79.39,228.61,2.8,32-14.39,62.65-42.77,76.27C2050.94,1906.61,2032.11,1910.39,2013.08,1910.39Zm12.67-278.91c-2,0-32,3.12-94.84,169.63h0c-4.59,12.16-3.36,25.19,3.31,34.86,22.87,33.16,78.63,46.6,117,28.21,14.14-6.78,22.69-22.28,21.26-38.55-16.42-187.84-46.28-194.1-46.58-194.14Zm-112.69,162.89h0Z" transform="translate(-483.31 -819.77)" style="fill:#000070"/><path d="M2958.7,1864.06c-43.13,0-87.27-19.42-110.27-52.76-13.77-20-16.61-46.12-7.6-70h0c53.48-141.7,94.05-199.71,135.85-193.94,42.14,5.8,65.88,74.17,79.38,228.61,2.81,32-14.38,62.65-42.76,76.27C2996.56,1860.28,2977.72,1864.06,2958.7,1864.06Zm-82.18-109.28c-4.59,12.17-3.35,25.2,3.32,34.86,22.87,33.16,78.63,46.6,116.95,28.22,14.15-6.79,22.69-22.28,21.27-38.55-16.42-187.85-46.29-194.11-46.59-194.14s-30.14-2.12-94.95,169.61Z" transform="translate(-483.31 -819.77)" style="fill:#000070"/><g style="opacity:0.30000000000000004"><path d="M2180.52,3207.69q-86.42,62.37-172.93-124.43c-3.6-7.74-7.2-15.86-10.79-24.26a84.6,84.6,0,0,0-64.26-50.08l3-9.71h190.32S2076.7,3159.34,2180.52,3207.69Z" transform="translate(-483.31 -819.77)" style="fill:#000070"/></g><g style="opacity:0.30000000000000004"><path d="M2935.82,3161.36c-80,73.41-143.24,2.34-191.2-199.75l-.38-1.47c-11.28,1.25-22.78,2.5-34.34,3.76l2.35-3.76,212.56-17.5S2854.28,3067.45,2935.82,3161.36Z" transform="translate(-483.31 -819.77)" style="fill:#000070"/></g><ellipse cx="2209.31" cy="2407.31" rx="176.67" ry="139.28" transform="translate(-686.69 3790.98) rotate(-89.86)" style="fill:#fff"/><path d="M2209.17,2602h-.33c-42.84-.11-82.8-21-112.51-58.89-28.71-36.61-44.45-85-44.33-136.2.26-107.23,70.88-194.33,157.48-194.33h.31c42.84.11,82.8,21,112.5,58.89,28.72,36.61,44.46,85,44.34,136.21s-16.1,99.51-45,136C2291.82,2581.31,2251.88,2602,2209.17,2602ZM2070,2407l18,.05c-.11,43.16,12.91,83.59,36.64,113.84,22.74,29,52.65,45,84.21,45.08h.23c31.47,0,61.37-15.86,84.19-44.67,23.89-30.14,37.09-70.5,37.2-113.66s-12.91-83.59-36.64-113.85c-22.74-29-52.65-45-84.21-45.07h-.22c-66.76,0-121.19,71-121.4,158.34Z" transform="translate(-483.31 -819.77)" style="fill:#000070"/><ellipse cx="2232.09" cy="2424.41" rx="144.23" ry="111.59" transform="translate(-681.06 3830.81) rotate(-89.86)" style="fill:#000070"/><ellipse cx="2206.07" cy="2375.33" rx="38.27" ry="26.14" transform="translate(-657.94 3755.83) rotate(-89.86)" style="fill:#fff"/><ellipse cx="2959.94" cy="2407.31" rx="139.28" ry="176.67" transform="translate(-489.18 -812.55) rotate(-0.14)" style="fill:#fff"/><path d="M2960.08,2602c-42.72,0-82.64-20.71-112.46-58.34-28.89-36.47-44.88-84.76-45-136-.26-107.37,70.1-194.89,156.84-195.1h.32c86.6,0,157.21,87.09,157.48,194.33.12,51.22-15.62,99.59-44.34,136.2-29.71,37.87-69.66,58.78-112.51,58.89Zm-.3-353.34h-.23c-66.85.16-121.06,71.45-120.85,158.92.1,43.15,13.32,83.52,37.2,113.66,22.83,28.81,52.72,44.67,84.19,44.67h.23c31.56-.08,61.47-16.09,84.21-45.08,23.74-30.25,36.75-70.68,36.64-113.84C3081,2319.65,3026.52,2248.68,2959.78,2248.68Z" transform="translate(-483.31 -819.77)" style="fill:#000070"/><ellipse cx="2937.16" cy="2424.41" rx="111.59" ry="144.23" transform="translate(-489.22 -812.61) rotate(-0.14)" style="fill:#000070"/><ellipse cx="2963.18" cy="2375.33" rx="26.14" ry="38.27" transform="translate(-489.1 -812.54) rotate(-0.14)" style="fill:#fff"/></svg>